# Blender 3.6.23
# www.blender.org
mtllib sumaho.mtl
o 立方体.001
v 0.577152 -0.714768 -0.142910
v 0.577152 1.162503 -0.142910
v 0.577152 -0.714768 -0.022910
v 0.577152 1.162503 -0.022910
v -0.622848 -0.714837 -0.142910
v -0.622848 1.162558 -0.142910
v -0.622848 -0.714837 -0.022910
v -0.622848 1.162558 -0.022910
v 0.427152 1.274200 -0.022910
v 0.502152 -0.825800 -0.022910
v 0.502152 1.274200 -0.142910
v 0.502152 1.274200 -0.022910
v 0.502152 -0.825800 -0.142910
v -0.547848 1.274200 -0.022910
v -0.547848 -0.825800 -0.142910
v -0.547848 -0.825800 -0.022910
v -0.547848 1.274200 -0.142910
v -0.435348 1.274200 -0.022910
v 0.577152 0.803963 -0.022910
v -0.622848 0.805586 -0.022910
v 0.427152 0.695981 0.047549
v 0.502152 0.750690 0.047549
v -0.547848 0.754465 0.047549
v -0.435348 0.695981 0.047549
v 0.577152 0.458527 -0.022910
v -0.622848 0.458535 -0.022910
v 0.427152 0.624620 -0.022910
v 0.502152 0.624620 -0.022910
v -0.547848 0.624620 -0.022910
v -0.435348 0.624620 -0.022910
v 0.577152 1.045174 -0.022910
v -0.622848 1.045220 -0.022910
v 0.427152 1.232569 0.047549
v 0.502152 1.142950 0.047549
v -0.547848 1.142950 0.047549
v -0.435348 1.232569 0.047549
v -0.425658 0.943562 0.048590
v -0.425658 0.943562 0.046590
v -0.445167 0.941640 0.048590
v -0.445167 0.941640 0.046590
v -0.463926 0.935950 0.048590
v -0.463926 0.935950 0.046590
v -0.481215 0.926709 0.048590
v -0.481215 0.926709 0.046590
v -0.496368 0.914272 0.048590
v -0.496368 0.914272 0.046590
v -0.508805 0.899119 0.048590
v -0.508805 0.899119 0.046590
v -0.518046 0.881830 0.048590
v -0.518046 0.881830 0.046590
v -0.523736 0.863071 0.048590
v -0.523736 0.863071 0.046590
v -0.525658 0.843562 0.048590
v -0.525658 0.843562 0.046590
v -0.523736 0.824053 0.048590
v -0.523736 0.824053 0.046590
v -0.518046 0.805293 0.048590
v -0.518046 0.805293 0.046590
v -0.508805 0.788005 0.048590
v -0.508805 0.788005 0.046590
v -0.496368 0.772851 0.048590
v -0.496368 0.772851 0.046590
v -0.481215 0.760415 0.048590
v -0.481215 0.760415 0.046590
v -0.463926 0.751174 0.048590
v -0.463926 0.751174 0.046590
v -0.445167 0.745483 0.048590
v -0.445167 0.745483 0.046590
v -0.425658 0.743562 0.048590
v -0.425658 0.743562 0.046590
v -0.406149 0.745483 0.048590
v -0.406149 0.745483 0.046590
v -0.387389 0.751174 0.048590
v -0.387389 0.751174 0.046590
v -0.370101 0.760415 0.048590
v -0.370101 0.760415 0.046590
v -0.354947 0.772851 0.048590
v -0.354947 0.772851 0.046590
v -0.342511 0.788005 0.048590
v -0.342511 0.788005 0.046590
v -0.333270 0.805293 0.048590
v -0.333270 0.805293 0.046590
v -0.327579 0.824053 0.048590
v -0.327579 0.824053 0.046590
v -0.325658 0.843562 0.048590
v -0.325658 0.843562 0.046590
v -0.327579 0.863071 0.048590
v -0.327579 0.863071 0.046590
v -0.333270 0.881830 0.048590
v -0.333270 0.881830 0.046590
v -0.342511 0.899119 0.048590
v -0.342511 0.899119 0.046590
v -0.354947 0.914272 0.048590
v -0.354947 0.914272 0.046590
v -0.370101 0.926709 0.048590
v -0.370101 0.926709 0.046590
v -0.387389 0.935950 0.048590
v -0.387389 0.935950 0.046590
v -0.406149 0.941640 0.048590
v -0.406149 0.941640 0.046590
v -0.425658 1.185761 0.048590
v -0.425658 1.185761 0.046590
v -0.445167 1.183839 0.048590
v -0.445167 1.183839 0.046590
v -0.463926 1.178149 0.048590
v -0.463926 1.178149 0.046590
v -0.481215 1.168908 0.048590
v -0.481215 1.168908 0.046590
v -0.496368 1.156471 0.048590
v -0.496368 1.156471 0.046590
v -0.508805 1.141318 0.048590
v -0.508805 1.141318 0.046590
v -0.518046 1.124029 0.048590
v -0.518046 1.124029 0.046590
v -0.523736 1.105270 0.048590
v -0.523736 1.105270 0.046590
v -0.525658 1.085761 0.048590
v -0.525658 1.085761 0.046590
v -0.523736 1.066252 0.048590
v -0.523736 1.066252 0.046590
v -0.518046 1.047493 0.048590
v -0.518046 1.047493 0.046590
v -0.508805 1.030204 0.048590
v -0.508805 1.030204 0.046590
v -0.496368 1.015050 0.048590
v -0.496368 1.015050 0.046590
v -0.481215 1.002614 0.048590
v -0.481215 1.002614 0.046590
v -0.463926 0.993373 0.048590
v -0.463926 0.993373 0.046590
v -0.445167 0.987682 0.048590
v -0.445167 0.987682 0.046590
v -0.425658 0.985761 0.048590
v -0.425658 0.985761 0.046590
v -0.406149 0.987682 0.048590
v -0.406149 0.987682 0.046590
v -0.387389 0.993373 0.048590
v -0.387389 0.993373 0.046590
v -0.370101 1.002614 0.048590
v -0.370101 1.002614 0.046590
v -0.354947 1.015050 0.048590
v -0.354947 1.015050 0.046590
v -0.342511 1.030204 0.048590
v -0.342511 1.030204 0.046590
v -0.333270 1.047493 0.048590
v -0.333270 1.047493 0.046590
v -0.327579 1.066252 0.048590
v -0.327579 1.066252 0.046590
v -0.325658 1.085761 0.048590
v -0.325658 1.085761 0.046590
v -0.327579 1.105270 0.048590
v -0.327579 1.105270 0.046590
v -0.333270 1.124029 0.048590
v -0.333270 1.124029 0.046590
v -0.342511 1.141318 0.048590
v -0.342511 1.141318 0.046590
v -0.354947 1.156471 0.048590
v -0.354947 1.156471 0.046590
v -0.370101 1.168908 0.048590
v -0.370101 1.168908 0.046590
v -0.387389 1.178149 0.048590
v -0.387389 1.178149 0.046590
v -0.406149 1.183839 0.048590
v -0.406149 1.183839 0.046590
v -0.218929 1.066293 0.048590
v -0.218929 1.066293 0.046590
v -0.238438 1.064372 0.048590
v -0.238438 1.064372 0.046590
v -0.257197 1.058681 0.048590
v -0.257197 1.058681 0.046590
v -0.274486 1.049440 0.048590
v -0.274486 1.049440 0.046590
v -0.289640 1.037004 0.048590
v -0.289640 1.037004 0.046590
v -0.302076 1.021850 0.048590
v -0.302076 1.021850 0.046590
v -0.311317 1.004561 0.048590
v -0.311317 1.004561 0.046590
v -0.317008 0.985802 0.048590
v -0.317008 0.985802 0.046590
v -0.318929 0.966293 0.048590
v -0.318929 0.966293 0.046590
v -0.317008 0.946784 0.048590
v -0.317008 0.946784 0.046590
v -0.311317 0.928025 0.048590
v -0.311317 0.928025 0.046590
v -0.302076 0.910736 0.048590
v -0.302076 0.910736 0.046590
v -0.289640 0.895582 0.048590
v -0.289640 0.895582 0.046590
v -0.274486 0.883146 0.048590
v -0.274486 0.883146 0.046590
v -0.257197 0.873905 0.048590
v -0.257197 0.873905 0.046590
v -0.238438 0.868215 0.048590
v -0.238438 0.868215 0.046590
v -0.218929 0.866293 0.048590
v -0.218929 0.866293 0.046590
v -0.199420 0.868215 0.048590
v -0.199420 0.868215 0.046590
v -0.180661 0.873905 0.048590
v -0.180661 0.873905 0.046590
v -0.163372 0.883146 0.048590
v -0.163372 0.883146 0.046590
v -0.148218 0.895582 0.048590
v -0.148218 0.895582 0.046590
v -0.135782 0.910736 0.048590
v -0.135782 0.910736 0.046590
v -0.126541 0.928025 0.048590
v -0.126541 0.928025 0.046590
v -0.120851 0.946784 0.048590
v -0.120851 0.946784 0.046590
v -0.118929 0.966293 0.048590
v -0.118929 0.966293 0.046590
v -0.120851 0.985802 0.048590
v -0.120851 0.985802 0.046590
v -0.126541 1.004561 0.048590
v -0.126541 1.004561 0.046590
v -0.135782 1.021850 0.048590
v -0.135782 1.021850 0.046590
v -0.148218 1.037004 0.048590
v -0.148218 1.037004 0.046590
v -0.163372 1.049440 0.048590
v -0.163372 1.049440 0.046590
v -0.180661 1.058681 0.048590
v -0.180661 1.058681 0.046590
v -0.199420 1.064372 0.048590
v -0.199420 1.064372 0.046590
v -1.111023 -1.118921 0.515369
v -1.105654 -1.137452 0.109849
v -0.264016 -1.214156 0.533614
v -0.258646 -1.232686 0.128094
v -0.126929 0.254222 0.667618
v -0.139436 0.236762 0.216189
v 0.348004 -0.917978 0.699798
v 0.335497 -0.935438 0.248368
v -0.489500 -1.198989 0.529935
v -0.659640 -1.191430 0.529217
v -0.885539 -1.134088 0.519047
v -0.880169 -1.152619 0.113528
v -0.654270 -1.209961 0.123698
v -0.484131 -1.217520 0.124415
v 0.135654 0.039127 0.668662
v 0.284622 -0.248280 0.675651
v 0.371660 -0.545323 0.684729
v 0.359153 -0.562783 0.233300
v 0.272116 -0.265740 0.224222
v 0.123147 0.021667 0.217233
v 0.102358 -1.035817 0.644264
v 0.089851 -1.053277 0.192835
v -0.463938 0.063990 0.614853
v -0.476444 0.046530 0.163424
v 0.061035 -0.732875 0.181241
v -0.058246 -0.447387 0.173504
v -0.221801 -0.166275 0.167162
v 0.073542 -0.715415 0.632670
v -0.045740 -0.429927 0.624933
v -0.209295 -0.148815 0.618591
v 0.135654 0.039127 0.668662
v 0.123147 0.021667 0.217233
v -0.139436 0.236762 0.216189
v -0.126929 0.254222 0.667618
v 0.348004 -0.917978 0.699798
v 0.335497 -0.935438 0.248368
v 0.359153 -0.562783 0.233300
v 0.371660 -0.545323 0.684729
v 0.371660 -0.545323 0.684729
v 0.359153 -0.562783 0.233300
v 0.272116 -0.265740 0.224222
v 0.284622 -0.248280 0.675651
v 0.284622 -0.248280 0.675651
v 0.272116 -0.265740 0.224222
v 0.123147 0.021667 0.217233
v 0.135654 0.039127 0.668662
v 0.135654 0.039127 0.668662
v 0.123147 0.021667 0.217233
v -0.139436 0.236762 0.216189
v -0.126929 0.254222 0.667618
v 0.348004 -0.917978 0.699798
v 0.335497 -0.935438 0.248368
v 0.359153 -0.562783 0.233300
v 0.371660 -0.545323 0.684729
v 0.371660 -0.545323 0.684729
v 0.359153 -0.562783 0.233300
v 0.272116 -0.265740 0.224222
v 0.284622 -0.248280 0.675651
v 0.284622 -0.248280 0.675651
v 0.272116 -0.265740 0.224222
v 0.123147 0.021667 0.217233
v 0.135654 0.039127 0.668662
v 0.135654 0.039127 0.668662
v 0.123147 0.021667 0.217233
v -0.139436 0.236762 0.216189
v -0.126929 0.254222 0.667618
v 0.348004 -0.917978 0.699798
v 0.335497 -0.935438 0.248368
v 0.359153 -0.562783 0.233300
v 0.371660 -0.545323 0.684729
v 0.371660 -0.545323 0.684729
v 0.359153 -0.562783 0.233300
v 0.272116 -0.265740 0.224222
v 0.284622 -0.248280 0.675651
v 0.284622 -0.248280 0.675651
v 0.272116 -0.265740 0.224222
v 0.123147 0.021667 0.217233
v 0.135654 0.039127 0.668662
v 0.727501 0.742821 0.258960
v 0.829189 0.848419 -0.054114
v 0.680541 1.062754 -0.093145
v 0.557310 0.959989 0.255275
v 1.226388 -0.558035 0.304571
v 1.430759 -0.548489 0.011835
v 1.297801 -0.368784 -0.069074
v 1.123226 -0.348309 0.210189
v 1.267876 -0.037910 0.236792
v 1.426150 0.036837 -0.062946
v 1.292304 0.220770 -0.135804
v 1.141976 0.177916 0.231933
v 1.113745 0.431475 0.189110
v 1.263075 0.497637 -0.074742
v 1.117261 0.696209 -0.159384
v 0.966321 0.660006 0.184356
v -0.998281 -1.126505 0.517208
v -0.008144 0.129214 0.216711
v -0.992911 -1.145035 0.111689
v 0.004362 0.146675 0.668140
v -0.330066 -0.064367 0.166220
v -0.317559 -0.046907 0.617649
v -0.008144 0.129214 0.216711
v 0.004362 0.146675 0.668140
v -0.008144 0.129214 0.216711
v 0.004362 0.146675 0.668140
v -0.008144 0.129214 0.216711
v 0.004362 0.146675 0.668140
v 0.805995 0.988998 -0.084880
v 0.693625 0.886455 0.257497
v -0.772797 -1.141671 0.520887
v -0.767427 -1.160202 0.115367
v 0.210138 -0.104577 0.672157
v 0.197631 -0.122037 0.220728
v -0.127517 -0.289371 0.621762
v -0.140024 -0.306831 0.170333
v 0.197631 -0.122037 0.220728
v 0.210138 -0.104577 0.672157
v 0.197631 -0.122037 0.220728
v 0.210138 -0.104577 0.672157
v 0.197631 -0.122037 0.220728
v 0.210138 -0.104577 0.672157
v 1.241530 0.627435 -0.133963
v 1.091245 0.580779 0.186837
v -0.602242 -1.191406 0.528095
v -0.596873 -1.209937 0.122576
v 0.328141 -0.396801 0.680190
v 0.315634 -0.414262 0.228761
v 0.013901 -0.572671 0.628801
v 0.001395 -0.590131 0.177372
v 0.315634 -0.414262 0.228761
v 0.328141 -0.396801 0.680190
v 0.315634 -0.414262 0.228761
v 0.328141 -0.396801 0.680190
v 0.315634 -0.414262 0.228761
v 0.328141 -0.396801 0.680190
v 1.410559 0.159832 -0.115342
v 1.256132 0.105032 0.234228
v -0.371388 -1.225103 0.126255
v 0.359832 -0.731650 0.692263
v -0.376758 -1.206573 0.531774
v 0.347325 -0.749110 0.240834
v 0.087950 -0.875616 0.638467
v 0.075443 -0.893076 0.187038
v 0.347325 -0.749110 0.240834
v 0.359832 -0.731650 0.692263
v 0.347325 -0.749110 0.240834
v 0.359832 -0.731650 0.692263
v 0.347325 -0.749110 0.240834
v 0.359832 -0.731650 0.692263
v 1.415668 -0.428917 -0.047057
v 1.226189 -0.419983 0.246659
v -0.893970 0.451000 0.197745
v -0.908992 0.522095 0.055238
v -0.699945 0.666593 0.003546
v -0.659098 0.634040 0.184797
v -0.184706 -1.164309 0.551180
v -0.745411 -0.221088 0.077782
v -0.270141 -0.900290 0.543335
v -0.400809 -0.653728 0.537419
v -0.553613 -0.409354 0.532201
v -0.197213 -1.181769 0.099751
v -0.732905 -0.203628 0.529211
v -0.282648 -0.917750 0.091906
v -0.413315 -0.671188 0.085990
v -0.566120 -0.426814 0.080772
v -0.643259 -0.306491 0.530706
v -0.655766 -0.323951 0.079277
v -0.477211 -0.531541 0.534810
v -0.489717 -0.549001 0.083381
v -0.335475 -0.777009 0.540377
v -0.347981 -0.794469 0.088948
v -0.227423 -1.032300 0.547258
v -0.239930 -1.049760 0.095829
v -0.825617 0.671671 0.051511
v -0.800883 0.627842 0.249036
v -1.031462 -2.904012 0.612295
v -1.027498 -2.917695 0.312880
v -0.365517 -2.948805 0.623160
v -0.361553 -2.962487 0.323745
v -0.522789 -2.937851 0.628981
v -0.698657 -2.925832 0.630345
v -0.874412 -2.914200 0.623245
v -0.870225 -2.928649 0.307058
v -0.694358 -2.940667 0.305694
v -0.518602 -2.952300 0.312795
v -0.955447 -2.908933 0.617835
v -0.951369 -2.923008 0.309822
v -0.788255 -2.919858 0.627722
v -0.783987 -2.934587 0.305394
v -0.609028 -2.931913 0.630646
v -0.604760 -2.946642 0.308318
v -0.437568 -2.957567 0.318205
v -0.441646 -2.943491 0.626218
v -1.108338 -1.128187 0.312609
v -0.261331 -1.223421 0.330854
v 0.341751 -0.926708 0.474083
v -0.133182 0.245492 0.441903
v 0.365407 -0.554053 0.459014
v 0.278369 -0.257010 0.449937
v 0.129400 0.030397 0.442948
v -0.470191 0.055260 0.389139
v 0.096105 -1.044547 0.418549
v 0.129400 0.030397 0.442948
v -0.133182 0.245492 0.441903
v 0.341751 -0.926708 0.474083
v 0.365407 -0.554053 0.459014
v 0.365407 -0.554053 0.459014
v 0.278369 -0.257010 0.449937
v 0.278369 -0.257010 0.449937
v 0.129400 0.030397 0.442948
v 0.129400 0.030397 0.442948
v -0.133182 0.245492 0.441903
v 0.341751 -0.926708 0.474083
v 0.365407 -0.554053 0.459014
v 0.365407 -0.554053 0.459014
v 0.278369 -0.257010 0.449937
v 0.278369 -0.257010 0.449937
v 0.129400 0.030397 0.442948
v 0.129400 0.030397 0.442948
v -0.133182 0.245492 0.441903
v 0.341751 -0.926708 0.474083
v 0.365407 -0.554053 0.459014
v 0.365407 -0.554053 0.459014
v 0.278369 -0.257010 0.449937
v 0.278369 -0.257010 0.449937
v 0.129400 0.030397 0.442948
v 0.830721 0.866503 0.039354
v 0.682073 1.080838 0.000323
v 1.430687 -0.509546 0.098448
v 1.297729 -0.329841 0.017539
v 1.426372 0.072116 0.025707
v 1.292527 0.256048 -0.047151
v 1.263131 0.535049 0.012930
v 1.117318 0.733620 -0.071712
v 0.807589 1.007818 0.012393
v 1.241589 0.666235 -0.043037
v 1.410789 0.196310 -0.023676
v 1.415593 -0.388060 0.043813
v -0.921834 0.516850 0.098482
v -0.697277 0.669603 0.088098
v -0.823194 0.674471 0.159544
v -0.190959 -1.173039 0.325465
v -1.077452 -2.907627 0.461805
v -0.315563 -2.958872 0.474235
v -1.012243 -0.255224 0.446557
v -0.922741 0.262989 0.348065
v -0.891697 0.273169 0.103085
v -1.023147 -0.252360 0.166737
v -0.544861 0.230521 0.119067
v -0.588004 0.406699 0.069909
v -0.560000 0.396874 0.312279
v -0.526992 0.233859 0.424630
v -0.721868 0.080517 0.447848
v -0.706942 0.325101 0.343746
v -0.736627 0.079764 0.141958
v -0.727904 0.340778 0.100636
v -0.540669 0.236374 0.270383
v -0.584738 0.411258 0.187777
v -1.019317 -0.247012 0.305007
v -0.915035 0.279528 0.216995
v 0.516699 0.434105 0.249897
v 0.459632 0.370495 0.600914
v 0.310957 0.650475 0.247228
v 0.243246 0.586627 0.598550
v 0.377049 0.496086 0.599921
v 0.439341 0.559679 0.245243
v 0.315401 0.656679 0.407638
v 0.521143 0.440309 0.410307
v 0.820919 0.109668 0.240523
v 0.743461 0.065220 0.590887
v 0.672900 0.360854 0.234908
v 0.595265 0.323189 0.585015
v 0.694969 0.211724 0.588003
v 0.772427 0.252657 0.234565
v 0.677346 0.367060 0.395372
v 0.825364 0.115875 0.400987
v 0.917365 -0.233936 0.193451
v 0.834153 -0.285868 0.544349
v 0.806419 0.013141 0.186968
v 0.727685 -0.029434 0.537380
v 0.806522 -0.140137 0.540797
v 0.887413 -0.092996 0.187206
v 0.810866 0.019350 0.347479
v 0.921811 -0.227728 0.353961
v 0.873312 -0.717866 0.196933
v 0.773309 -0.783417 0.548415
v 0.818030 -0.433446 0.187464
v 0.732810 -0.482474 0.537898
v 0.778678 -0.615408 0.543667
v 0.871173 -0.558282 0.188484
v 0.822471 -0.427246 0.347750
v 0.877753 -0.711666 0.357219
v 0.577152 -0.714768 -0.142910
v 0.577152 1.162503 -0.142910
v -0.622848 -0.714837 -0.142910
v -0.622848 1.162558 -0.142910
v 0.502152 1.274200 -0.142910
v 0.502152 -0.825800 -0.142910
v -0.547848 -0.825800 -0.142910
v -0.547848 1.274200 -0.142910
vn -0.6847 -0.0000 0.7288
vn -1.0000 -0.0000 -0.0000
vn -0.8285 -0.5600 -0.0000
vn 0.8302 0.5575 -0.0000
vn -0.0000 -0.7026 0.7116
vn -0.0000 -1.0000 -0.0000
vn 0.4920 0.4118 0.7670
vn 0.6847 -0.0000 0.7288
vn 0.8287 -0.5597 -0.0000
vn -0.0000 1.0000 -0.0000
vn -0.8301 0.5576 -0.0000
vn -0.0000 -0.0000 1.0000
vn -0.0000 0.8609 0.5087
vn 1.0000 -0.0000 -0.0000
vn -0.0980 0.9952 -0.0000
vn -0.2903 0.9569 -0.0000
vn -0.4714 0.8819 -0.0000
vn -0.6344 0.7730 -0.0000
vn -0.7730 0.6344 -0.0000
vn -0.8819 0.4714 -0.0000
vn -0.9569 0.2903 -0.0000
vn -0.9952 0.0980 -0.0000
vn -0.9952 -0.0980 -0.0000
vn -0.9569 -0.2903 -0.0000
vn -0.8819 -0.4714 -0.0000
vn -0.7730 -0.6344 -0.0000
vn -0.6344 -0.7730 -0.0000
vn -0.4714 -0.8819 -0.0000
vn -0.2903 -0.9569 -0.0000
vn -0.0980 -0.9952 -0.0000
vn 0.0980 -0.9952 -0.0000
vn 0.2903 -0.9569 -0.0000
vn 0.4714 -0.8819 -0.0000
vn 0.6344 -0.7730 -0.0000
vn 0.7730 -0.6344 -0.0000
vn 0.8819 -0.4714 -0.0000
vn 0.9569 -0.2903 -0.0000
vn 0.9952 -0.0980 -0.0000
vn 0.9952 0.0980 -0.0000
vn 0.9569 0.2903 -0.0000
vn 0.8819 0.4714 -0.0000
vn 0.7730 0.6344 -0.0000
vn 0.6344 0.7730 -0.0000
vn 0.4714 0.8819 -0.0000
vn -0.0000 -0.0000 -1.0000
vn 0.2903 0.9569 -0.0000
vn 0.0980 0.9952 -0.0000
vn 0.4151 -0.9095 0.0237
vn 0.4544 0.5209 -0.7226
vn 0.9741 0.2198 0.0525
vn -0.9898 0.1164 -0.0817
vn -0.7966 0.2530 0.5490
vn -0.9762 0.2157 0.0212
vn -0.1180 -0.1222 0.9855
vn -0.1854 0.8942 0.4074
vn -0.2642 0.4516 0.8522
vn 0.0736 0.0525 -0.9959
vn -0.7056 -0.0287 -0.7080
vn -0.0866 0.1296 -0.9878
vn 0.0929 -0.0126 -0.9956
vn 0.0034 -0.1135 -0.9935
vn 0.0977 0.0052 -0.9952
vn 0.0790 0.0158 -0.9968
vn 0.0075 -0.0932 -0.9956
vn 0.0841 0.0215 -0.9962
vn 0.0800 0.0271 -0.9964
vn 0.0095 -0.0809 -0.9967
vn 0.0800 0.0417 -0.9959
vn -0.1436 0.7235 0.6753
vn -0.2033 -0.0152 0.9790
vn -0.2418 0.0133 0.9702
vn -0.1058 0.7014 0.7048
vn -0.1625 -0.0547 0.9852
vn -0.1774 -0.0473 0.9830
vn -0.1521 -0.0661 0.9862
vn -0.0444 0.9125 0.4067
vn -0.1314 -0.0913 0.9871
vn -0.1021 -0.0599 0.9930
vn -0.1095 -0.0473 0.9929
vn -0.1185 -0.0436 0.9920
vn -0.1220 -0.0404 0.9917
vn -0.1473 -0.0323 0.9886
vn -0.1747 -0.0340 0.9840
vn 0.1521 0.0661 -0.9862
vn 0.0422 0.9212 -0.3868
vn 0.0874 0.7220 -0.6863
vn 0.1041 0.7128 -0.6936
vn 0.1625 0.0547 -0.9852
vn 0.0573 0.9074 -0.4164
vn 0.1505 0.6905 -0.7075
vn 0.2033 0.0152 -0.9790
vn 0.0694 0.9131 -0.4018
vn 0.1180 0.1222 -0.9855
vn -0.1277 0.9205 -0.3693
vn 0.0609 0.7427 -0.6669
vn -0.0932 -0.0705 0.9931
vn -0.2615 0.0924 0.9608
vn 0.3568 0.9326 -0.0533
vn -0.2527 0.9675 -0.0104
vn 0.4956 -0.8680 0.0309
vn 0.4587 -0.6309 -0.6257
vn -0.0676 0.6696 0.7396
vn 0.0380 0.7051 0.7081
vn -0.0691 0.9139 0.4000
vn -0.0586 0.9030 0.4257
vn -0.0912 0.6919 0.7162
vn 0.3908 0.7482 0.5361
vn 0.9202 0.3913 0.0046
vn 0.0256 0.7202 -0.6933
vn -0.3610 0.9326 -0.0038
vn 0.0590 0.7448 0.6646
vn 0.5659 -0.3905 -0.7261
vn 0.7743 0.5980 0.2069
vn 0.9694 -0.1071 0.2209
vn 0.9844 0.1756 0.0128
vn -0.0598 0.6941 -0.7174
vn -0.1157 0.9933 -0.0012
vn 0.2316 0.7132 0.6616
vn -0.2194 0.5524 -0.8042
vn -0.2001 -0.1993 -0.9593
vn -0.6472 0.4220 -0.6349
vn 0.9653 0.2597 0.0273
vn -0.0334 0.6911 -0.7220
vn -0.2347 0.9720 -0.0084
vn 0.1587 0.7402 0.6534
vn 0.8706 -0.1601 0.4652
vn 0.2882 0.2767 0.9167
vn 0.6832 -0.2832 0.6730
vn 0.9548 0.2959 0.0287
vn 0.0241 0.7049 -0.7089
vn -0.2734 0.9618 -0.0102
vn 0.0828 0.7376 0.6701
vn -0.1081 0.9893 0.0978
vn 0.7902 -0.6121 0.0308
vn 0.5287 -0.5856 -0.6144
vn -0.7452 0.6658 -0.0378
vn -0.2897 0.8465 0.4466
vn -0.2907 0.6580 0.6946
vn 0.7634 0.6283 0.1501
vn -0.0320 0.3257 -0.9449
vn 0.1411 0.9858 -0.0907
vn 0.3734 -0.9264 -0.0484
vn 0.6289 -0.3343 0.7019
vn 0.5124 -0.6475 0.5641
vn -0.2406 -0.1206 -0.9631
vn 0.6114 -0.6604 -0.4360
vn 0.1531 -0.7286 -0.6676
vn -0.3512 0.6679 -0.6562
vn -0.2179 0.9723 0.0849
vn 0.4281 0.1235 0.8953
vn 0.0045 0.9607 0.2775
vn 0.1947 0.7124 0.6742
vn 0.7617 0.6312 0.1464
vn -0.1062 0.3901 -0.9146
vn 0.0275 0.9983 -0.0517
vn 0.4915 -0.8706 -0.0218
vn 0.7269 -0.5147 0.4547
vn 0.5804 -0.4986 0.6438
vn -0.2483 -0.1693 -0.9538
vn 0.6144 -0.5917 -0.5218
vn 0.2671 -0.7122 -0.6491
vn -0.5011 0.5783 -0.6438
vn -0.4422 0.8968 0.0152
vn 0.3759 0.1852 0.9079
vn 0.0211 0.8819 0.4709
vn -0.0590 0.7500 0.6588
vn 0.7554 0.6370 0.1538
vn -0.1639 0.4009 -0.9014
vn -0.0645 0.9959 -0.0632
vn 0.6876 -0.7205 0.0894
vn 0.7798 -0.1655 0.6037
vn 0.6104 -0.4032 0.6817
vn -0.2354 -0.1844 -0.9543
vn 0.6329 -0.5340 -0.5606
vn 0.4091 -0.6729 -0.6163
vn -0.5898 0.5051 -0.6301
vn -0.6570 0.7475 -0.0978
vn 0.3646 0.2222 0.9043
vn -0.2590 0.9096 0.3250
vn -0.1440 0.7229 0.6758
vn -0.2052 0.9275 -0.3124
vn 0.1314 0.0913 -0.9871
vn 0.0098 -0.0791 -0.9968
vn 0.9294 -0.0811 0.3601
vn 0.3705 0.7589 0.5355
vn -0.1526 0.9241 -0.3503
vn 0.0175 -0.0854 -0.9962
vn 0.9154 -0.2085 0.3444
vn 0.3701 0.7851 0.4965
vn -0.1680 0.9146 -0.3678
vn 0.1774 0.0473 -0.9830
vn -0.0100 -0.0918 -0.9957
vn 0.8586 -0.2447 0.4504
vn 0.3310 0.8075 0.4883
vn -0.1208 0.9151 -0.3848
vn 0.2418 -0.0133 -0.9702
vn 0.1122 -0.6657 0.7377
vn 0.1561 -0.6731 0.7229
vn 0.3537 -0.5460 -0.7595
vn -0.0089 -0.1481 -0.9889
vn -0.4678 0.6607 -0.5870
vn -0.4402 0.8544 0.2761
vn 0.6735 0.0381 -0.7382
vn 0.5372 0.8434 0.0093
vn 0.9551 0.2779 -0.1025
vn -0.0143 -0.2051 -0.9786
vn -0.6054 0.0941 -0.7903
vn 0.7413 0.4579 0.4907
vn -0.3108 0.5882 0.7466
vn -0.1482 0.4194 0.8956
vn -0.6928 0.4040 0.5974
vn 0.3126 0.5416 -0.7803
vn 0.4618 -0.3175 0.8282
vn -0.0164 -0.0074 0.9998
vn 0.0041 0.0102 0.9999
vn -0.0185 0.0116 0.9998
vn -0.0329 0.0253 0.9991
vn -0.0250 0.0318 0.9992
vn -0.0153 0.0227 0.9996
vn -0.0157 0.0230 0.9996
vn 0.5068 -0.5360 -0.6751
vn 0.8795 -0.4750 0.0285
vn -0.7366 0.0551 0.6741
vn 0.2703 0.3891 -0.8807
vn -0.5066 -0.5585 0.6568
vn -0.0940 -0.6667 0.7394
vn -0.0760 -0.7565 -0.6495
vn -0.0742 -0.6641 0.7439
vn -0.0564 -0.6646 0.7451
vn -0.9992 0.0353 -0.0162
vn -0.5009 -0.6313 -0.5920
vn -0.7755 -0.6312 0.0158
vn -0.0560 -0.7540 -0.6545
vn -0.0689 -0.7550 -0.6521
vn -0.0047 -0.7603 -0.6495
vn -0.0236 -0.7559 -0.6543
vn -0.0114 -0.7580 -0.6521
vn 0.7258 -0.6869 0.0379
vn -0.0867 -0.6648 0.7420
vn -0.0270 -0.6684 0.7433
vn -0.0200 -0.6710 0.7412
vn 0.4426 -0.5971 0.6690
vn -0.0398 -0.6660 0.7449
vn -0.0401 -0.7543 -0.6553
vn 0.4692 -0.6686 -0.5769
vn 0.6725 0.6885 0.2715
vn 0.4530 0.5720 0.6838
vn 0.5767 0.4088 0.7073
vn 0.5609 0.4492 0.6954
vn 0.5784 0.4512 0.6796
vn -0.1169 0.9362 0.3313
vn 0.3541 0.7472 -0.5624
vn -0.0421 0.9381 0.3438
vn 0.3290 0.7550 -0.5672
vn 0.0796 0.9333 0.3503
vn 0.2598 0.8018 -0.5381
vn -0.1849 0.9370 0.2964
vn 0.3796 0.7425 -0.5518
vn -0.5694 -0.0924 -0.8168
vn -0.8109 0.1503 -0.5656
vn 0.5587 0.6100 0.5620
vn 0.9646 0.2544 -0.0698
vn 0.0227 -0.0336 -0.9992
vn 0.6793 0.0428 -0.7326
vn -0.7735 0.1851 0.6061
vn -0.3225 0.3478 0.8803
vn -0.9886 0.1463 0.0369
vn -0.5757 0.3867 0.7204
vn 0.5759 0.3867 0.7203
vn 0.7592 -0.3175 0.5681
vn 0.3353 -0.4596 0.8224
vn -0.7548 -0.3128 0.5765
vn -0.2407 -0.4629 0.8531
vn -0.3526 0.4426 0.8245
vn 0.5545 0.2204 -0.8024
vn 0.5867 0.0796 -0.8059
vn 0.5860 0.1088 -0.8029
vn 0.5883 0.0803 -0.8047
vt 0.829599 0.455882
vt 0.844623 0.483897
vt 0.840850 0.486847
vt 0.617892 0.550015
vt 0.617892 0.623980
vt 0.592317 0.700060
vt 0.761447 0.505677
vt 0.594015 0.681923
vt 0.755248 0.500332
vt 0.830861 0.417272
vt 0.902559 0.320106
vt 0.836593 0.419872
vt 0.813723 0.483506
vt 0.825415 0.447966
vt 0.827343 0.455526
vt 0.740543 0.428821
vt 0.828999 0.447504
vt 0.827987 0.446797
vt 0.826672 0.415817
vt 0.606185 0.301639
vt 0.745843 0.421486
vt 0.854297 0.473653
vt 0.840252 0.422010
vt 0.849769 0.479231
vt 0.932565 0.561584
vt 0.814819 0.500927
vt 0.799286 0.410927
vt 0.815814 0.414737
vt 0.806341 0.418910
vt 0.804690 0.424078
vt 0.818881 0.490702
vt 0.830118 0.491559
vt 0.830148 0.454812
vt 0.892213 0.313965
vt 0.828223 0.456361
vt 0.826006 0.446961
vt 0.981386 0.548488
vt 0.981474 0.548577
vt 0.981474 0.548488
vt 0.977900 0.555098
vt 0.977988 0.555187
vt 0.977988 0.555098
vt 0.981386 0.551974
vt 0.981474 0.552063
vt 0.981474 0.551974
vt 0.978409 0.396285
vt 0.978497 0.396374
vt 0.978497 0.396285
vt 0.978072 0.674843
vt 0.978160 0.674932
vt 0.978160 0.674843
vt 0.981386 0.645020
vt 0.981474 0.645109
vt 0.981474 0.645020
vt 0.974587 0.675190
vt 0.974675 0.675279
vt 0.974675 0.675190
vt 0.981386 0.649027
vt 0.981474 0.649116
vt 0.981474 0.649027
vt 0.981386 0.653034
vt 0.981474 0.653122
vt 0.981474 0.653034
vt 0.954931 0.675236
vt 0.955019 0.675324
vt 0.955019 0.675236
vt 0.981386 0.594100
vt 0.981474 0.594189
vt 0.981474 0.594100
vt 0.979451 0.375856
vt 0.979539 0.375944
vt 0.979539 0.375856
vt 0.979617 0.438385
vt 0.979705 0.438473
vt 0.979705 0.438385
vt 0.981386 0.597586
vt 0.981474 0.597675
vt 0.981474 0.597586
vt 0.961009 0.675816
vt 0.961097 0.675905
vt 0.961097 0.675816
vt 0.981386 0.601072
vt 0.981474 0.601161
vt 0.981474 0.601072
vt 0.981386 0.606279
vt 0.981474 0.606367
vt 0.981474 0.606279
vt 0.979794 0.332073
vt 0.979882 0.332162
vt 0.979882 0.332073
vt 0.981386 0.610285
vt 0.981474 0.610374
vt 0.981474 0.610285
vt 0.979798 0.363677
vt 0.979886 0.363766
vt 0.979886 0.363677
vt 0.981386 0.614292
vt 0.981474 0.614381
vt 0.981474 0.614292
vt 0.979798 0.367163
vt 0.979886 0.367252
vt 0.979886 0.367163
vt 0.981547 0.452291
vt 0.981635 0.452380
vt 0.981635 0.452291
vt 0.979798 0.370649
vt 0.979886 0.370738
vt 0.979886 0.370649
vt 0.981547 0.456297
vt 0.981635 0.456386
vt 0.981635 0.456297
vt 0.967098 0.675884
vt 0.967186 0.675973
vt 0.967186 0.675884
vt 0.981547 0.459783
vt 0.981635 0.459872
vt 0.981635 0.459783
vt 0.970583 0.675884
vt 0.970671 0.675973
vt 0.970671 0.675884
vt 0.981547 0.464469
vt 0.981635 0.464558
vt 0.981635 0.464469
vt 0.980484 0.301639
vt 0.980572 0.301728
vt 0.980572 0.301639
vt 0.977520 0.447844
vt 0.977608 0.447451
vt 0.977771 0.447629
vt 0.981547 0.472135
vt 0.981635 0.472224
vt 0.981635 0.472135
vt 0.980484 0.305125
vt 0.980572 0.305214
vt 0.980572 0.305125
vt 0.977845 0.645024
vt 0.977988 0.645275
vt 0.977871 0.645626
vt 0.980484 0.308611
vt 0.980572 0.308700
vt 0.980572 0.308611
vt 0.981547 0.468649
vt 0.981635 0.468738
vt 0.981635 0.468649
vt 0.980484 0.312097
vt 0.980572 0.312186
vt 0.980572 0.312097
vt 0.981547 0.476647
vt 0.981635 0.476736
vt 0.981635 0.476647
vt 0.981547 0.480307
vt 0.981635 0.480396
vt 0.981635 0.480307
vt 0.981547 0.483967
vt 0.981635 0.484055
vt 0.981635 0.483967
vt 0.981547 0.487453
vt 0.981635 0.487541
vt 0.981635 0.487453
vt 0.981547 0.493843
vt 0.981635 0.493932
vt 0.981635 0.493843
vt 0.980484 0.315583
vt 0.980572 0.315672
vt 0.980572 0.315583
vt 0.981547 0.497330
vt 0.981635 0.497418
vt 0.981635 0.497330
vt 0.980484 0.319884
vt 0.980572 0.319973
vt 0.980572 0.319884
vt 0.981547 0.500816
vt 0.981635 0.500904
vt 0.981635 0.500816
vt 0.981547 0.507252
vt 0.981635 0.507341
vt 0.981635 0.507252
vt 0.981547 0.510911
vt 0.981635 0.511000
vt 0.981635 0.510911
vt 0.981547 0.514397
vt 0.981635 0.514486
vt 0.981635 0.514397
vt 0.981547 0.517883
vt 0.981635 0.517972
vt 0.981635 0.517883
vt 0.980489 0.325996
vt 0.980577 0.326084
vt 0.980577 0.325996
vt 0.981547 0.521369
vt 0.981635 0.521458
vt 0.981635 0.521369
vt 0.980495 0.337102
vt 0.980583 0.337191
vt 0.980583 0.337102
vt 0.981547 0.526749
vt 0.981635 0.526838
vt 0.981635 0.526749
vt 0.980495 0.343180
vt 0.980583 0.343269
vt 0.980583 0.343180
vt 0.981558 0.671184
vt 0.981646 0.671272
vt 0.981646 0.671184
vt 0.980495 0.349258
vt 0.980583 0.349347
vt 0.980583 0.349258
vt 0.981558 0.674670
vt 0.981646 0.674758
vt 0.981646 0.674670
vt 0.980495 0.352744
vt 0.980583 0.352833
vt 0.980583 0.352744
vt 0.981558 0.620698
vt 0.981646 0.620787
vt 0.981646 0.620698
vt 0.980495 0.356230
vt 0.980583 0.356319
vt 0.980583 0.356230
vt 0.981561 0.626787
vt 0.981649 0.626876
vt 0.981649 0.626787
vt 0.980495 0.359716
vt 0.980583 0.359805
vt 0.980583 0.359716
vt 0.981561 0.630447
vt 0.981649 0.630535
vt 0.981649 0.630447
vt 0.977974 0.649206
vt 0.977920 0.649610
vt 0.977742 0.649457
vt 0.980839 0.665094
vt 0.980927 0.665183
vt 0.980927 0.665094
vt 0.981561 0.633933
vt 0.981649 0.634021
vt 0.981649 0.633933
vt 0.977983 0.653269
vt 0.977896 0.653635
vt 0.977732 0.653408
vt 0.980999 0.432295
vt 0.981087 0.432384
vt 0.981087 0.432295
vt 0.981561 0.637419
vt 0.981649 0.637507
vt 0.981649 0.637419
vt 0.981001 0.407939
vt 0.981089 0.408028
vt 0.981089 0.407939
vt 0.981561 0.640905
vt 0.981649 0.640993
vt 0.981649 0.640905
vt 0.981730 0.532152
vt 0.981818 0.532240
vt 0.981818 0.532152
vt 0.981730 0.535638
vt 0.981818 0.535726
vt 0.981818 0.535638
vt 0.981736 0.558727
vt 0.981824 0.558816
vt 0.981824 0.558727
vt 0.981736 0.562387
vt 0.981824 0.562476
vt 0.981824 0.562387
vt 0.981001 0.411425
vt 0.981089 0.411514
vt 0.981089 0.411425
vt 0.981736 0.565873
vt 0.981824 0.565962
vt 0.981824 0.565873
vt 0.981001 0.414911
vt 0.981089 0.415000
vt 0.981089 0.414911
vt 0.981736 0.569359
vt 0.981824 0.569448
vt 0.981824 0.569359
vt 0.981736 0.572845
vt 0.981824 0.572934
vt 0.981824 0.572845
vt 0.981736 0.576331
vt 0.981824 0.576420
vt 0.981824 0.576331
vt 0.981736 0.580967
vt 0.981824 0.581056
vt 0.981824 0.580967
vt 0.981736 0.584454
vt 0.981824 0.584542
vt 0.981824 0.584454
vt 0.981001 0.420106
vt 0.981089 0.420195
vt 0.981089 0.420106
vt 0.981736 0.589811
vt 0.981824 0.589900
vt 0.981824 0.589811
vt 0.981001 0.426195
vt 0.981089 0.426284
vt 0.981089 0.426195
vt 0.981893 0.402363
vt 0.981981 0.402451
vt 0.981981 0.402363
vt 0.981174 0.443425
vt 0.981262 0.443514
vt 0.981262 0.443425
vt 0.981894 0.385023
vt 0.981982 0.385112
vt 0.981982 0.385023
vt 0.981174 0.447432
vt 0.981262 0.447520
vt 0.981262 0.447432
vt 0.981894 0.381537
vt 0.981982 0.381626
vt 0.981982 0.381537
vt 0.981213 0.657199
vt 0.981301 0.657288
vt 0.981301 0.657199
vt 0.981894 0.388509
vt 0.981982 0.388598
vt 0.981982 0.388509
vt 0.981213 0.661206
vt 0.981301 0.661294
vt 0.981301 0.661206
vt 0.981894 0.392343
vt 0.981982 0.392431
vt 0.981982 0.392343
vt 0.981386 0.540996
vt 0.981474 0.541084
vt 0.981474 0.540996
vt 0.981894 0.395829
vt 0.981982 0.395917
vt 0.981982 0.395829
vt 0.974419 0.671596
vt 0.974507 0.671203
vt 0.974670 0.671381
vt 0.981386 0.545002
vt 0.981474 0.545091
vt 0.981474 0.545002
vt 0.981558 0.678156
vt 0.981646 0.678244
vt 0.981646 0.678156
vt 0.954960 0.671356
vt 0.955049 0.671233
vt 0.955192 0.671484
vt 0.963701 0.546441
vt 0.961009 0.540996
vt 0.961009 0.546441
vt 0.960377 0.478956
vt 0.954931 0.484425
vt 0.960377 0.484425
vt 0.972741 0.366369
vt 0.972135 0.363677
vt 0.972135 0.366369
vt 0.974853 0.587938
vt 0.974591 0.585257
vt 0.974591 0.587938
vt 0.972395 0.377159
vt 0.972135 0.375856
vt 0.972135 0.377159
vt 0.974503 0.554477
vt 0.974242 0.553174
vt 0.974242 0.554477
vt 0.975012 0.384044
vt 0.974749 0.381364
vt 0.974749 0.384044
vt 0.974504 0.612368
vt 0.974243 0.615060
vt 0.974504 0.615060
vt 0.975012 0.390207
vt 0.974749 0.392888
vt 0.975012 0.392888
vt 0.974330 0.659891
vt 0.974069 0.657199
vt 0.974069 0.659891
vt 0.975012 0.396285
vt 0.974749 0.398965
vt 0.975012 0.398965
vt 0.974665 0.452291
vt 0.974404 0.454983
vt 0.974665 0.454983
vt 0.976401 0.363677
vt 0.976138 0.366358
vt 0.976401 0.366358
vt 0.974665 0.458380
vt 0.974404 0.461072
vt 0.974665 0.461072
vt 0.976401 0.372436
vt 0.976138 0.369755
vt 0.976138 0.372436
vt 0.974503 0.549777
vt 0.974242 0.547085
vt 0.974242 0.549777
vt 0.974679 0.626787
vt 0.974069 0.629468
vt 0.974679 0.629468
vt 0.974665 0.467161
vt 0.974404 0.464469
vt 0.974404 0.467161
vt 0.963701 0.585347
vt 0.961009 0.590793
vt 0.963701 0.590793
vt 0.957612 0.537620
vt 0.954931 0.532152
vt 0.954931 0.537620
vt 0.970583 0.629541
vt 0.970672 0.634987
vt 0.970672 0.629541
vt 0.977901 0.606279
vt 0.977989 0.606888
vt 0.977989 0.606279
vt 0.967098 0.620698
vt 0.967186 0.626166
vt 0.967186 0.620698
vt 0.977727 0.657199
vt 0.977816 0.657808
vt 0.977816 0.657199
vt 0.970583 0.638497
vt 0.970672 0.643943
vt 0.970672 0.638497
vt 0.978062 0.507252
vt 0.978150 0.507514
vt 0.978150 0.507252
vt 0.967778 0.399096
vt 0.967866 0.404564
vt 0.967866 0.399096
vt 0.978076 0.638943
vt 0.978164 0.639205
vt 0.978164 0.638943
vt 0.970583 0.647363
vt 0.970672 0.652809
vt 0.970672 0.647363
vt 0.978245 0.532152
vt 0.978333 0.532414
vt 0.978333 0.532152
vt 0.967778 0.407961
vt 0.967866 0.413430
vt 0.967866 0.407961
vt 0.978245 0.535811
vt 0.978333 0.536073
vt 0.978333 0.535811
vt 0.970583 0.656228
vt 0.970672 0.661674
vt 0.970672 0.656228
vt 0.978062 0.512111
vt 0.978150 0.512373
vt 0.978150 0.512111
vt 0.967432 0.461157
vt 0.967520 0.466625
vt 0.967520 0.461157
vt 0.978250 0.558727
vt 0.978338 0.558990
vt 0.978338 0.558727
vt 0.970756 0.540996
vt 0.970845 0.546441
vt 0.970845 0.540996
vt 0.977901 0.610285
vt 0.977989 0.610895
vt 0.977989 0.610285
vt 0.967432 0.505554
vt 0.967520 0.511023
vt 0.967520 0.505554
vt 0.977900 0.540996
vt 0.977988 0.541605
vt 0.977988 0.540996
vt 0.970756 0.549861
vt 0.970845 0.555307
vt 0.970845 0.549861
vt 0.978250 0.564805
vt 0.978338 0.565068
vt 0.978338 0.564805
vt 0.967432 0.470023
vt 0.967520 0.475491
vt 0.967520 0.470023
vt 0.978250 0.568465
vt 0.978338 0.568727
vt 0.978338 0.568465
vt 0.970918 0.452291
vt 0.971006 0.457737
vt 0.971006 0.452291
vt 0.978062 0.515771
vt 0.978150 0.516033
vt 0.978150 0.515771
vt 0.967098 0.594100
vt 0.967186 0.599569
vt 0.967186 0.594100
vt 0.978250 0.573648
vt 0.978338 0.573911
vt 0.978338 0.573648
vt 0.970918 0.461134
vt 0.971006 0.466580
vt 0.971006 0.461134
vt 0.978062 0.519430
vt 0.978150 0.519692
vt 0.978150 0.519430
vt 0.967432 0.523286
vt 0.967520 0.528754
vt 0.967520 0.523286
vt 0.978250 0.577308
vt 0.978338 0.577570
vt 0.978338 0.577308
vt 0.977901 0.614292
vt 0.977989 0.614901
vt 0.977989 0.614292
vt 0.970918 0.470023
vt 0.971006 0.475469
vt 0.971006 0.470023
vt 0.977900 0.547085
vt 0.977988 0.547694
vt 0.977988 0.547085
vt 0.967778 0.381364
vt 0.967866 0.386832
vt 0.967866 0.381364
vt 0.977900 0.551091
vt 0.977988 0.551701
vt 0.977988 0.551091
vt 0.973438 0.337102
vt 0.972135 0.339783
vt 0.973438 0.339783
vt 0.967098 0.656228
vt 0.967186 0.661697
vt 0.967186 0.656228
vt 0.978062 0.523090
vt 0.978150 0.523352
vt 0.978150 0.523090
vt 0.971263 0.381364
vt 0.971352 0.386810
vt 0.971352 0.381364
vt 0.978250 0.582492
vt 0.978338 0.582754
vt 0.978338 0.582492
vt 0.964381 0.443425
vt 0.963774 0.448894
vt 0.964381 0.448894
vt 0.971105 0.567571
vt 0.971193 0.573017
vt 0.971193 0.567571
vt 0.978062 0.526749
vt 0.978150 0.527012
vt 0.978150 0.526749
vt 0.967432 0.496620
vt 0.967520 0.502089
vt 0.967520 0.496620
vt 0.978250 0.586151
vt 0.978338 0.586413
vt 0.978338 0.586151
vt 0.968732 0.310482
vt 0.968469 0.315928
vt 0.968732 0.315928
vt 0.967432 0.452291
vt 0.967520 0.457759
vt 0.967520 0.452291
vt 0.977727 0.661206
vt 0.977816 0.661468
vt 0.977816 0.661206
vt 0.970918 0.478888
vt 0.971006 0.484334
vt 0.971006 0.478888
vt 0.978062 0.480307
vt 0.978150 0.480569
vt 0.978150 0.480307
vt 0.973782 0.667786
vt 0.973176 0.665094
vt 0.973176 0.667786
vt 0.960377 0.381432
vt 0.954931 0.386900
vt 0.960377 0.386900
vt 0.967703 0.537598
vt 0.967094 0.532152
vt 0.967094 0.537598
vt 0.954931 0.390298
vt 0.960377 0.395766
vt 0.960377 0.390298
vt 0.964381 0.431162
vt 0.963774 0.425693
vt 0.963774 0.431162
vt 0.974679 0.635545
vt 0.974069 0.632865
vt 0.974069 0.635545
vt 0.960377 0.514420
vt 0.954931 0.519889
vt 0.960377 0.519889
vt 0.965072 0.333705
vt 0.963774 0.328237
vt 0.963774 0.333705
vt 0.954931 0.310505
vt 0.960377 0.315973
vt 0.960377 0.310505
vt 0.967707 0.590703
vt 0.967098 0.585257
vt 0.967098 0.590703
vt 0.972741 0.372459
vt 0.972135 0.369767
vt 0.972135 0.372459
vt 0.960377 0.443493
vt 0.954931 0.448962
vt 0.960377 0.448962
vt 0.965078 0.369123
vt 0.963774 0.363677
vt 0.963774 0.369123
vt 0.954931 0.434627
vt 0.960377 0.440096
vt 0.960377 0.434627
vt 0.964035 0.457759
vt 0.963774 0.452291
vt 0.963774 0.457759
vt 0.973432 0.328676
vt 0.972129 0.325996
vt 0.972129 0.328676
vt 0.960377 0.416895
vt 0.954931 0.422364
vt 0.960377 0.422364
vt 0.965072 0.307108
vt 0.963774 0.301639
vt 0.963774 0.307108
vt 0.954931 0.345968
vt 0.960377 0.351437
vt 0.960377 0.345968
vt 0.968732 0.324817
vt 0.968469 0.319371
vt 0.968469 0.324817
vt 0.978062 0.452291
vt 0.978150 0.452900
vt 0.978150 0.452291
vt 0.978062 0.458380
vt 0.978150 0.458989
vt 0.978150 0.458380
vt 0.977901 0.594100
vt 0.977989 0.594710
vt 0.977989 0.594100
vt 0.978062 0.464469
vt 0.978150 0.465079
vt 0.978150 0.464469
vt 0.977901 0.600189
vt 0.977989 0.600799
vt 0.977989 0.600189
vt 0.974330 0.647712
vt 0.974069 0.645020
vt 0.974069 0.647712
vt 0.974853 0.558727
vt 0.974591 0.561408
vt 0.974853 0.561408
vt 0.974665 0.473250
vt 0.974404 0.470558
vt 0.974404 0.473250
vt 0.977086 0.304320
vt 0.976824 0.301639
vt 0.976824 0.304320
vt 0.964035 0.470023
vt 0.963774 0.475491
vt 0.964035 0.475491
vt 0.967707 0.558727
vt 0.967098 0.564173
vt 0.967707 0.564173
vt 0.954931 0.665140
vt 0.957612 0.667832
vt 0.957612 0.665140
vt 0.978062 0.484955
vt 0.978150 0.485217
vt 0.978150 0.484955
vt 0.978062 0.488614
vt 0.978150 0.488877
vt 0.978150 0.488614
vt 0.978072 0.671184
vt 0.978160 0.671446
vt 0.978160 0.671184
vt 0.978250 0.589811
vt 0.978338 0.590073
vt 0.978338 0.589811
vt 0.978407 0.402363
vt 0.978495 0.402625
vt 0.978495 0.402363
vt 0.978409 0.381364
vt 0.978497 0.381626
vt 0.978497 0.381364
vt 0.974665 0.478866
vt 0.974404 0.481558
vt 0.974665 0.481558
vt 0.977086 0.307728
vt 0.976824 0.310409
vt 0.977086 0.310409
vt 0.974665 0.490446
vt 0.974404 0.487754
vt 0.974404 0.490446
vt 0.975010 0.403666
vt 0.974749 0.402363
vt 0.974749 0.403666
vt 0.968732 0.328214
vt 0.968469 0.333660
vt 0.968732 0.333660
vt 0.964381 0.434559
vt 0.963774 0.440028
vt 0.964381 0.440028
vt 0.973438 0.343180
vt 0.972135 0.345861
vt 0.973438 0.345861
vt 0.978062 0.468476
vt 0.978150 0.468738
vt 0.978150 0.468476
vt 0.978062 0.493843
vt 0.978150 0.494106
vt 0.978150 0.493843
vt 0.978062 0.472135
vt 0.978150 0.472398
vt 0.978150 0.472135
vt 0.978062 0.499933
vt 0.978150 0.500195
vt 0.978150 0.499933
vt 0.978073 0.620698
vt 0.978161 0.620960
vt 0.978161 0.620698
vt 0.978409 0.385023
vt 0.978497 0.385286
vt 0.978497 0.385023
vt 0.974665 0.496535
vt 0.974404 0.493843
vt 0.974404 0.496535
vt 0.977086 0.313806
vt 0.976824 0.316487
vt 0.977086 0.316487
vt 0.974503 0.540996
vt 0.974242 0.543687
vt 0.974503 0.543687
vt 0.976054 0.377159
vt 0.975793 0.375856
vt 0.975793 0.377159
vt 0.965078 0.345968
vt 0.963774 0.351414
vt 0.965078 0.351414
vt 0.964381 0.390230
vt 0.963774 0.395698
vt 0.964381 0.395698
vt 0.971263 0.407939
vt 0.973944 0.410631
vt 0.973944 0.407939
vt 0.978076 0.626787
vt 0.978164 0.627049
vt 0.978164 0.626787
vt 0.978409 0.388683
vt 0.978497 0.388945
vt 0.978497 0.388683
vt 0.978409 0.392343
vt 0.978497 0.392605
vt 0.978497 0.392343
vt 0.978076 0.632865
vt 0.978164 0.633127
vt 0.978164 0.632865
vt 0.978062 0.503592
vt 0.978150 0.503855
vt 0.978150 0.503592
vt 0.978062 0.476647
vt 0.978150 0.476910
vt 0.978150 0.476647
vt 0.977086 0.322564
vt 0.976824 0.319884
vt 0.976824 0.322564
vt 0.974665 0.499933
vt 0.974404 0.502625
vt 0.974665 0.502625
vt 0.974853 0.567571
vt 0.974591 0.570251
vt 0.974853 0.570251
vt 0.976219 0.439688
vt 0.975958 0.438385
vt 0.975958 0.439688
vt 0.973427 0.313817
vt 0.972129 0.316509
vt 0.973427 0.316509
vt 0.971263 0.414028
vt 0.973944 0.416720
vt 0.973944 0.414028
vt 0.972738 0.332073
vt 0.972129 0.333371
vt 0.972738 0.333371
vt 0.963774 0.319371
vt 0.965072 0.324839
vt 0.965072 0.319371
vt 0.963774 0.337102
vt 0.965078 0.342548
vt 0.965078 0.337102
vt 0.972129 0.307728
vt 0.973427 0.310420
vt 0.973427 0.307728
vt 0.973944 0.420117
vt 0.971263 0.422809
vt 0.973944 0.422809
vt 0.977092 0.328676
vt 0.976830 0.325996
vt 0.976830 0.328676
vt 0.977602 0.432905
vt 0.977341 0.432295
vt 0.977341 0.432905
vt 0.974665 0.508714
vt 0.974404 0.506022
vt 0.974404 0.508714
vt 0.961270 0.671116
vt 0.961009 0.672419
vt 0.961270 0.672419
vt 0.977098 0.339783
vt 0.976835 0.337102
vt 0.976835 0.339783
vt 0.976396 0.332073
vt 0.976135 0.333377
vt 0.976396 0.333377
vt 0.974504 0.594100
vt 0.974243 0.596792
vt 0.974504 0.596792
vt 0.977098 0.343180
vt 0.976835 0.345861
vt 0.977098 0.345861
vt 0.964381 0.399096
vt 0.963774 0.404564
vt 0.964381 0.404564
vt 0.977098 0.349258
vt 0.976835 0.351939
vt 0.977098 0.351939
vt 0.977776 0.443425
vt 0.977515 0.444034
vt 0.977776 0.444034
vt 0.971017 0.671184
vt 0.970756 0.672487
vt 0.971017 0.672487
vt 0.967359 0.671184
vt 0.967098 0.672487
vt 0.967359 0.672487
vt 0.974665 0.514803
vt 0.974404 0.512111
vt 0.974404 0.514803
vt 0.977098 0.358017
vt 0.976835 0.355336
vt 0.976835 0.358017
vt 0.974504 0.602881
vt 0.974243 0.600189
vt 0.974243 0.602881
vt 0.977442 0.665094
vt 0.977180 0.667775
vt 0.977442 0.667775
vt 0.964035 0.478888
vt 0.963774 0.484357
vt 0.964035 0.484357
vt 0.970583 0.594100
vt 0.970846 0.599546
vt 0.970846 0.594100
vt 0.964035 0.523286
vt 0.963774 0.528754
vt 0.964035 0.528754
vt 0.960377 0.399164
vt 0.954931 0.404632
vt 0.960377 0.404632
vt 0.968475 0.337102
vt 0.968737 0.342548
vt 0.968737 0.337102
vt 0.963774 0.487754
vt 0.964035 0.493223
vt 0.964035 0.487754
vt 0.968475 0.345946
vt 0.968737 0.351392
vt 0.968737 0.345946
vt 0.963774 0.514420
vt 0.964035 0.519889
vt 0.964035 0.514420
vt 0.967778 0.443425
vt 0.968040 0.448871
vt 0.968040 0.443425
vt 0.954931 0.319371
vt 0.960377 0.324839
vt 0.960377 0.319371
vt 0.964035 0.496688
vt 0.963774 0.502157
vt 0.964035 0.502157
vt 0.970846 0.602943
vt 0.970583 0.608389
vt 0.970846 0.608389
vt 0.955192 0.656274
vt 0.954931 0.661742
vt 0.955192 0.661742
vt 0.968475 0.354789
vt 0.968737 0.360235
vt 0.968737 0.354789
vt 0.967359 0.540996
vt 0.967098 0.546464
vt 0.967359 0.546464
vt 0.968737 0.363677
vt 0.968475 0.369123
vt 0.968737 0.369123
vt 0.963774 0.461157
vt 0.964035 0.466625
vt 0.964035 0.461157
vt 0.968732 0.301639
vt 0.968469 0.307085
vt 0.968732 0.307085
vt 0.954931 0.354834
vt 0.960377 0.360303
vt 0.960377 0.354834
vt 0.960377 0.425761
vt 0.954931 0.431230
vt 0.960377 0.431230
vt 0.964381 0.422296
vt 0.963774 0.416827
vt 0.963774 0.422296
vt 0.973944 0.426206
vt 0.971263 0.428898
vt 0.973944 0.428898
vt 0.961009 0.594213
vt 0.963701 0.599659
vt 0.963701 0.594213
vt 0.963689 0.665026
vt 0.961009 0.667718
vt 0.963689 0.667718
vt 0.957612 0.558749
vt 0.954931 0.564218
vt 0.957612 0.564218
vt 0.965078 0.372521
vt 0.963774 0.377967
vt 0.965078 0.377967
vt 0.965072 0.310505
vt 0.963774 0.315973
vt 0.965072 0.315973
vt 0.954931 0.452359
vt 0.960377 0.457827
vt 0.960377 0.452359
vt 0.960377 0.328237
vt 0.954931 0.333705
vt 0.960377 0.333705
vt 0.967707 0.573017
vt 0.967098 0.567571
vt 0.967098 0.573017
vt 0.954931 0.301639
vt 0.960377 0.307108
vt 0.960377 0.301639
vt 0.960377 0.487822
vt 0.954931 0.493291
vt 0.960377 0.493291
vt 0.964381 0.386832
vt 0.963774 0.381364
vt 0.963774 0.386832
vt 0.954931 0.496688
vt 0.960377 0.502157
vt 0.960377 0.496688
vt 0.960377 0.337102
vt 0.954931 0.342571
vt 0.960377 0.342571
vt 0.965078 0.360280
vt 0.963774 0.354834
vt 0.963774 0.360280
vt 0.954931 0.408029
vt 0.960377 0.413498
vt 0.960377 0.408029
vt 0.960377 0.363700
vt 0.954931 0.369169
vt 0.960377 0.369169
vt 0.964381 0.413430
vt 0.963774 0.407961
vt 0.963774 0.413430
vt 0.971105 0.576414
vt 0.971193 0.581860
vt 0.971193 0.576414
vt 0.967098 0.629564
vt 0.967186 0.635032
vt 0.967186 0.629564
vt 0.971263 0.390230
vt 0.971352 0.395676
vt 0.971352 0.390230
vt 0.967778 0.416827
vt 0.967866 0.422296
vt 0.967866 0.416827
vt 0.970918 0.487754
vt 0.971006 0.493200
vt 0.971006 0.487754
vt 0.967098 0.638497
vt 0.967186 0.643965
vt 0.967186 0.638497
vt 0.967707 0.576414
vt 0.967098 0.581860
vt 0.967707 0.581860
vt 0.967098 0.602966
vt 0.967186 0.608435
vt 0.967186 0.602966
vt 0.970918 0.496620
vt 0.971006 0.502066
vt 0.971006 0.496620
vt 0.967778 0.390230
vt 0.967866 0.395698
vt 0.967866 0.390230
vt 0.970918 0.505554
vt 0.971006 0.511000
vt 0.971006 0.505554
vt 0.967098 0.611832
vt 0.967186 0.617301
vt 0.967186 0.611832
vt 0.970583 0.620698
vt 0.970672 0.626144
vt 0.970672 0.620698
vt 0.967432 0.478888
vt 0.967520 0.484357
vt 0.967520 0.478888
vt 0.970918 0.514420
vt 0.971006 0.519866
vt 0.971006 0.514420
vt 0.967432 0.514420
vt 0.967520 0.519889
vt 0.967520 0.514420
vt 0.971105 0.585257
vt 0.971193 0.590703
vt 0.971193 0.585257
vt 0.967432 0.487754
vt 0.967520 0.493223
vt 0.967520 0.487754
vt 0.971263 0.399096
vt 0.971352 0.404542
vt 0.971352 0.399096
vt 0.967778 0.425693
vt 0.967866 0.431162
vt 0.967866 0.425693
vt 0.970918 0.523286
vt 0.971006 0.528732
vt 0.971006 0.523286
vt 0.967778 0.434559
vt 0.967866 0.440028
vt 0.967866 0.434559
vt 0.971101 0.532152
vt 0.971189 0.537598
vt 0.971189 0.532152
vt 0.967098 0.647363
vt 0.967186 0.652831
vt 0.967186 0.647363
vt 0.971105 0.558727
vt 0.971193 0.564173
vt 0.971193 0.558727
vt 0.957612 0.626279
vt 0.954931 0.620810
vt 0.954931 0.626279
vt 0.963701 0.549839
vt 0.961009 0.555285
vt 0.963701 0.555285
vt 0.973944 0.432295
vt 0.971263 0.434987
vt 0.973944 0.434987
vt 0.957612 0.599681
vt 0.954931 0.594213
vt 0.954931 0.599681
vt 0.963701 0.558749
vt 0.961009 0.564195
vt 0.963701 0.564195
vt 0.957612 0.573084
vt 0.954931 0.567615
vt 0.954931 0.573084
vt 0.954931 0.372566
vt 0.960377 0.378035
vt 0.960377 0.372566
vt 0.963701 0.620810
vt 0.961009 0.626256
vt 0.963701 0.626256
vt 0.974118 0.443425
vt 0.971438 0.446117
vt 0.974118 0.446117
vt 0.972561 0.438385
vt 0.971263 0.439688
vt 0.972561 0.439688
vt 0.972129 0.301639
vt 0.973427 0.304331
vt 0.973427 0.301639
vt 0.972135 0.349258
vt 0.973438 0.351939
vt 0.973438 0.349258
vt 0.954931 0.541017
vt 0.957612 0.546486
vt 0.957612 0.541017
vt 0.972135 0.355336
vt 0.973438 0.358017
vt 0.973438 0.355336
vt 0.969779 0.665094
vt 0.967098 0.667786
vt 0.969779 0.667786
vt 0.973427 0.319906
vt 0.972129 0.322598
vt 0.973427 0.322598
vt 0.963701 0.603079
vt 0.961009 0.608525
vt 0.963701 0.608525
vt 0.957612 0.629676
vt 0.954931 0.635145
vt 0.957612 0.635145
vt 0.963701 0.635099
vt 0.961009 0.629654
vt 0.961009 0.635099
vt 0.957612 0.581950
vt 0.954931 0.576481
vt 0.954931 0.581950
vt 0.961009 0.638497
vt 0.963701 0.643943
vt 0.963701 0.638497
vt 0.954931 0.603079
vt 0.957612 0.608547
vt 0.957612 0.603079
vt 0.974679 0.641623
vt 0.974069 0.638943
vt 0.974069 0.641623
vt 0.957612 0.638542
vt 0.954931 0.644011
vt 0.957612 0.644011
vt 0.977603 0.410619
vt 0.977341 0.407939
vt 0.977341 0.410619
vt 0.957612 0.549883
vt 0.954931 0.555352
vt 0.957612 0.555352
vt 0.977603 0.426206
vt 0.977341 0.428887
vt 0.977603 0.428887
vt 0.974676 0.620698
vt 0.974069 0.623390
vt 0.974676 0.623390
vt 0.961009 0.567615
vt 0.963701 0.573061
vt 0.963701 0.567615
vt 0.954931 0.585347
vt 0.957612 0.590815
vt 0.957612 0.585347
vt 0.977603 0.414028
vt 0.977341 0.416709
vt 0.977603 0.416709
vt 0.974665 0.518200
vt 0.974404 0.520892
vt 0.974665 0.520892
vt 0.977603 0.422798
vt 0.977341 0.420117
vt 0.977341 0.422798
vt 0.957612 0.611944
vt 0.954931 0.617413
vt 0.957612 0.617413
vt 0.974853 0.579094
vt 0.974591 0.576414
vt 0.974591 0.579094
vt 0.957612 0.647408
vt 0.954931 0.652876
vt 0.957612 0.652876
vt 0.963701 0.576481
vt 0.961009 0.581927
vt 0.963701 0.581927
vt 0.954931 0.505554
vt 0.960377 0.511023
vt 0.960377 0.505554
vt 0.974330 0.653802
vt 0.974069 0.651110
vt 0.974069 0.653802
vt 0.968737 0.372521
vt 0.968475 0.377967
vt 0.968737 0.377967
vt 0.964035 0.505554
vt 0.963774 0.511023
vt 0.964035 0.511023
vt 0.961009 0.656183
vt 0.963701 0.661629
vt 0.963701 0.656183
vt 0.974504 0.608970
vt 0.974243 0.606279
vt 0.974243 0.608970
vt 0.960377 0.461225
vt 0.954931 0.466693
vt 0.960377 0.466693
vt 0.963701 0.611922
vt 0.961009 0.617368
vt 0.963701 0.617368
vt 0.954931 0.470091
vt 0.960377 0.475559
vt 0.960377 0.470091
vt 0.974665 0.526981
vt 0.974404 0.524289
vt 0.974404 0.526981
vt 0.970846 0.611787
vt 0.970583 0.617233
vt 0.970846 0.617233
vt 0.967359 0.549861
vt 0.967098 0.555330
vt 0.967359 0.555330
vt 0.961009 0.647340
vt 0.963701 0.652786
vt 0.963701 0.647340
vt 0.974847 0.534844
vt 0.974587 0.532152
vt 0.974587 0.534844
vt 0.960377 0.523286
vt 0.954931 0.528754
vt 0.960377 0.528754
vt 0.963600 0.537055
vt 0.962312 0.537598
vt 0.961050 0.536368
vt 0.571554 0.945272
vt 0.535988 0.998302
vt 0.001849 0.945682
vt 0.617892 0.700060
vt 0.617892 0.675052
vt 0.592317 0.299940
vt 0.617892 0.299940
vt 0.615007 0.698361
vt 0.594015 0.316867
vt 0.939995 0.552596
vt 0.981386 0.548577
vt 0.977900 0.555187
vt 0.981386 0.552063
vt 0.978409 0.396374
vt 0.978072 0.674932
vt 0.981386 0.645109
vt 0.974587 0.675279
vt 0.981386 0.649116
vt 0.981386 0.653122
vt 0.954931 0.675324
vt 0.981386 0.594189
vt 0.979451 0.375944
vt 0.979617 0.438473
vt 0.981386 0.597675
vt 0.961009 0.675905
vt 0.981386 0.601161
vt 0.981386 0.606367
vt 0.979794 0.332162
vt 0.981386 0.610374
vt 0.979798 0.363766
vt 0.981386 0.614381
vt 0.979798 0.367252
vt 0.981547 0.452380
vt 0.979798 0.370738
vt 0.981547 0.456386
vt 0.967098 0.675973
vt 0.981547 0.459872
vt 0.970583 0.675973
vt 0.981547 0.464558
vt 0.980484 0.301728
vt 0.977776 0.447686
vt 0.977761 0.447862
vt 0.977776 0.447746
vt 0.977771 0.447805
vt 0.977747 0.447914
vt 0.977729 0.447959
vt 0.977708 0.447995
vt 0.977684 0.448022
vt 0.977659 0.448037
vt 0.977584 0.448014
vt 0.977633 0.448041
vt 0.977608 0.448033
vt 0.977563 0.447984
vt 0.977544 0.447945
vt 0.977530 0.447897
vt 0.977515 0.447786
vt 0.977515 0.447726
vt 0.977520 0.447667
vt 0.977530 0.447611
vt 0.977544 0.447559
vt 0.977563 0.447514
vt 0.977584 0.447477
vt 0.977633 0.447436
vt 0.977659 0.447432
vt 0.977684 0.447439
vt 0.977708 0.447459
vt 0.977729 0.447488
vt 0.977747 0.447528
vt 0.977761 0.447575
vt 0.981547 0.472224
vt 0.980484 0.305214
vt 0.977727 0.645375
vt 0.977727 0.645315
vt 0.977732 0.645256
vt 0.977742 0.645200
vt 0.977757 0.645148
vt 0.977775 0.645103
vt 0.977796 0.645066
vt 0.977820 0.645040
vt 0.977871 0.645020
vt 0.977896 0.645028
vt 0.977920 0.645047
vt 0.977941 0.645077
vt 0.977959 0.645117
vt 0.977973 0.645164
vt 0.977983 0.645218
vt 0.977988 0.645335
vt 0.977983 0.645394
vt 0.977973 0.645451
vt 0.977959 0.645503
vt 0.977941 0.645548
vt 0.977920 0.645584
vt 0.977896 0.645610
vt 0.977845 0.645630
vt 0.977820 0.645622
vt 0.977796 0.645603
vt 0.977775 0.645573
vt 0.977757 0.645534
vt 0.977742 0.645486
vt 0.977732 0.645433
vt 0.980484 0.308700
vt 0.981547 0.468738
vt 0.980484 0.312186
vt 0.981547 0.476736
vt 0.981547 0.480396
vt 0.981547 0.484055
vt 0.981547 0.487541
vt 0.981547 0.493932
vt 0.980484 0.315672
vt 0.981547 0.497418
vt 0.980484 0.319973
vt 0.981547 0.500904
vt 0.981547 0.507341
vt 0.981547 0.511000
vt 0.981547 0.514486
vt 0.981547 0.517972
vt 0.980489 0.326084
vt 0.981547 0.521458
vt 0.980495 0.337191
vt 0.981547 0.526838
vt 0.980495 0.343269
vt 0.981558 0.671272
vt 0.980495 0.349347
vt 0.981558 0.674758
vt 0.980495 0.352833
vt 0.981558 0.620787
vt 0.980495 0.356319
vt 0.981561 0.626876
vt 0.980495 0.359805
vt 0.981561 0.630535
vt 0.977983 0.649263
vt 0.977983 0.649439
vt 0.977988 0.649322
vt 0.977988 0.649382
vt 0.977974 0.649493
vt 0.977959 0.649540
vt 0.977941 0.649580
vt 0.977896 0.649629
vt 0.977871 0.649637
vt 0.977845 0.649633
vt 0.977820 0.649617
vt 0.977796 0.649591
vt 0.977775 0.649554
vt 0.977757 0.649509
vt 0.977732 0.649401
vt 0.977727 0.649342
vt 0.977727 0.649282
vt 0.977732 0.649224
vt 0.977742 0.649171
vt 0.977757 0.649123
vt 0.977775 0.649084
vt 0.977796 0.649054
vt 0.977820 0.649035
vt 0.977845 0.649027
vt 0.977871 0.649031
vt 0.977896 0.649047
vt 0.977920 0.649073
vt 0.977941 0.649109
vt 0.977959 0.649154
vt 0.980839 0.665183
vt 0.981561 0.634021
vt 0.977727 0.653348
vt 0.977727 0.653289
vt 0.977732 0.653231
vt 0.977742 0.653177
vt 0.977757 0.653130
vt 0.977775 0.653091
vt 0.977796 0.653061
vt 0.977820 0.653042
vt 0.977845 0.653034
vt 0.977871 0.653038
vt 0.977896 0.653053
vt 0.977920 0.653080
vt 0.977941 0.653116
vt 0.977959 0.653161
vt 0.977974 0.653213
vt 0.977988 0.653329
vt 0.977988 0.653388
vt 0.977983 0.653446
vt 0.977974 0.653500
vt 0.977959 0.653547
vt 0.977941 0.653586
vt 0.977920 0.653616
vt 0.977871 0.653643
vt 0.977845 0.653639
vt 0.977820 0.653624
vt 0.977796 0.653597
vt 0.977775 0.653561
vt 0.977757 0.653516
vt 0.977742 0.653464
vt 0.980999 0.432384
vt 0.981561 0.637507
vt 0.981001 0.408028
vt 0.981561 0.640993
vt 0.981730 0.532240
vt 0.981730 0.535726
vt 0.981736 0.558816
vt 0.981736 0.562476
vt 0.981001 0.411514
vt 0.981736 0.565962
vt 0.981001 0.415000
vt 0.981736 0.569448
vt 0.981736 0.572934
vt 0.981736 0.576420
vt 0.981736 0.581056
vt 0.981736 0.584542
vt 0.981001 0.420195
vt 0.981736 0.589900
vt 0.981001 0.426284
vt 0.981893 0.402451
vt 0.981174 0.443514
vt 0.981894 0.385112
vt 0.981174 0.447520
vt 0.981894 0.381626
vt 0.981213 0.657288
vt 0.981894 0.388598
vt 0.981213 0.661294
vt 0.981894 0.392431
vt 0.981386 0.541084
vt 0.981894 0.395917
vt 0.974675 0.671438
vt 0.974675 0.671498
vt 0.974670 0.671557
vt 0.974660 0.671614
vt 0.974646 0.671666
vt 0.974628 0.671711
vt 0.974607 0.671747
vt 0.974583 0.671774
vt 0.974558 0.671789
vt 0.974483 0.671766
vt 0.974532 0.671793
vt 0.974507 0.671785
vt 0.974462 0.671736
vt 0.974443 0.671697
vt 0.974429 0.671649
vt 0.974414 0.671538
vt 0.974429 0.671363
vt 0.974414 0.671479
vt 0.974419 0.671419
vt 0.974443 0.671311
vt 0.974462 0.671266
vt 0.974483 0.671229
vt 0.974532 0.671188
vt 0.974607 0.671211
vt 0.974558 0.671184
vt 0.974583 0.671191
vt 0.974628 0.671240
vt 0.974646 0.671280
vt 0.974660 0.671327
vt 0.981386 0.545091
vt 0.981558 0.678244
vt 0.955192 0.671543
vt 0.955163 0.671711
vt 0.955187 0.671603
vt 0.955177 0.671659
vt 0.955145 0.671756
vt 0.955123 0.671792
vt 0.955099 0.671819
vt 0.955074 0.671834
vt 0.955049 0.671838
vt 0.955023 0.671831
vt 0.955000 0.671811
vt 0.954978 0.671781
vt 0.954960 0.671742
vt 0.954931 0.671583
vt 0.954946 0.671695
vt 0.954936 0.671641
vt 0.954931 0.671524
vt 0.954936 0.671465
vt 0.954946 0.671408
vt 0.954978 0.671311
vt 0.955000 0.671275
vt 0.955023 0.671248
vt 0.955074 0.671229
vt 0.955099 0.671237
vt 0.955123 0.671256
vt 0.955145 0.671286
vt 0.955163 0.671325
vt 0.955177 0.671372
vt 0.955187 0.671426
vt 0.963701 0.540996
vt 0.954931 0.478956
vt 0.972741 0.363677
vt 0.974853 0.585257
vt 0.972395 0.375856
vt 0.974503 0.553174
vt 0.975012 0.381364
vt 0.974243 0.612368
vt 0.974749 0.390207
vt 0.974330 0.657199
vt 0.974749 0.396285
vt 0.974404 0.452291
vt 0.976138 0.363677
vt 0.974404 0.458380
vt 0.976401 0.369755
vt 0.974503 0.547085
vt 0.974069 0.626787
vt 0.974665 0.464469
vt 0.961009 0.585347
vt 0.957612 0.532152
vt 0.970583 0.634987
vt 0.977901 0.606888
vt 0.967098 0.626166
vt 0.977727 0.657808
vt 0.970583 0.643943
vt 0.978062 0.507514
vt 0.967778 0.404564
vt 0.978076 0.639205
vt 0.970583 0.652809
vt 0.978245 0.532414
vt 0.967778 0.413430
vt 0.978245 0.536073
vt 0.970583 0.661674
vt 0.978062 0.512373
vt 0.967432 0.466625
vt 0.978250 0.558990
vt 0.970756 0.546441
vt 0.977901 0.610895
vt 0.967432 0.511023
vt 0.977900 0.541605
vt 0.970756 0.555307
vt 0.978250 0.565068
vt 0.967432 0.475491
vt 0.978250 0.568727
vt 0.970918 0.457737
vt 0.978062 0.516033
vt 0.967098 0.599569
vt 0.978250 0.573911
vt 0.970918 0.466580
vt 0.978062 0.519692
vt 0.967432 0.528754
vt 0.978250 0.577570
vt 0.977901 0.614901
vt 0.970918 0.475469
vt 0.977900 0.547694
vt 0.967778 0.386832
vt 0.977900 0.551701
vt 0.972135 0.337102
vt 0.967098 0.661697
vt 0.978062 0.523352
vt 0.971263 0.386810
vt 0.978250 0.582754
vt 0.963774 0.443425
vt 0.971105 0.573017
vt 0.978062 0.527012
vt 0.967432 0.502089
vt 0.978250 0.586413
vt 0.968469 0.310482
vt 0.967432 0.457759
vt 0.977727 0.661468
vt 0.970918 0.484334
vt 0.978062 0.480569
vt 0.973782 0.665094
vt 0.954931 0.381432
vt 0.967703 0.532152
vt 0.954931 0.395766
vt 0.964381 0.425693
vt 0.974679 0.632865
vt 0.954931 0.514420
vt 0.965072 0.328237
vt 0.954931 0.315973
vt 0.967707 0.585257
vt 0.972741 0.369767
vt 0.954931 0.443493
vt 0.965078 0.363677
vt 0.954931 0.440096
vt 0.964035 0.452291
vt 0.973432 0.325996
vt 0.954931 0.416895
vt 0.965072 0.301639
vt 0.954931 0.351437
vt 0.968732 0.319371
vt 0.978062 0.452900
vt 0.978062 0.458989
vt 0.977901 0.594710
vt 0.978062 0.465079
vt 0.977901 0.600799
vt 0.974330 0.645020
vt 0.974591 0.558727
vt 0.974665 0.470558
vt 0.977086 0.301639
vt 0.963774 0.470023
vt 0.967098 0.558727
vt 0.954931 0.667832
vt 0.978062 0.485217
vt 0.978062 0.488877
vt 0.978072 0.671446
vt 0.978250 0.590073
vt 0.978407 0.402625
vt 0.978409 0.381626
vt 0.974404 0.478866
vt 0.976824 0.307728
vt 0.974665 0.487754
vt 0.975010 0.402363
vt 0.968469 0.328214
vt 0.963774 0.434559
vt 0.972135 0.343180
vt 0.978062 0.468738
vt 0.978062 0.494106
vt 0.978062 0.472398
vt 0.978062 0.500195
vt 0.978073 0.620960
vt 0.978409 0.385286
vt 0.974665 0.493843
vt 0.976824 0.313806
vt 0.974242 0.540996
vt 0.976054 0.375856
vt 0.963774 0.345968
vt 0.963774 0.390230
vt 0.971263 0.410631
vt 0.978076 0.627049
vt 0.978409 0.388945
vt 0.978409 0.392605
vt 0.978076 0.633127
vt 0.978062 0.503855
vt 0.978062 0.476910
vt 0.977086 0.319884
vt 0.974404 0.499933
vt 0.974591 0.567571
vt 0.976219 0.438385
vt 0.972129 0.313817
vt 0.971263 0.416720
vt 0.972129 0.332073
vt 0.963774 0.324839
vt 0.963774 0.342548
vt 0.972129 0.310420
vt 0.971263 0.420117
vt 0.977092 0.325996
vt 0.977602 0.432295
vt 0.974665 0.506022
vt 0.961009 0.671116
vt 0.977098 0.337102
vt 0.976135 0.332073
vt 0.974243 0.594100
vt 0.976835 0.343180
vt 0.963774 0.399096
vt 0.976835 0.349258
vt 0.977515 0.443425
vt 0.970756 0.671184
vt 0.967098 0.671184
vt 0.974665 0.512111
vt 0.977098 0.355336
vt 0.974504 0.600189
vt 0.977180 0.665094
vt 0.963774 0.478888
vt 0.970583 0.599546
vt 0.963774 0.523286
vt 0.954931 0.399164
vt 0.968475 0.342548
vt 0.963774 0.493223
vt 0.968475 0.351392
vt 0.963774 0.519889
vt 0.967778 0.448871
vt 0.954931 0.324839
vt 0.963774 0.496688
vt 0.970583 0.602943
vt 0.954931 0.656274
vt 0.968475 0.360235
vt 0.967098 0.540996
vt 0.968475 0.363677
vt 0.963774 0.466625
vt 0.968469 0.301639
vt 0.954931 0.360303
vt 0.954931 0.425761
vt 0.964381 0.416827
vt 0.971263 0.426206
vt 0.961009 0.599659
vt 0.961009 0.665026
vt 0.954931 0.558749
vt 0.963774 0.372521
vt 0.963774 0.310505
vt 0.954931 0.457827
vt 0.954931 0.328237
vt 0.967707 0.567571
vt 0.954931 0.307108
vt 0.954931 0.487822
vt 0.964381 0.381364
vt 0.954931 0.502157
vt 0.954931 0.337102
vt 0.965078 0.354834
vt 0.954931 0.413498
vt 0.954931 0.363700
vt 0.964381 0.407961
vt 0.971105 0.581860
vt 0.967098 0.635032
vt 0.971263 0.395676
vt 0.967778 0.422296
vt 0.970918 0.493200
vt 0.967098 0.643965
vt 0.967098 0.576414
vt 0.967098 0.608435
vt 0.970918 0.502066
vt 0.967778 0.395698
vt 0.970918 0.511000
vt 0.967098 0.617301
vt 0.970583 0.626144
vt 0.967432 0.484357
vt 0.970918 0.519866
vt 0.967432 0.519889
vt 0.971105 0.590703
vt 0.967432 0.493223
vt 0.971263 0.404542
vt 0.967778 0.431162
vt 0.970918 0.528732
vt 0.967778 0.440028
vt 0.971101 0.537598
vt 0.967098 0.652831
vt 0.971105 0.564173
vt 0.957612 0.620810
vt 0.961009 0.549839
vt 0.971263 0.432295
vt 0.957612 0.594213
vt 0.961009 0.558749
vt 0.957612 0.567615
vt 0.954931 0.378035
vt 0.961009 0.620810
vt 0.971438 0.443425
vt 0.971263 0.438385
vt 0.972129 0.304331
vt 0.972135 0.351939
vt 0.954931 0.546486
vt 0.972135 0.358017
vt 0.967098 0.665094
vt 0.972129 0.319906
vt 0.961009 0.603079
vt 0.954931 0.629676
vt 0.963701 0.629654
vt 0.957612 0.576481
vt 0.961009 0.643943
vt 0.954931 0.608547
vt 0.974679 0.638943
vt 0.954931 0.638542
vt 0.977603 0.407939
vt 0.954931 0.549883
vt 0.977341 0.426206
vt 0.974069 0.620698
vt 0.961009 0.573061
vt 0.954931 0.590815
vt 0.977341 0.414028
vt 0.974404 0.518200
vt 0.977603 0.420117
vt 0.954931 0.611944
vt 0.974853 0.576414
vt 0.954931 0.647408
vt 0.961009 0.576481
vt 0.954931 0.511023
vt 0.974330 0.651110
vt 0.968475 0.372521
vt 0.963774 0.505554
vt 0.961009 0.661629
vt 0.974504 0.606279
vt 0.954931 0.461225
vt 0.961009 0.611922
vt 0.954931 0.475559
vt 0.974665 0.524289
vt 0.970583 0.611787
vt 0.967098 0.549861
vt 0.961009 0.652786
vt 0.974847 0.532152
vt 0.954931 0.523286
vt 0.963643 0.536484
vt 0.963557 0.537589
vt 0.961078 0.536922
vt 0.961025 0.535779
vt 0.961009 0.535156
vt 0.961009 0.534513
vt 0.963677 0.535875
vt 0.961028 0.533875
vt 0.963697 0.534594
vt 0.961063 0.533266
vt 0.963681 0.533971
vt 0.961105 0.532695
vt 0.961149 0.532161
vt 0.962394 0.532152
vt 0.963655 0.533382
vt 0.963628 0.532828
vt 0.963697 0.535237
vt 0.037496 0.998683
vt 0.001166 0.054439
vt 0.036732 0.001698
vt 0.535225 0.001316
vt 0.570872 0.053969
s 0
usemtl マテリアル
f 35/1/1 8/2/1 32/3/1
f 26/4/2 20/5/2 6/6/2
f 7/7/3 15/8/3 16/9/3
f 4/10/4 11/11/4 12/12/4
f 30/13/5 21/14/5 24/15/5
f 15/8/6 10/16/6 16/9/6
f 12/12/7 33/17/7 34/18/7
f 4/10/8 34/18/8 31/19/8
f 10/16/9 1/20/9 3/21/9
f 18/22/10 9/23/10 11/11/10
f 14/24/11 6/25/11 8/2/11
f 30/13/12 26/26/12 25/27/12
f 18/22/13 33/17/13 9/23/13
f 19/28/12 28/29/12 25/27/12
f 28/29/5 21/14/5 27/30/5
f 29/31/12 20/32/12 26/26/12
f 24/15/5 29/31/5 30/13/5
f 14/24/13 36/33/13 18/22/13
f 19/28/14 25/27/14 2/34/14
f 32/3/1 23/35/1 35/1/1
f 33/17/12 21/14/12 34/18/12
f 31/19/8 22/36/8 19/28/8
f 38/37/15 39/38/15 37/39/15
f 40/40/16 41/41/16 39/42/16
f 42/43/17 43/44/17 41/45/17
f 44/46/18 45/47/18 43/48/18
f 46/49/19 47/50/19 45/51/19
f 48/52/20 49/53/20 47/54/20
f 50/55/21 51/56/21 49/57/21
f 52/58/22 53/59/22 51/60/22
f 54/61/23 55/62/23 53/63/23
f 56/64/24 57/65/24 55/66/24
f 58/67/25 59/68/25 57/69/25
f 60/70/26 61/71/26 59/72/26
f 62/73/27 63/74/27 61/75/27
f 64/76/28 65/77/28 63/78/28
f 66/79/29 67/80/29 65/81/29
f 68/82/30 69/83/30 67/84/30
f 70/85/31 71/86/31 69/87/31
f 72/88/32 73/89/32 71/90/32
f 74/91/33 75/92/33 73/93/33
f 76/94/34 77/95/34 75/96/34
f 78/97/35 79/98/35 77/99/35
f 80/100/36 81/101/36 79/102/36
f 82/103/37 83/104/37 81/105/37
f 84/106/38 85/107/38 83/108/38
f 86/109/39 87/110/39 85/111/39
f 88/112/40 89/113/40 87/114/40
f 90/115/41 91/116/41 89/117/41
f 92/118/42 93/119/42 91/120/42
f 94/121/43 95/122/43 93/123/43
f 96/124/44 97/125/44 95/126/44
f 74/127/45 58/128/45 42/129/45
f 98/130/46 99/131/46 97/132/46
f 100/133/47 37/134/47 99/135/47
f 51/136/12 67/137/12 83/138/12
f 102/139/15 103/140/15 101/141/15
f 104/142/16 105/143/16 103/144/16
f 106/145/17 107/146/17 105/147/17
f 108/148/18 109/149/18 107/150/18
f 110/151/19 111/152/19 109/153/19
f 112/154/20 113/155/20 111/156/20
f 114/157/21 115/158/21 113/159/21
f 116/160/22 117/161/22 115/162/22
f 118/163/23 119/164/23 117/165/23
f 120/166/24 121/167/24 119/168/24
f 122/169/25 123/170/25 121/171/25
f 124/172/26 125/173/26 123/174/26
f 126/175/27 127/176/27 125/177/27
f 128/178/28 129/179/28 127/180/28
f 130/181/29 131/182/29 129/183/29
f 132/184/30 133/185/30 131/186/30
f 134/187/31 135/188/31 133/189/31
f 136/190/32 137/191/32 135/192/32
f 138/193/33 139/194/33 137/195/33
f 140/196/34 141/197/34 139/198/34
f 142/199/35 143/200/35 141/201/35
f 144/202/36 145/203/36 143/204/36
f 146/205/37 147/206/37 145/207/37
f 148/208/38 149/209/38 147/210/38
f 150/211/39 151/212/39 149/213/39
f 152/214/40 153/215/40 151/216/40
f 154/217/41 155/218/41 153/219/41
f 156/220/42 157/221/42 155/222/42
f 158/223/43 159/224/43 157/225/43
f 160/226/44 161/227/44 159/228/44
f 106/229/45 154/230/45 138/231/45
f 162/232/46 163/233/46 161/234/46
f 164/235/47 101/236/47 163/237/47
f 131/238/12 147/239/12 163/240/12
f 166/241/15 167/242/15 165/243/15
f 168/244/16 169/245/16 167/246/16
f 170/247/17 171/248/17 169/249/17
f 172/250/18 173/251/18 171/252/18
f 174/253/19 175/254/19 173/255/19
f 176/256/20 177/257/20 175/258/20
f 178/259/21 179/260/21 177/261/21
f 180/262/22 181/263/22 179/264/22
f 182/265/23 183/266/23 181/267/23
f 184/268/24 185/269/24 183/270/24
f 186/271/25 187/272/25 185/273/25
f 188/274/26 189/275/26 187/276/26
f 190/277/27 191/278/27 189/279/27
f 192/280/28 193/281/28 191/282/28
f 194/283/29 195/284/29 193/285/29
f 196/286/30 197/287/30 195/288/30
f 198/289/31 199/290/31 197/291/31
f 200/292/32 201/293/32 199/294/32
f 202/295/33 203/296/33 201/297/33
f 204/298/34 205/299/34 203/300/34
f 206/301/35 207/302/35 205/303/35
f 208/304/36 209/305/36 207/306/36
f 210/307/37 211/308/37 209/309/37
f 212/310/38 213/311/38 211/312/38
f 214/313/39 215/314/39 213/315/39
f 216/316/40 217/317/40 215/318/40
f 218/319/41 219/320/41 217/321/41
f 220/322/42 221/323/42 219/324/42
f 222/325/43 223/326/43 221/327/43
f 224/328/44 225/329/44 223/330/44
f 202/331/45 186/332/45 170/333/45
f 226/334/46 227/335/46 225/336/46
f 228/337/47 165/338/47 227/339/47
f 203/340/12 211/341/12 227/342/12
s 1
f 429/343/48 236/344/49 423/345/50
f 487/346/51 379/347/52 466/348/53
f 328/349/54 233/350/55 251/351/56
f 394/352/57 230/353/58 384/354/59
f 400/355/60 242/356/61 390/357/62
f 398/358/63 241/359/64 391/360/65
f 396/361/66 240/362/67 392/363/68
f 366/364/69 256/365/70 369/366/71
f 353/367/72 257/368/73 355/369/74
f 341/370/75 243/371/76 258/372/77
f 341/373/75 387/374/78 395/375/79
f 355/376/74 386/377/80 397/378/81
f 369/379/71 385/380/82 399/381/83
f 342/382/84 248/383/85 340/384/86
f 354/385/87 254/386/88 247/387/89
f 368/388/90 253/389/91 246/390/92
f 327/391/93 234/392/94 324/393/95
f 393/394/96 251/395/56 389/396/97
f 234/397/94 428/398/98 424/399/99
f 469/400/100 250/401/101 429/402/48
f 430/403/10 243/404/76 427/405/10
f 329/406/10 248/407/85 324/408/95
f 431/409/10 234/410/94 424/411/99
f 330/412/10 233/413/55 326/414/102
f 432/415/10 235/416/103 423/417/50
f 371/418/10 236/419/49 368/420/90
f 433/421/10 246/422/92 425/423/10
f 372/424/10 245/425/104 366/426/69
f 434/427/10 245/428/104 425/429/10
f 357/430/10 246/431/92 354/432/87
f 435/433/10 247/434/89 426/435/10
f 358/436/10 244/437/105 353/438/72
f 436/439/10 244/440/105 426/441/10
f 343/442/10 247/443/89 340/444/86
f 437/445/10 248/446/85 427/447/10
f 344/448/10 243/449/76 339/450/106
f 438/451/10 259/452/10 430/453/10
f 331/454/10 260/455/10 329/456/10
f 439/457/10 261/458/10 431/459/10
f 332/460/10 262/461/10 330/462/10
f 440/463/10 263/464/10 432/465/10
f 373/466/10 264/467/10 371/468/10
f 441/469/10 265/470/10 433/471/10
f 374/472/10 266/473/10 372/474/10
f 442/475/10 267/476/10 434/477/10
f 359/478/10 268/479/10 357/480/10
f 443/481/10 269/482/10 435/483/10
f 360/484/10 270/485/10 358/486/10
f 444/487/10 271/488/10 436/489/10
f 345/490/10 272/491/10 343/492/10
f 445/493/10 273/494/10 437/495/10
f 346/496/10 274/497/10 344/498/10
f 291/499/107 332/500/10 275/501/10
f 446/502/108 275/503/10 438/504/10
f 333/505/109 276/506/10 331/507/10
f 447/508/110 277/509/10 439/510/10
f 334/511/111 278/512/10 332/513/10
f 308/514/112 462/515/113 454/516/114
f 448/517/115 279/518/10 440/519/10
f 375/520/116 280/521/10 373/522/10
f 449/523/117 281/524/10 441/525/10
f 376/526/118 282/527/10 374/528/10
f 309/529/119 493/530/120 490/531/121
f 450/532/122 283/533/10 442/534/10
f 361/535/123 284/536/10 359/537/10
f 451/538/124 285/539/10 443/540/10
f 362/541/125 286/542/10 360/543/10
f 307/544/126 492/545/127 489/546/128
f 452/547/129 287/548/10 444/549/10
f 347/550/130 288/551/10 345/552/10
f 453/553/131 289/554/10 445/555/10
f 348/556/132 290/557/10 346/558/10
f 462/559/113 309/560/119 455/561/133
f 495/562/134 307/563/126 489/564/128
f 493/565/120 308/566/112 488/567/135
f 455/568/133 490/569/121 494/570/136
f 492/571/127 310/572/137 491/573/138
f 465/574/139 313/575/140 457/576/141
f 519/577/142 311/578/143 513/579/144
f 517/580/145 312/581/146 512/582/147
f 457/583/141 514/584/148 518/585/149
f 516/586/150 314/587/151 515/588/152
f 464/589/153 317/590/154 459/591/155
f 511/592/156 315/593/157 505/594/158
f 509/595/159 316/596/160 504/597/161
f 459/598/155 506/599/162 510/600/163
f 508/601/164 318/602/165 507/603/166
f 463/604/167 321/605/168 461/606/169
f 503/607/170 319/608/171 497/609/172
f 501/610/173 320/611/174 496/612/175
f 461/613/169 498/614/176 502/615/177
f 500/616/178 322/617/179 499/618/180
f 293/619/181 331/620/10 277/621/10
f 275/622/10 330/623/10 259/624/10
f 277/625/10 329/626/10 261/627/10
f 259/628/10 326/629/102 243/630/76
f 261/631/10 324/632/95 234/633/94
f 387/634/78 328/635/54 393/636/96
f 255/637/182 324/638/95 248/639/85
f 392/640/68 325/641/183 394/642/57
f 258/643/77 326/644/102 328/645/54
f 319/646/171 500/647/178 497/648/172
f 321/649/168 501/650/173 498/651/176
f 320/652/174 463/653/167 460/654/184
f 303/655/185 346/656/10 287/657/10
f 305/658/186 345/659/10 289/660/10
f 287/661/10 344/662/10 271/663/10
f 289/664/10 343/665/10 273/666/10
f 271/667/10 339/668/106 244/669/105
f 273/670/10 340/671/86 248/672/85
f 254/673/88 340/674/86 247/675/89
f 257/676/73 395/677/79 386/678/80
f 257/679/73 339/680/106 341/681/75
f 391/682/65 338/683/187 396/684/66
f 315/685/157 508/686/164 505/687/158
f 317/688/154 509/689/159 506/690/162
f 316/691/160 464/692/153 458/693/188
f 299/694/189 360/695/10 283/696/10
f 301/697/190 359/698/10 285/699/10
f 283/700/10 358/701/10 267/702/10
f 285/703/10 357/704/10 269/705/10
f 267/706/10 353/707/72 245/708/104
f 269/709/10 354/710/87 247/711/89
f 246/712/92 356/713/191 354/714/87
f 256/715/70 397/716/81 385/717/82
f 245/718/104 355/719/74 256/720/70
f 390/721/62 352/722/192 398/723/63
f 311/724/143 516/725/150 513/726/144
f 313/727/140 517/728/145 514/729/148
f 312/730/146 465/731/139 456/732/193
f 295/733/194 374/734/10 279/735/10
f 297/736/195 373/737/10 281/738/10
f 279/739/10 372/740/10 263/741/10
f 281/742/10 371/743/10 265/744/10
f 263/745/10 366/746/69 235/747/103
f 265/748/10 368/749/90 246/750/92
f 236/751/49 370/752/196 368/753/90
f 249/754/197 399/755/83 383/756/198
f 235/757/103 369/758/71 249/759/197
f 388/760/199 365/761/200 400/762/60
f 401/763/201 466/764/53 468/765/202
f 477/766/203 467/767/204 485/768/205
f 483/769/206 380/770/207 401/771/201
f 478/772/208 402/773/209 481/774/210
f 481/775/210 379/776/52 473/777/211
f 483/778/206 381/779/212 477/780/203
f 467/781/204 401/782/201 468/783/202
f 250/784/101 400/785/60 370/786/196
f 231/787/213 399/788/83 367/789/214
f 253/790/91 398/791/63 356/792/191
f 385/793/82 351/794/215 237/795/216
f 254/796/88 396/797/66 342/798/84
f 386/799/80 337/800/217 238/801/218
f 392/802/68 327/803/93 255/804/182
f 387/805/78 323/806/219 239/807/220
f 232/808/221 469/809/100 422/810/222
f 393/811/96 229/812/223 323/813/219
f 399/814/83 237/815/216 367/816/214
f 397/817/81 238/818/218 351/819/215
f 395/820/79 239/821/220 337/822/217
f 342/823/84 392/824/68 255/825/182
f 356/826/191 391/827/65 254/828/88
f 370/829/196 390/830/62 253/831/91
f 394/832/57 252/833/224 327/834/93
f 323/835/219 403/836/225 413/837/226
f 240/838/67 414/839/227 325/840/183
f 238/841/218 415/842/228 408/843/229
f 421/844/230 404/845/231 470/846/232
f 241/847/64 416/848/233 338/849/187
f 338/850/187 410/851/234 240/852/67
f 232/853/221 419/854/235 365/855/200
f 242/856/61 418/857/236 352/858/192
f 365/859/200 412/860/237 242/861/61
f 231/862/213 471/863/238 422/864/222
f 239/865/220 413/866/226 409/867/239
f 367/868/214 407/869/240 420/870/241
f 231/871/213 420/872/241 405/873/242
f 325/874/183 404/875/231 230/876/58
f 237/877/216 417/878/243 407/879/240
f 351/880/215 408/881/229 417/882/243
f 352/883/192 411/884/244 241/885/64
f 337/886/217 409/887/239 415/888/228
f 422/889/222 406/890/245 232/891/221
f 229/892/223 470/893/232 403/894/225
f 231/895/213 469/896/100 383/897/198
f 382/898/246 468/899/202 402/900/209
f 485/901/205 382/902/246 478/903/208
f 402/904/209 466/905/53 379/906/52
f 456/907/193 378/908/247 311/909/143
f 458/910/188 364/911/248 315/912/157
f 460/913/184 350/914/249 319/915/171
f 322/916/179 502/917/177 499/918/180
f 496/919/175 460/920/184 503/921/170
f 350/922/249 461/923/169 322/924/179
f 318/925/165 510/926/163 507/927/166
f 504/928/161 458/929/188 511/930/156
f 364/931/248 459/932/155 318/933/165
f 314/934/151 518/935/149 515/936/152
f 512/937/147 456/938/193 519/939/142
f 378/940/247 457/941/141 314/942/151
f 310/943/137 494/944/136 491/945/138
f 488/946/135 454/947/114 495/948/134
f 336/949/250 455/950/133 310/951/137
f 306/952/251 445/953/10 290/954/10
f 304/955/252 444/956/10 288/957/10
f 302/958/253 443/959/10 286/960/10
f 300/961/254 442/962/10 284/963/10
f 298/964/255 441/965/10 282/966/10
f 296/967/256 440/968/10 280/969/10
f 454/970/114 336/971/250 307/972/126
f 294/973/257 439/974/10 278/975/10
f 292/976/258 438/977/10 276/978/10
f 290/979/10 437/980/10 274/981/10
f 288/982/10 436/983/10 272/984/10
f 286/985/10 435/986/10 270/987/10
f 284/988/10 434/989/10 268/990/10
f 282/991/10 433/992/10 266/993/10
f 280/994/10 432/995/10 264/996/10
f 278/997/10 431/998/10 262/999/10
f 276/1000/10 430/1001/10 260/1002/10
f 274/1003/10 427/1004/10 243/1005/76
f 272/1006/10 426/1007/10 247/1008/89
f 270/1009/10 426/1010/10 244/1011/105
f 268/1012/10 425/1013/10 246/1014/92
f 266/1015/10 425/1016/10 245/1017/104
f 264/1018/10 423/1019/50 236/1020/49
f 262/1021/10 424/1022/99 233/1023/55
f 260/1024/10 427/1025/10 248/1026/85
f 383/1027/198 429/1028/48 249/1029/197
f 424/1030/99 251/1031/56 233/1032/55
f 474/1033/259 466/1034/53 380/1035/207
f 249/1036/197 423/1037/50 235/1038/103
f 421/1039/230 475/1040/260 230/1041/58
f 475/1042/260 487/1043/51 474/1044/259
f 428/1045/98 479/1046/261 251/1047/56
f 484/1048/262 478/1049/208 479/1050/261
f 252/1051/224 482/1052/263 476/1053/264
f 476/1054/264 483/1055/206 477/1056/203
f 389/1057/97 472/1058/265 229/1059/223
f 480/1060/266 473/1061/211 472/1062/265
f 251/1063/56 480/1064/266 389/1065/97
f 479/1066/261 481/1067/210 480/1068/266
f 384/1069/59 475/1070/260 482/1071/263
f 482/1072/263 474/1073/259 483/1074/206
f 252/1075/224 484/1076/262 428/1077/98
f 476/1078/264 485/1079/205 484/1080/262
f 421/1081/230 472/1082/265 486/1083/267
f 486/1084/267 473/1085/211 487/1086/51
f 488/1087/135 446/1088/108 292/1089/258
f 491/1090/138 447/1091/110 294/1092/257
f 334/1093/111 491/1094/138 294/1095/257
f 447/1096/110 490/1097/121 293/1098/181
f 333/1099/109 488/1100/135 292/1101/258
f 446/1102/108 489/1103/128 291/1104/107
f 489/1105/128 334/1106/111 291/1107/107
f 490/1108/121 333/1109/109 293/1110/181
f 496/1111/175 452/1112/129 304/1113/252
f 499/1114/180 453/1115/131 306/1116/251
f 498/1117/176 347/1118/130 305/1119/186
f 497/1120/172 348/1121/132 303/1122/185
f 348/1123/132 499/1124/180 306/1125/251
f 453/1126/131 498/1127/176 305/1128/186
f 347/1129/130 496/1130/175 304/1131/252
f 452/1132/129 497/1133/172 303/1134/185
f 300/1135/254 511/1136/156 450/1137/122
f 507/1138/166 451/1139/124 302/1140/253
f 301/1141/190 509/1142/159 361/1143/123
f 505/1144/158 362/1145/125 299/1146/189
f 508/1147/164 302/1148/253 362/1149/125
f 510/1150/163 301/1151/190 451/1152/124
f 361/1153/123 504/1154/161 300/1155/254
f 450/1156/122 505/1157/158 299/1158/189
f 296/1159/256 519/1160/142 448/1161/115
f 515/1162/152 449/1163/117 298/1164/255
f 297/1165/195 517/1166/145 375/1167/116
f 513/1168/144 376/1169/118 295/1170/194
f 516/1171/150 298/1172/255 376/1173/118
f 518/1174/149 297/1175/195 449/1176/117
f 375/1177/116 512/1178/147 296/1179/256
f 448/1180/115 513/1181/144 295/1182/194
f 413/1183/226 470/1184/232 414/1185/227
s 0
f 523/1186/45 527/1187/45 521/1188/45
f 35/1/268 14/24/268 8/2/268
f 8/1189/2 6/6/2 32/1190/2
f 6/6/2 5/1191/2 26/4/2
f 32/1190/2 6/6/2 20/5/2
f 5/1191/2 7/1192/2 26/4/2
f 7/7/3 5/1193/3 15/8/3
f 4/10/4 2/34/4 11/11/4
f 30/13/5 27/30/5 21/14/5
f 15/8/6 13/1194/6 10/16/6
f 12/12/13 9/23/13 33/17/13
f 4/10/269 12/12/269 34/18/269
f 10/16/9 13/1194/9 1/20/9
f 9/23/10 12/12/10 11/11/10
f 11/11/10 17/1195/10 18/22/10
f 17/1195/10 14/24/10 18/22/10
f 14/24/11 17/1195/11 6/25/11
f 30/13/12 29/31/12 26/26/12
f 26/26/12 7/7/12 3/21/12
f 7/7/12 16/9/12 3/21/12
f 16/9/12 10/16/12 3/21/12
f 3/21/12 25/27/12 26/26/12
f 25/27/12 28/29/12 27/30/12
f 27/30/12 30/13/12 25/27/12
f 18/22/13 36/33/13 33/17/13
f 19/28/270 22/36/270 28/29/270
f 28/29/271 22/36/271 21/14/271
f 29/31/272 23/35/272 20/32/272
f 24/15/273 23/35/273 29/31/273
f 14/24/274 35/1/274 36/33/274
f 25/27/14 3/21/14 1/20/14
f 1/20/14 2/34/14 25/27/14
f 2/34/14 4/10/14 31/19/14
f 2/34/14 31/19/14 19/28/14
f 32/3/1 20/32/1 23/35/1
f 33/17/12 36/33/12 24/15/12
f 36/33/12 35/1/12 24/15/12
f 35/1/12 23/35/12 24/15/12
f 24/15/12 21/14/12 33/17/12
f 21/14/12 22/36/12 34/18/12
f 31/19/8 34/18/8 22/36/8
f 38/37/15 40/1196/15 39/38/15
f 40/40/16 42/1197/16 41/41/16
f 42/43/17 44/1198/17 43/44/17
f 44/46/18 46/1199/18 45/47/18
f 46/49/19 48/1200/19 47/50/19
f 48/52/20 50/1201/20 49/53/20
f 50/55/21 52/1202/21 51/56/21
f 52/58/22 54/1203/22 53/59/22
f 54/61/23 56/1204/23 55/62/23
f 56/64/24 58/1205/24 57/65/24
f 58/67/25 60/1206/25 59/68/25
f 60/70/26 62/1207/26 61/71/26
f 62/73/27 64/1208/27 63/74/27
f 64/76/28 66/1209/28 65/77/28
f 66/79/29 68/1210/29 67/80/29
f 68/82/30 70/1211/30 69/83/30
f 70/85/31 72/1212/31 71/86/31
f 72/88/32 74/1213/32 73/89/32
f 74/91/33 76/1214/33 75/92/33
f 76/94/34 78/1215/34 77/95/34
f 78/97/35 80/1216/35 79/98/35
f 80/100/36 82/1217/36 81/101/36
f 82/103/37 84/1218/37 83/104/37
f 84/106/38 86/1219/38 85/107/38
f 86/109/39 88/1220/39 87/110/39
f 88/112/40 90/1221/40 89/113/40
f 90/115/41 92/1222/41 91/116/41
f 92/118/42 94/1223/42 93/119/42
f 94/121/43 96/1224/43 95/122/43
f 96/124/44 98/1225/44 97/125/44
f 42/129/45 40/1226/45 98/1227/45
f 40/1226/45 38/1228/45 98/1227/45
f 38/1228/45 100/1229/45 98/1227/45
f 98/1227/45 96/1230/45 94/1231/45
f 94/1231/45 92/1232/45 98/1227/45
f 92/1232/45 90/1233/45 98/1227/45
f 90/1233/45 88/1234/45 82/1235/45
f 88/1234/45 86/1236/45 82/1235/45
f 86/1236/45 84/1237/45 82/1235/45
f 82/1235/45 80/1238/45 78/1239/45
f 78/1239/45 76/1240/45 82/1235/45
f 76/1240/45 74/127/45 82/1235/45
f 74/127/45 72/1241/45 70/1242/45
f 70/1242/45 68/1243/45 66/1244/45
f 66/1244/45 64/1245/45 58/128/45
f 64/1245/45 62/1246/45 58/128/45
f 62/1246/45 60/1247/45 58/128/45
f 58/128/45 56/1248/45 54/1249/45
f 54/1249/45 52/1250/45 58/128/45
f 52/1250/45 50/1251/45 58/128/45
f 50/1251/45 48/1252/45 42/129/45
f 48/1252/45 46/1253/45 42/129/45
f 46/1253/45 44/1254/45 42/129/45
f 74/127/45 70/1242/45 58/128/45
f 70/1242/45 66/1244/45 58/128/45
f 42/129/45 98/1227/45 90/1233/45
f 90/1233/45 82/1235/45 42/129/45
f 82/1235/45 74/127/45 42/129/45
f 58/128/45 50/1251/45 42/129/45
f 98/130/46 100/1255/46 99/131/46
f 100/133/47 38/1256/47 37/134/47
f 99/1257/12 37/1258/12 39/1259/12
f 39/1259/12 41/1260/12 99/1257/12
f 41/1260/12 43/1261/12 99/1257/12
f 43/1261/12 45/1262/12 47/1263/12
f 47/1263/12 49/1264/12 51/136/12
f 51/136/12 53/1265/12 55/1266/12
f 55/1266/12 57/1267/12 59/1268/12
f 59/1268/12 61/1269/12 63/1270/12
f 63/1270/12 65/1271/12 67/137/12
f 67/137/12 69/1272/12 71/1273/12
f 71/1273/12 73/1274/12 75/1275/12
f 75/1275/12 77/1276/12 79/1277/12
f 79/1277/12 81/1278/12 75/1275/12
f 81/1278/12 83/138/12 75/1275/12
f 83/138/12 85/1279/12 87/1280/12
f 87/1280/12 89/1281/12 91/1282/12
f 91/1282/12 93/1283/12 95/1284/12
f 95/1284/12 97/1285/12 91/1282/12
f 97/1285/12 99/1257/12 91/1282/12
f 43/1261/12 47/1263/12 99/1257/12
f 47/1263/12 51/136/12 99/1257/12
f 51/136/12 55/1266/12 59/1268/12
f 59/1268/12 63/1270/12 67/137/12
f 67/137/12 71/1273/12 83/138/12
f 71/1273/12 75/1275/12 83/138/12
f 83/138/12 87/1280/12 99/1257/12
f 87/1280/12 91/1282/12 99/1257/12
f 51/136/12 59/1268/12 67/137/12
f 99/1257/12 51/136/12 83/138/12
f 102/139/15 104/1286/15 103/140/15
f 104/142/16 106/1287/16 105/143/16
f 106/145/17 108/1288/17 107/146/17
f 108/148/18 110/1289/18 109/149/18
f 110/151/19 112/1290/19 111/152/19
f 112/154/20 114/1291/20 113/155/20
f 114/157/21 116/1292/21 115/158/21
f 116/160/22 118/1293/22 117/161/22
f 118/163/23 120/1294/23 119/164/23
f 120/166/24 122/1295/24 121/167/24
f 122/169/25 124/1296/25 123/170/25
f 124/172/26 126/1297/26 125/173/26
f 126/175/27 128/1298/27 127/176/27
f 128/178/28 130/1299/28 129/179/28
f 130/181/29 132/1300/29 131/182/29
f 132/184/30 134/1301/30 133/185/30
f 134/187/31 136/1302/31 135/188/31
f 136/190/32 138/1303/32 137/191/32
f 138/193/33 140/1304/33 139/194/33
f 140/196/34 142/1305/34 141/197/34
f 142/199/35 144/1306/35 143/200/35
f 144/202/36 146/1307/36 145/203/36
f 146/205/37 148/1308/37 147/206/37
f 148/208/38 150/1309/38 149/209/38
f 150/211/39 152/1310/39 151/212/39
f 152/214/40 154/1311/40 153/215/40
f 154/217/41 156/1312/41 155/218/41
f 156/220/42 158/1313/42 157/221/42
f 158/223/43 160/1314/43 159/224/43
f 160/226/44 162/1315/44 161/227/44
f 106/229/45 104/1316/45 162/1317/45
f 104/1316/45 102/1318/45 162/1317/45
f 102/1318/45 164/1319/45 162/1317/45
f 162/1317/45 160/1320/45 154/230/45
f 160/1320/45 158/1321/45 154/230/45
f 158/1321/45 156/1322/45 154/230/45
f 154/230/45 152/1323/45 150/1324/45
f 150/1324/45 148/1325/45 154/230/45
f 148/1325/45 146/1326/45 154/230/45
f 146/1326/45 144/1327/45 138/231/45
f 144/1327/45 142/1328/45 138/231/45
f 142/1328/45 140/1329/45 138/231/45
f 138/231/45 136/1330/45 134/1331/45
f 134/1331/45 132/1332/45 138/231/45
f 132/1332/45 130/1333/45 138/231/45
f 130/1333/45 128/1334/45 126/1335/45
f 126/1335/45 124/1336/45 130/1333/45
f 124/1336/45 122/1337/45 130/1333/45
f 122/1337/45 120/1338/45 118/1339/45
f 118/1339/45 116/1340/45 114/1341/45
f 114/1341/45 112/1342/45 110/1343/45
f 110/1343/45 108/1344/45 114/1341/45
f 108/1344/45 106/229/45 114/1341/45
f 122/1337/45 118/1339/45 114/1341/45
f 106/229/45 162/1317/45 154/230/45
f 154/230/45 146/1326/45 138/231/45
f 138/231/45 130/1333/45 122/1337/45
f 122/1337/45 114/1341/45 138/231/45
f 114/1341/45 106/229/45 138/231/45
f 162/232/46 164/1345/46 163/233/46
f 164/235/47 102/1346/47 101/236/47
f 163/240/12 101/1347/12 103/1348/12
f 103/1348/12 105/1349/12 163/240/12
f 105/1349/12 107/1350/12 163/240/12
f 107/1350/12 109/1351/12 111/1352/12
f 111/1352/12 113/1353/12 107/1350/12
f 113/1353/12 115/1354/12 107/1350/12
f 115/1354/12 117/1355/12 119/1356/12
f 119/1356/12 121/1357/12 115/1354/12
f 121/1357/12 123/1358/12 115/1354/12
f 123/1358/12 125/1359/12 127/1360/12
f 127/1360/12 129/1361/12 123/1358/12
f 129/1361/12 131/238/12 123/1358/12
f 131/238/12 133/1362/12 135/1363/12
f 135/1363/12 137/1364/12 139/1365/12
f 139/1365/12 141/1366/12 143/1367/12
f 143/1367/12 145/1368/12 139/1365/12
f 145/1368/12 147/239/12 139/1365/12
f 147/239/12 149/1369/12 151/1370/12
f 151/1370/12 153/1371/12 147/239/12
f 153/1371/12 155/1372/12 147/239/12
f 155/1372/12 157/1373/12 159/1374/12
f 159/1374/12 161/1375/12 155/1372/12
f 161/1375/12 163/240/12 155/1372/12
f 131/238/12 135/1363/12 147/239/12
f 135/1363/12 139/1365/12 147/239/12
f 163/240/12 107/1350/12 131/238/12
f 107/1350/12 115/1354/12 131/238/12
f 115/1354/12 123/1358/12 131/238/12
f 147/239/12 155/1372/12 163/240/12
f 166/241/15 168/1376/15 167/242/15
f 168/244/16 170/1377/16 169/245/16
f 170/247/17 172/1378/17 171/248/17
f 172/250/18 174/1379/18 173/251/18
f 174/253/19 176/1380/19 175/254/19
f 176/256/20 178/1381/20 177/257/20
f 178/259/21 180/1382/21 179/260/21
f 180/262/22 182/1383/22 181/263/22
f 182/265/23 184/1384/23 183/266/23
f 184/268/24 186/1385/24 185/269/24
f 186/271/25 188/1386/25 187/272/25
f 188/274/26 190/1387/26 189/275/26
f 190/277/27 192/1388/27 191/278/27
f 192/280/28 194/1389/28 193/281/28
f 194/283/29 196/1390/29 195/284/29
f 196/286/30 198/1391/30 197/287/30
f 198/289/31 200/1392/31 199/290/31
f 200/292/32 202/1393/32 201/293/32
f 202/295/33 204/1394/33 203/296/33
f 204/298/34 206/1395/34 205/299/34
f 206/301/35 208/1396/35 207/302/35
f 208/304/36 210/1397/36 209/305/36
f 210/307/37 212/1398/37 211/308/37
f 212/310/38 214/1399/38 213/311/38
f 214/313/39 216/1400/39 215/314/39
f 216/316/40 218/1401/40 217/317/40
f 218/319/41 220/1402/41 219/320/41
f 220/322/42 222/1403/42 221/323/42
f 222/325/43 224/1404/43 223/326/43
f 224/328/44 226/1405/44 225/329/44
f 170/333/45 168/1406/45 166/1407/45
f 166/1407/45 228/1408/45 226/1409/45
f 226/1409/45 224/1410/45 222/1411/45
f 222/1411/45 220/1412/45 218/1413/45
f 218/1413/45 216/1414/45 210/1415/45
f 216/1414/45 214/1416/45 210/1415/45
f 214/1416/45 212/1417/45 210/1415/45
f 210/1415/45 208/1418/45 206/1419/45
f 206/1419/45 204/1420/45 202/331/45
f 202/331/45 200/1421/45 194/1422/45
f 200/1421/45 198/1423/45 194/1422/45
f 198/1423/45 196/1424/45 194/1422/45
f 194/1422/45 192/1425/45 190/1426/45
f 190/1426/45 188/1427/45 186/332/45
f 186/332/45 184/1428/45 178/1429/45
f 184/1428/45 182/1430/45 178/1429/45
f 182/1430/45 180/1431/45 178/1429/45
f 178/1429/45 176/1432/45 170/333/45
f 176/1432/45 174/1433/45 170/333/45
f 174/1433/45 172/1434/45 170/333/45
f 170/333/45 166/1407/45 218/1413/45
f 166/1407/45 226/1409/45 218/1413/45
f 226/1409/45 222/1411/45 218/1413/45
f 210/1415/45 206/1419/45 218/1413/45
f 206/1419/45 202/331/45 218/1413/45
f 194/1422/45 190/1426/45 202/331/45
f 190/1426/45 186/332/45 202/331/45
f 186/332/45 178/1429/45 170/333/45
f 170/333/45 218/1413/45 202/331/45
f 226/334/46 228/1435/46 227/335/46
f 228/337/47 166/1436/47 165/338/47
f 227/342/12 165/1437/12 171/1438/12
f 165/1437/12 167/1439/12 171/1438/12
f 167/1439/12 169/1440/12 171/1438/12
f 171/1438/12 173/1441/12 175/1442/12
f 175/1442/12 177/1443/12 179/1444/12
f 179/1444/12 181/1445/12 183/1446/12
f 183/1446/12 185/1447/12 187/1448/12
f 187/1448/12 189/1449/12 195/1450/12
f 189/1449/12 191/1451/12 195/1450/12
f 191/1451/12 193/1452/12 195/1450/12
f 195/1450/12 197/1453/12 199/1454/12
f 199/1454/12 201/1455/12 203/340/12
f 203/340/12 205/1456/12 211/341/12
f 205/1456/12 207/1457/12 211/341/12
f 207/1457/12 209/1458/12 211/341/12
f 211/341/12 213/1459/12 215/1460/12
f 215/1460/12 217/1461/12 219/1462/12
f 219/1462/12 221/1463/12 223/1464/12
f 223/1464/12 225/1465/12 227/342/12
f 171/1438/12 175/1442/12 179/1444/12
f 179/1444/12 183/1446/12 187/1448/12
f 195/1450/12 199/1454/12 203/340/12
f 211/341/12 215/1460/12 227/342/12
f 215/1460/12 219/1462/12 227/342/12
f 219/1462/12 223/1464/12 227/342/12
f 227/342/12 171/1438/12 179/1444/12
f 179/1444/12 187/1448/12 227/342/12
f 187/1448/12 195/1450/12 227/342/12
f 195/1450/12 203/340/12 227/342/12
s 1
f 429/343/48 250/1466/101 236/344/49
f 487/346/51 473/1467/211 379/347/52
f 328/349/54 326/1468/102 233/350/55
f 394/352/57 325/1469/183 230/353/58
f 400/355/60 365/1470/200 242/356/61
f 398/358/63 352/1471/192 241/359/64
f 396/361/66 338/1472/187 240/362/67
f 366/364/69 245/1473/104 256/365/70
f 353/367/72 244/1474/105 257/368/73
f 341/370/75 339/1475/106 243/371/76
f 341/373/75 258/1476/77 387/374/78
f 355/376/74 257/1477/73 386/377/80
f 369/379/71 256/1478/70 385/380/82
f 342/382/84 255/1479/182 248/383/85
f 354/385/87 356/1480/191 254/386/88
f 368/388/90 370/1481/196 253/389/91
f 327/391/93 252/1482/224 234/392/94
f 393/394/96 328/1483/54 251/395/56
f 234/397/94 252/1484/224 428/398/98
f 469/400/100 388/1485/199 250/401/101
f 430/403/10 259/1486/10 243/404/76
f 329/406/10 260/1487/10 248/407/85
f 431/409/10 261/1488/10 234/410/94
f 330/412/10 262/1489/10 233/413/55
f 432/415/10 263/1490/10 235/416/103
f 371/418/10 264/1491/10 236/419/49
f 433/421/10 265/1492/10 246/422/92
f 372/424/10 266/1493/10 245/425/104
f 434/427/10 267/1494/10 245/428/104
f 357/430/10 268/1495/10 246/431/92
f 435/433/10 269/1496/10 247/434/89
f 358/436/10 270/1497/10 244/437/105
f 436/439/10 271/1498/10 244/440/105
f 343/442/10 272/1499/10 247/443/89
f 437/445/10 273/1500/10 248/446/85
f 344/448/10 274/1501/10 243/449/76
f 438/451/10 275/1502/10 259/452/10
f 331/454/10 276/1503/10 260/455/10
f 439/457/10 277/1504/10 261/458/10
f 332/460/10 278/1505/10 262/461/10
f 440/463/10 279/1506/10 263/464/10
f 373/466/10 280/1507/10 264/467/10
f 441/469/10 281/1508/10 265/470/10
f 374/472/10 282/1509/10 266/473/10
f 442/475/10 283/1510/10 267/476/10
f 359/478/10 284/1511/10 268/479/10
f 443/481/10 285/1512/10 269/482/10
f 360/484/10 286/1513/10 270/485/10
f 444/487/10 287/1514/10 271/488/10
f 345/490/10 288/1515/10 272/491/10
f 445/493/10 289/1516/10 273/494/10
f 346/496/10 290/1517/10 274/497/10
f 291/499/107 334/1518/111 332/500/10
f 446/502/108 291/1519/107 275/503/10
f 333/505/109 292/1520/258 276/506/10
f 447/508/110 293/1521/181 277/509/10
f 334/511/111 294/1522/257 278/512/10
f 308/514/112 335/1523/275 462/515/113
f 448/517/115 295/1524/194 279/518/10
f 375/520/116 296/1525/256 280/521/10
f 449/523/117 297/1526/195 281/524/10
f 376/526/118 298/1527/255 282/527/10
f 309/529/119 335/1528/275 493/530/120
f 450/532/122 299/1529/189 283/533/10
f 361/535/123 300/1530/254 284/536/10
f 451/538/124 301/1531/190 285/539/10
f 362/541/125 302/1532/253 286/542/10
f 307/544/126 336/1533/250 492/545/127
f 452/547/129 303/1534/185 287/548/10
f 347/550/130 304/1535/252 288/551/10
f 453/553/131 305/1536/186 289/554/10
f 348/556/132 306/1537/251 290/557/10
f 462/559/113 335/1538/275 309/560/119
f 495/562/134 454/1539/114 307/563/126
f 493/565/120 335/1540/275 308/566/112
f 455/568/133 309/1541/119 490/569/121
f 492/571/127 336/1542/250 310/572/137
f 465/574/139 377/1543/276 313/575/140
f 519/577/142 456/1544/193 311/578/143
f 517/580/145 377/1545/276 312/581/146
f 457/583/141 313/1546/140 514/584/148
f 516/586/150 378/1547/247 314/587/151
f 464/589/153 363/1548/277 317/590/154
f 511/592/156 458/1549/188 315/593/157
f 509/595/159 363/1550/277 316/596/160
f 459/598/155 317/1551/154 506/599/162
f 508/601/164 364/1552/248 318/602/165
f 463/604/167 349/1553/278 321/605/168
f 503/607/170 460/1554/184 319/608/171
f 501/610/173 349/1555/278 320/611/174
f 461/613/169 321/1556/168 498/614/176
f 500/616/178 350/1557/249 322/617/179
f 293/619/181 333/1558/109 331/620/10
f 275/622/10 332/1559/10 330/623/10
f 277/625/10 331/1560/10 329/626/10
f 259/628/10 330/1561/10 326/629/102
f 261/631/10 329/1562/10 324/632/95
f 387/634/78 258/1563/77 328/635/54
f 255/637/182 327/1564/93 324/638/95
f 392/640/68 240/1565/67 325/641/183
f 258/643/77 243/1566/76 326/644/102
f 319/646/171 350/1567/249 500/647/178
f 321/649/168 349/1568/278 501/650/173
f 320/652/174 349/1569/278 463/653/167
f 303/655/185 348/1570/132 346/656/10
f 305/658/186 347/1571/130 345/659/10
f 287/661/10 346/1572/10 344/662/10
f 289/664/10 345/1573/10 343/665/10
f 271/667/10 344/1574/10 339/668/106
f 273/670/10 343/1575/10 340/671/86
f 254/673/88 342/1576/84 340/674/86
f 257/676/73 341/1577/75 395/677/79
f 257/679/73 244/1578/105 339/680/106
f 391/682/65 241/1579/64 338/683/187
f 315/685/157 364/1580/248 508/686/164
f 317/688/154 363/1581/277 509/689/159
f 316/691/160 363/1582/277 464/692/153
f 299/694/189 362/1583/125 360/695/10
f 301/697/190 361/1584/123 359/698/10
f 283/700/10 360/1585/10 358/701/10
f 285/703/10 359/1586/10 357/704/10
f 267/706/10 358/1587/10 353/707/72
f 269/709/10 357/1588/10 354/710/87
f 246/712/92 253/1589/91 356/713/191
f 256/715/70 355/1590/74 397/716/81
f 245/718/104 353/1591/72 355/719/74
f 390/721/62 242/1592/61 352/722/192
f 311/724/143 378/1593/247 516/725/150
f 313/727/140 377/1594/276 517/728/145
f 312/730/146 377/1595/276 465/731/139
f 295/733/194 376/1596/118 374/734/10
f 297/736/195 375/1597/116 373/737/10
f 279/739/10 374/1598/10 372/740/10
f 281/742/10 373/1599/10 371/743/10
f 263/745/10 372/1600/10 366/746/69
f 265/748/10 371/1601/10 368/749/90
f 236/751/49 250/1602/101 370/752/196
f 249/754/197 369/1603/71 399/755/83
f 235/757/103 366/1604/69 369/758/71
f 388/760/199 232/1605/221 365/761/200
f 401/763/201 380/1606/207 466/764/53
f 477/766/203 381/1607/212 467/767/204
f 483/769/206 474/1608/259 380/770/207
f 478/772/208 382/1609/246 402/773/209
f 481/775/210 402/1610/209 379/776/52
f 483/778/206 401/1611/201 381/779/212
f 467/781/204 381/1612/212 401/782/201
f 250/784/101 388/1613/199 400/785/60
f 231/787/213 383/1614/198 399/788/83
f 253/790/91 390/1615/62 398/791/63
f 385/793/82 397/1616/81 351/794/215
f 254/796/88 391/1617/65 396/797/66
f 386/799/80 395/1618/79 337/800/217
f 392/802/68 394/1619/57 327/803/93
f 387/805/78 393/1620/96 323/806/219
f 232/808/221 388/1621/199 469/809/100
f 393/811/96 389/1622/97 229/812/223
f 399/814/83 385/1623/82 237/815/216
f 397/817/81 386/1624/80 238/818/218
f 395/820/79 387/1625/78 239/821/220
f 342/823/84 396/1626/66 392/824/68
f 356/826/191 398/1627/63 391/827/65
f 370/829/196 400/1628/60 390/830/62
f 394/832/57 384/1629/59 252/833/224
f 323/835/219 229/1630/223 403/836/225
f 240/838/67 410/1631/234 414/839/227
f 238/841/218 337/1632/217 415/842/228
f 421/844/230 230/1633/58 404/845/231
f 241/847/64 411/1634/244 416/848/233
f 338/850/187 416/1635/233 410/851/234
f 232/853/221 406/1636/245 419/854/235
f 242/856/61 412/1637/237 418/857/236
f 365/859/200 419/1638/235 412/860/237
f 231/862/213 405/1639/242 471/863/238
f 239/865/220 323/1640/219 413/866/226
f 367/868/214 237/1641/216 407/869/240
f 231/871/213 367/1642/214 420/872/241
f 325/874/183 414/1643/227 404/875/231
f 237/877/216 351/1644/215 417/878/243
f 351/880/215 238/1645/218 408/881/229
f 352/883/192 418/1646/236 411/884/244
f 337/886/217 239/1647/220 409/887/239
f 422/889/222 471/1648/238 406/890/245
f 229/892/223 421/1649/230 470/893/232
f 231/895/213 422/1650/222 469/896/100
f 382/898/246 467/1651/204 468/899/202
f 485/901/205 467/1652/204 382/902/246
f 402/904/209 468/1653/202 466/905/53
f 456/907/193 465/1654/139 378/908/247
f 458/910/188 464/1655/153 364/911/248
f 460/913/184 463/1656/167 350/914/249
f 322/916/179 461/1657/169 502/917/177
f 496/919/175 320/1658/174 460/920/184
f 350/922/249 463/1659/167 461/923/169
f 318/925/165 459/1660/155 510/926/163
f 504/928/161 316/1661/160 458/929/188
f 364/931/248 464/1662/153 459/932/155
f 314/934/151 457/1663/141 518/935/149
f 512/937/147 312/1664/146 456/938/193
f 378/940/247 465/1665/139 457/941/141
f 310/943/137 455/1666/133 494/944/136
f 488/946/135 308/1667/112 454/947/114
f 336/949/250 462/1668/113 455/950/133
f 306/952/251 453/1669/131 445/953/10
f 304/955/252 452/1670/129 444/956/10
f 302/958/253 451/1671/124 443/959/10
f 300/961/254 450/1672/122 442/962/10
f 298/964/255 449/1673/117 441/965/10
f 296/967/256 448/1674/115 440/968/10
f 454/970/114 462/1675/113 336/971/250
f 294/973/257 447/1676/110 439/974/10
f 292/976/258 446/1677/108 438/977/10
f 290/979/10 445/1678/10 437/980/10
f 288/982/10 444/1679/10 436/983/10
f 286/985/10 443/1680/10 435/986/10
f 284/988/10 442/1681/10 434/989/10
f 282/991/10 441/1682/10 433/992/10
f 280/994/10 440/1683/10 432/995/10
f 278/997/10 439/1684/10 431/998/10
f 276/1000/10 438/1685/10 430/1001/10
f 274/1003/10 437/1686/10 427/1004/10
f 272/1006/10 436/1687/10 426/1007/10
f 270/1009/10 435/1688/10 426/1010/10
f 268/1012/10 434/1689/10 425/1013/10
f 266/1015/10 433/1690/10 425/1016/10
f 264/1018/10 432/1691/10 423/1019/50
f 262/1021/10 431/1692/10 424/1022/99
f 260/1024/10 430/1693/10 427/1025/10
f 383/1027/198 469/1694/100 429/1028/48
f 424/1030/99 428/1695/98 251/1031/56
f 474/1033/259 487/1696/51 466/1034/53
f 249/1036/197 429/1697/48 423/1037/50
f 421/1039/230 486/1698/267 475/1040/260
f 475/1042/260 486/1699/267 487/1043/51
f 428/1045/98 484/1700/262 479/1046/261
f 484/1048/262 485/1701/205 478/1049/208
f 252/1051/224 384/1702/59 482/1052/263
f 476/1054/264 482/1703/263 483/1055/206
f 389/1057/97 480/1704/266 472/1058/265
f 480/1060/266 481/1705/210 473/1061/211
f 251/1063/56 479/1706/261 480/1064/266
f 479/1066/261 478/1707/208 481/1067/210
f 384/1069/59 230/1708/58 475/1070/260
f 482/1072/263 475/1709/260 474/1073/259
f 252/1075/224 476/1710/264 484/1076/262
f 476/1078/264 477/1711/203 485/1079/205
f 421/1081/230 229/1712/223 472/1082/265
f 486/1084/267 472/1713/265 473/1085/211
f 488/1087/135 495/1714/134 446/1088/108
f 491/1090/138 494/1715/136 447/1091/110
f 334/1093/111 492/1716/127 491/1094/138
f 447/1096/110 494/1717/136 490/1097/121
f 333/1099/109 493/1718/120 488/1100/135
f 446/1102/108 495/1719/134 489/1103/128
f 489/1105/128 492/1720/127 334/1106/111
f 490/1108/121 493/1721/120 333/1109/109
f 496/1111/175 503/1722/170 452/1112/129
f 499/1114/180 502/1723/177 453/1115/131
f 498/1117/176 501/1724/173 347/1118/130
f 497/1120/172 500/1725/178 348/1121/132
f 348/1123/132 500/1726/178 499/1124/180
f 453/1126/131 502/1727/177 498/1127/176
f 347/1129/130 501/1728/173 496/1130/175
f 452/1132/129 503/1729/170 497/1133/172
f 300/1135/254 504/1730/161 511/1136/156
f 507/1138/166 510/1731/163 451/1139/124
f 301/1141/190 506/1732/162 509/1142/159
f 505/1144/158 508/1733/164 362/1145/125
f 508/1147/164 507/1734/166 302/1148/253
f 510/1150/163 506/1735/162 301/1151/190
f 361/1153/123 509/1736/159 504/1154/161
f 450/1156/122 511/1737/156 505/1157/158
f 296/1159/256 512/1738/147 519/1160/142
f 515/1162/152 518/1739/149 449/1163/117
f 297/1165/195 514/1740/148 517/1166/145
f 513/1168/144 516/1741/150 376/1169/118
f 516/1171/150 515/1742/152 298/1172/255
f 518/1174/149 514/1743/148 297/1175/195
f 375/1177/116 517/1744/145 512/1178/147
f 448/1180/115 519/1745/142 513/1181/144
f 409/1746/239 413/1183/226 414/1185/227
f 413/1183/226 403/1747/225 470/1184/232
f 470/1184/232 404/1748/231 414/1185/227
f 414/1185/227 410/1749/234 409/1746/239
f 410/1749/234 416/1750/233 409/1746/239
f 416/1750/233 411/1751/244 415/1752/228
f 409/1746/239 416/1750/233 415/1752/228
f 411/1751/244 418/1753/236 417/1754/243
f 418/1753/236 412/1755/237 407/1756/240
f 412/1755/237 419/1757/235 407/1756/240
f 419/1757/235 406/1758/245 471/1759/238
f 407/1756/240 419/1757/235 420/1760/241
f 471/1759/238 405/1761/242 420/1760/241
f 471/1759/238 420/1760/241 419/1757/235
f 407/1756/240 417/1754/243 418/1753/236
f 417/1754/243 408/1762/229 411/1751/244
f 408/1762/229 415/1752/228 411/1751/244
s 0
f 524/1763/45 521/1188/45 527/1187/45
f 521/1188/45 520/1764/45 523/1186/45
f 520/1764/45 525/1765/45 526/1766/45
f 526/1766/45 522/1767/45 520/1764/45
f 522/1767/45 523/1186/45 520/1764/45
