# Blender 3.6.23
# www.blender.org
mtllib playerHandLeft.mtl
o 立方体
v -0.454332 -0.169464 -0.486518
v -0.454332 0.169464 -0.486518
v 0.300399 -0.169464 -0.494974
v 0.300399 0.169464 -0.494974
v -0.532724 -0.140218 0.476753
v -0.532724 0.237081 0.476753
v 0.496538 -0.140218 0.239653
v 0.496538 0.237081 0.239653
v 0.111716 -0.169464 -0.492860
v -0.076967 -0.169464 -0.490746
v -0.265649 -0.169464 -0.488632
v -0.265649 0.169464 -0.488632
v -0.076967 0.169464 -0.490746
v 0.111716 0.169464 -0.492860
v -0.259885 -0.140218 0.553311
v 0.008042 -0.140218 0.517435
v 0.252918 -0.140218 0.434554
v 0.252918 0.237081 0.434554
v 0.008042 0.237081 0.517435
v -0.259885 0.237081 0.553311
v 0.445953 -0.170377 0.020580
v 0.445953 0.206923 0.020580
v -0.553121 -0.170377 0.182210
v -0.553121 0.206923 0.182210
v 0.212965 0.206923 0.154511
v -0.039440 0.206923 0.209784
v -0.310043 0.206923 0.232658
v 0.212965 -0.170377 0.154511
v -0.039440 -0.170377 0.209784
v -0.310043 -0.170377 0.232658
v -0.259885 -0.140218 0.553311
v -0.259885 0.237081 0.553311
v -0.532724 0.237081 0.476753
v -0.532724 -0.140218 0.476753
v 0.496538 -0.140218 0.239653
v 0.496538 0.237081 0.239653
v 0.252918 0.237081 0.434554
v 0.252918 -0.140218 0.434554
v 0.252918 -0.140218 0.434554
v 0.252918 0.237081 0.434554
v 0.008042 0.237081 0.517435
v 0.008042 -0.140218 0.517435
v 0.008042 -0.140218 0.517435
v 0.008042 0.237081 0.517435
v -0.259885 0.237081 0.553311
v -0.259885 -0.140218 0.553311
v -0.259885 -0.140218 0.553311
v -0.259885 0.237081 0.553311
v -0.532724 0.237081 0.476753
v -0.532724 -0.140218 0.476753
v 0.496538 -0.140218 0.239653
v 0.496538 0.237081 0.239653
v 0.252918 0.237081 0.434554
v 0.252918 -0.140218 0.434554
v 0.252918 -0.140218 0.434554
v 0.252918 0.237081 0.434554
v 0.008042 0.237081 0.517435
v 0.008042 -0.140218 0.517435
v 0.008042 -0.140218 0.517435
v 0.008042 0.237081 0.517435
v -0.259885 0.237081 0.553311
v -0.259885 -0.140218 0.553311
v -0.259885 -0.140218 0.553311
v -0.259885 0.237081 0.553311
v -0.532724 0.237081 0.476753
v -0.532724 -0.140218 0.476753
v 0.496538 -0.140218 0.239653
v 0.496538 0.237081 0.239653
v 0.252918 0.237081 0.434554
v 0.252918 -0.140218 0.434554
v 0.252918 -0.140218 0.434554
v 0.252918 0.237081 0.434554
v 0.008042 0.237081 0.517435
v 0.008042 -0.140218 0.517435
v 0.008042 -0.140218 0.517435
v 0.008042 0.237081 0.517435
v -0.259885 0.237081 0.553311
v -0.259885 -0.140218 0.553311
v -0.472201 -0.079391 1.260950
v -0.513744 0.121997 1.426042
v -0.733913 0.121997 1.428509
v -0.702233 -0.079391 1.248618
v 0.702571 -0.092200 0.950827
v 0.699496 0.107854 1.176491
v 0.501037 0.107854 1.178715
v 0.495655 -0.092200 0.989132
v 0.323245 -0.075585 1.269779
v 0.322718 0.125149 1.459428
v 0.123320 0.125149 1.461662
v 0.115330 -0.075585 1.287115
v -0.038904 -0.067492 1.422737
v -0.034697 0.133100 1.597326
v -0.252154 0.133100 1.599763
v -0.265813 -0.067492 1.431436
v -0.359991 -0.169464 -0.487575
v -0.396304 0.237081 0.515032
v -0.359991 0.169464 -0.487575
v -0.396304 -0.140218 0.515032
v -0.431582 0.206923 0.207434
v -0.431582 -0.170377 0.207434
v -0.396304 0.237081 0.515032
v -0.396304 -0.140218 0.515032
v -0.396304 0.237081 0.515032
v -0.396304 -0.140218 0.515032
v -0.396304 0.237081 0.515032
v -0.396304 -0.140218 0.515032
v -0.623249 0.125233 1.479020
v -0.586637 -0.082021 1.306529
v -0.171308 -0.169464 -0.489689
v -0.171308 0.169464 -0.489689
v -0.125922 -0.140218 0.535373
v -0.125922 0.237081 0.535373
v -0.174741 -0.170377 0.221221
v -0.174741 0.206923 0.221221
v -0.125922 0.237081 0.535373
v -0.125922 -0.140218 0.535373
v -0.125922 0.237081 0.535373
v -0.125922 -0.140218 0.535373
v -0.125922 0.237081 0.535373
v -0.125922 -0.140218 0.535373
v -0.142846 0.136054 1.650289
v -0.151779 -0.069892 1.478831
v 0.017375 -0.169464 -0.491803
v 0.017375 0.169464 -0.491803
v 0.130480 -0.140218 0.475994
v 0.130480 0.237081 0.475994
v 0.086762 -0.170377 0.182148
v 0.086762 0.206923 0.182148
v 0.130480 0.237081 0.475994
v 0.130480 -0.140218 0.475994
v 0.130480 0.237081 0.475994
v 0.130480 -0.140218 0.475994
v 0.130480 0.237081 0.475994
v 0.130480 -0.140218 0.475994
v 0.223599 0.127857 1.512289
v 0.219867 -0.077786 1.330192
v 0.206058 0.169464 -0.493917
v 0.374728 -0.140218 0.337103
v 0.206058 -0.169464 -0.493917
v 0.374728 0.237081 0.337103
v 0.329459 -0.170377 0.087546
v 0.329459 0.206923 0.087546
v 0.374728 0.237081 0.337103
v 0.374728 -0.140218 0.337103
v 0.374728 0.237081 0.337103
v 0.374728 -0.140218 0.337103
v 0.374728 0.237081 0.337103
v 0.374728 -0.140218 0.337103
v 0.600846 0.111750 1.229348
v 0.599693 -0.095366 1.021724
v -1.016552 -0.147160 -0.099831
v -1.061596 0.005869 -0.081634
v -1.082285 0.004942 0.166210
v -1.039581 -0.146313 0.176040
v 0.394829 -0.188650 -0.239242
v -0.524795 0.188650 -0.153721
v 0.173313 -0.188650 -0.171100
v -0.057911 -0.188650 -0.142287
v -0.298234 -0.188650 -0.129673
v 0.394829 0.188650 -0.239242
v -0.524795 -0.188650 -0.153721
v 0.173313 0.188650 -0.171100
v -0.057911 0.188650 -0.142287
v -0.298234 0.188650 -0.129673
v -0.411515 -0.188650 -0.141697
v -0.411515 0.188650 -0.141697
v -0.178073 -0.188650 -0.135980
v -0.178073 0.188650 -0.135980
v 0.057701 -0.188650 -0.156694
v 0.057701 0.188650 -0.156694
v 0.284071 -0.188650 -0.205171
v 0.284071 0.188650 -0.205171
v -1.141766 -0.074699 0.043406
v -1.097894 -0.226441 0.039251
v -0.305797 -0.177588 -1.937430
v -0.305797 0.072659 -1.937430
v 0.251459 -0.177588 -1.943674
v 0.251459 0.072659 -1.943674
v 0.119948 -0.184597 -1.942200
v -0.027169 -0.188134 -1.940552
v -0.174286 -0.184597 -1.938904
v -0.174286 0.079668 -1.938904
v -0.027169 0.083205 -1.940552
v 0.119948 0.079668 -1.942200
v -0.242141 -0.181181 -1.938143
v -0.242141 0.076252 -1.938143
v -0.102157 -0.187164 -1.939712
v -0.102157 0.082235 -1.939712
v 0.047818 -0.187164 -1.941392
v 0.047818 0.082235 -1.941392
v 0.187802 0.076252 -1.942961
v 0.187802 -0.181181 -1.942961
v -0.454332 -0.000000 -0.486518
v 0.300399 -0.000000 -0.494974
v 0.496538 0.048432 0.239653
v -0.532724 0.048432 0.476753
v 0.252918 0.048432 0.434554
v 0.008042 0.048432 0.517435
v -0.259885 0.048432 0.553311
v -0.553121 0.018273 0.182210
v 0.445953 0.018273 0.020580
v -0.259885 0.048432 0.553311
v -0.532724 0.048432 0.476753
v 0.496538 0.048432 0.239653
v 0.252918 0.048432 0.434554
v 0.252918 0.048432 0.434554
v 0.008042 0.048432 0.517435
v 0.008042 0.048432 0.517435
v -0.259885 0.048432 0.553311
v -0.259885 0.048432 0.553311
v -0.532724 0.048432 0.476753
v 0.496538 0.048432 0.239653
v 0.252918 0.048432 0.434554
v 0.252918 0.048432 0.434554
v 0.008042 0.048432 0.517435
v 0.008042 0.048432 0.517435
v -0.259885 0.048432 0.553311
v -0.259885 0.048432 0.553311
v -0.532724 0.048432 0.476753
v 0.496538 0.048432 0.239653
v 0.252918 0.048432 0.434554
v 0.252918 0.048432 0.434554
v 0.008042 0.048432 0.517435
v 0.008042 0.048432 0.517435
v -0.259885 0.048432 0.553311
v -0.513744 0.042508 1.426042
v -0.733913 0.042508 1.428509
v 0.699496 0.028573 1.176491
v 0.501037 0.028573 1.178715
v 0.322718 0.045493 1.459428
v 0.123320 0.045493 1.461662
v -0.034697 0.053522 1.597326
v -0.252154 0.053522 1.599763
v -0.623249 0.042508 1.479020
v -0.142846 0.053522 1.650289
v 0.223599 0.045493 1.512289
v 0.600846 0.028573 1.229348
v -1.061596 -0.065726 -0.081634
v -1.082285 -0.065726 0.166210
v -1.141766 -0.145621 0.043406
v 0.394829 0.000000 -0.239242
v -0.345940 -0.052465 -1.936980
v 0.291601 -0.052465 -1.944124
v -0.624420 -0.111607 -0.366183
v -0.832918 -0.083976 -0.238245
v -0.857518 0.107249 -0.228306
v -0.635286 0.121895 -0.361794
v -0.697238 0.132799 0.083776
v -0.900009 0.112836 0.118303
v -0.876686 -0.089607 0.123671
v -0.686936 -0.122530 0.086147
v -0.685268 -0.130368 -0.138705
v -0.900526 -0.107351 -0.054552
v -0.695851 0.125079 -0.137703
v -0.924487 0.095357 -0.052283
v -0.697238 0.006331 0.083776
v -0.900009 0.014323 0.118303
v -0.635286 0.006331 -0.361794
v -0.857518 0.014323 -0.228306
v -0.376000 0.301690 0.944107
v -0.355229 0.012346 0.861561
v -0.622504 0.301690 0.907061
v -0.606664 0.012346 0.817116
v -0.480657 0.011031 0.865211
v -0.498962 0.303308 0.951456
v -0.622504 0.167621 0.907061
v -0.376000 0.167621 0.944107
v -0.002513 0.307242 1.011811
v -0.004617 0.018296 0.924517
v -0.245206 0.307242 1.030967
v -0.252035 0.018296 0.946804
v -0.128036 0.017096 0.961533
v -0.123569 0.308718 1.047262
v -0.245206 0.173128 1.030968
v -0.002513 0.173128 1.011811
v 0.298632 0.303266 0.901421
v 0.298895 0.014249 0.806597
v 0.076495 0.303266 0.943979
v 0.072500 0.014249 0.856706
v 0.185988 0.013149 0.857524
v 0.187853 0.304620 0.948572
v 0.076495 0.169113 0.943979
v 0.298632 0.169113 0.901421
v 0.608831 0.294619 0.662503
v 0.610369 0.005942 0.549671
v 0.387791 0.294619 0.761065
v 0.385100 0.005942 0.666274
v 0.498024 0.004359 0.633844
v 0.498601 0.296567 0.737656
v 0.387791 0.160653 0.761065
v 0.608831 0.160653 0.662503
vn 0.3312 0.9301 -0.1589
vn 0.3491 0.9336 -0.0806
vn 0.9779 -0.0000 -0.2091
vn -0.3458 -0.7787 -0.5235
vn -0.7157 -0.0693 -0.6949
vn -0.5485 -0.0186 -0.8359
vn -0.0160 -0.9970 0.0760
vn -0.4917 0.8570 0.1542
vn -0.2703 -0.9526 0.1397
vn 0.0057 0.9985 -0.0540
vn -0.2474 0.9547 -0.1652
vn -0.1603 0.9845 -0.0716
vn -0.0014 0.9980 -0.0627
vn -0.0129 0.9982 -0.0579
vn -0.0195 0.9978 -0.0629
vn -0.0009 0.9983 -0.0579
vn -0.0047 0.9985 -0.0537
vn -0.0069 0.9984 -0.0556
vn -0.0028 0.9986 -0.0526
vn -0.0011 0.9983 -0.0584
vn 0.0014 0.9986 -0.0526
vn 0.5572 0.3897 0.7332
vn 0.0342 -0.9961 0.0808
vn 0.0492 -0.9953 0.0833
vn 0.2907 0.3205 0.9015
vn 0.0121 -0.9972 0.0743
vn 0.0172 -0.9969 0.0761
vn 0.0063 -0.9974 0.0720
vn -0.0036 0.9975 0.0702
vn -0.0062 -0.9971 0.0752
vn -0.0004 -1.0000 0.0013
vn 0.0001 -1.0000 -0.0013
vn 0.0007 -1.0000 -0.0002
vn 0.0004 -1.0000 -0.0015
vn 0.0023 -1.0000 0.0017
vn 0.0018 -1.0000 -0.0011
vn -0.0063 0.9974 -0.0720
vn 0.0015 0.9996 -0.0285
vn -0.0060 0.9989 -0.0467
vn -0.0152 0.9988 -0.0471
vn -0.0121 0.9972 -0.0743
vn -0.0068 0.9995 -0.0296
vn -0.0376 0.9981 -0.0495
vn -0.0342 0.9961 -0.0808
vn -0.0144 0.9995 -0.0295
vn 0.0160 0.9970 -0.0760
vn -0.0905 0.9954 -0.0304
vn 0.0133 0.9987 -0.0489
vn -0.0004 -1.0000 -0.0013
vn -0.1579 -0.9870 -0.0310
vn -0.3574 0.9336 0.0248
vn -0.2982 0.9545 -0.0009
vn -0.8683 -0.0051 0.4961
vn 0.3458 0.9244 -0.1607
vn 0.9627 -0.0000 -0.2706
vn -0.0000 1.0000 -0.0000
vn -0.2474 0.3269 0.9121
vn 0.5639 0.8254 0.0274
vn 0.0617 0.9962 -0.0622
vn 0.0360 0.9966 0.0737
vn 0.0181 0.9967 0.0790
vn 0.1205 0.3047 0.9448
vn -0.1635 0.7688 0.6183
vn 0.0560 0.9704 0.2348
vn 0.1686 0.9857 -0.0011
vn -0.1456 0.9864 -0.0762
vn -0.1770 0.9699 0.1670
vn 0.5957 0.5693 0.5666
vn 0.0006 -0.5213 0.8534
vn 0.6875 -0.3428 0.6402
vn 0.2174 0.9715 0.0941
vn 0.1409 0.9874 -0.0724
vn -0.1729 0.9848 0.0157
vn 0.0377 0.9697 0.2415
vn -0.6678 0.6357 0.3871
vn -0.0078 0.9953 0.0969
vn -0.2997 0.9539 -0.0131
vn 0.1854 0.9702 0.1558
vn 0.1512 0.9870 -0.0551
vn -0.1701 0.9851 -0.0243
vn -0.0669 0.9684 0.2402
vn 0.2593 -0.9632 0.0708
vn -0.0098 -0.9995 0.0306
vn 0.5715 -0.7797 0.2560
vn 0.1604 0.9695 0.1852
vn 0.1572 0.9868 -0.0384
vn -0.1623 0.9858 -0.0430
vn -0.1229 0.9677 0.2201
vn -0.7874 -0.4132 0.4575
vn 0.9601 -0.0061 0.2797
vn 0.2763 0.9548 0.1095
vn -0.9784 0.0063 -0.2066
vn -0.3017 -0.9534 0.0008
vn -0.6050 -0.7941 -0.0577
vn 0.0089 -0.5769 0.8168
vn -0.6284 0.5243 0.5747
vn -0.6647 -0.4649 0.5849
vn 0.7883 -0.4011 0.4667
vn 0.7066 -0.7012 -0.0954
vn 0.9758 0.0505 -0.2128
vn 0.0358 0.9942 0.1016
vn 0.7046 0.5904 0.3936
vn 0.3032 0.9521 -0.0394
vn -0.9461 -0.0498 0.3199
vn -0.2484 0.9558 0.1573
vn 0.0225 -0.9995 0.0215
vn -0.2376 -0.9703 0.0457
vn -0.5352 -0.7966 0.2811
vn 0.0098 -0.5387 0.8425
vn -0.6233 0.6140 0.4842
vn -0.7313 -0.3937 0.5570
vn 0.7710 -0.3865 0.5061
vn 0.6352 -0.7716 0.0346
vn 0.9975 0.0137 -0.0694
vn 0.0169 0.9954 0.0945
vn 0.6495 0.6291 0.4270
vn 0.3020 0.9533 0.0023
vn -0.9923 -0.0131 0.1234
vn -0.2843 0.9549 0.0858
vn 0.0102 -0.9994 0.0336
vn -0.2768 -0.9593 0.0558
vn -0.5722 -0.8051 0.1559
vn 0.0112 -0.5214 0.8533
vn -0.6131 0.6545 0.4424
vn -0.7577 -0.3538 0.5484
vn 0.7389 -0.3969 0.5445
vn 0.5843 -0.8041 0.1100
vn 0.9992 -0.0119 0.0385
vn 0.0080 0.9963 0.0851
vn 0.6092 0.6454 0.4608
vn 0.3000 0.9534 0.0317
vn -0.9999 0.0131 0.0088
vn -0.2952 0.9543 0.0465
vn 0.0040 -0.9992 0.0406
vn -0.3108 -0.9485 0.0611
vn -0.5826 -0.8088 0.0798
vn 0.0182 0.9973 -0.0706
vn 0.0062 0.9971 -0.0752
vn -0.0007 0.9982 -0.0600
vn 0.2783 -0.9591 0.0519
vn 0.0988 0.7333 0.6726
vn -0.0087 0.9976 -0.0692
vn -0.0010 0.9983 -0.0577
vn 0.2929 -0.9560 0.0146
vn 0.2172 0.7504 0.6243
vn -0.0216 0.9975 -0.0680
vn -0.0172 0.9969 -0.0761
vn -0.0008 0.9982 -0.0596
vn 0.3084 -0.9500 -0.0497
vn 0.3933 0.7765 0.4923
vn -0.0433 0.9975 -0.0560
vn -0.0492 0.9953 -0.0833
vn 0.3790 -0.9254 0.0066
vn 0.3276 -0.9402 -0.0937
vn 0.3194 0.9386 -0.1307
vn -0.9763 0.2076 -0.0605
vn -0.9353 -0.3526 -0.0291
vn 0.2077 0.0325 0.9777
vn -0.5004 0.6609 0.5594
vn -0.4445 0.0252 0.8954
vn -0.3342 0.9408 -0.0566
vn -0.7313 0.6171 -0.2903
vn 0.1373 -0.9905 -0.0019
vn 0.0296 -0.7824 0.6221
vn -0.0837 -0.9965 0.0071
vn -0.0531 -0.8545 -0.5168
vn -0.1857 0.9315 0.3127
vn 0.3338 -0.9377 -0.0964
vn -0.0006 -0.9996 -0.0270
vn -0.0003 -0.9997 -0.0233
vn -0.0005 -0.9998 -0.0216
vn -0.0006 -0.9998 -0.0215
vn -0.0003 -0.9998 -0.0211
vn -0.0003 -0.9997 -0.0237
vn -0.0007 -0.9998 -0.0222
vn 0.9826 0.0116 -0.1856
vn -0.2705 -0.9539 -0.1302
vn -0.3225 -0.8762 -0.3582
vn -0.0527 -0.9335 -0.3546
vn -0.0521 0.9080 -0.4157
vn -0.0259 -0.9387 -0.3438
vn -0.0037 -0.9398 -0.3418
vn -0.8646 0.0086 -0.5024
vn -0.3540 0.8400 -0.4113
vn -0.7049 0.0081 -0.7093
vn -0.0007 0.9984 -0.0573
vn -0.0261 0.9143 -0.4041
vn -0.0428 0.9113 -0.4095
vn 0.0428 0.9086 -0.4156
vn 0.0173 0.9146 -0.4041
vn 0.0338 0.9117 -0.4094
vn 0.7210 0.0084 -0.6929
vn -0.0431 -0.9362 -0.3489
vn 0.0354 -0.9365 -0.3489
vn 0.0459 -0.9343 -0.3534
vn 0.3310 -0.8752 -0.3528
vn 0.0184 -0.9388 -0.3439
vn -0.0044 0.9157 -0.4019
vn 0.3646 0.8382 -0.4056
vn 0.1905 -0.7572 0.6248
vn 0.0189 -0.9884 0.1504
vn 0.0110 -0.9827 0.1851
vn 0.0050 -0.9808 0.1951
vn 0.0072 -0.9836 0.1804
vn -0.3572 0.9340 0.0085
vn 0.3590 0.9333 0.0099
vn -0.3552 0.9326 0.0636
vn 0.3537 0.9345 -0.0403
vn -0.3295 0.9293 0.1667
vn 0.3328 0.9368 -0.1081
vn -0.3496 0.9339 -0.0748
vn 0.3437 0.9332 0.1047
vn -0.3287 0.9015 -0.2815
vn -0.4539 0.7724 -0.4443
vn -0.5426 -0.0131 -0.8399
vn -0.3204 -0.8760 0.3605
vn -0.2055 0.0110 0.9786
vn -0.3592 0.8772 0.3187
vn -0.5010 -0.7148 -0.4879
vn -0.2427 -0.9673 -0.0736
vn -0.2129 0.9762 -0.0415
vn -0.0041 0.7415 0.6709
vn 0.0183 0.7209 0.6928
vn 0.0099 0.7500 0.6613
vn 0.0052 0.7685 0.6398
vt 0.492578 0.414604
vt 0.369455 0.492578
vt 0.369455 0.414604
vt 0.246332 0.000086
vt 0.369455 0.000086
vt 0.168358 0.708043
vt 0.246332 0.738823
vt 0.168358 0.738823
vt 0.654687 0.708043
vt 0.738823 0.738823
vt 0.654687 0.738823
vt 0.738823 0.523358
vt 0.654687 0.554139
vt 0.654687 0.523358
vt 0.738823 0.584920
vt 0.654687 0.615700
vt 0.654687 0.584920
vt 0.654687 0.646481
vt 0.738823 0.677262
vt 0.654687 0.677262
vt 0.246332 0.523358
vt 0.168358 0.554139
vt 0.168358 0.523358
vt 0.246332 0.584920
vt 0.168358 0.615700
vt 0.168358 0.584920
vt 0.168358 0.646481
vt 0.246332 0.677262
vt 0.168358 0.677262
vt 0.084222 0.677262
vt 0.084222 0.646481
vt 0.084222 0.615700
vt 0.084222 0.584920
vt 0.084222 0.554139
vt 0.084222 0.523358
vt 0.570551 0.646481
vt 0.492578 0.677262
vt 0.492578 0.646481
vt 0.492578 0.584920
vt 0.570551 0.615700
vt 0.492578 0.615700
vt 0.492578 0.523358
vt 0.570551 0.554139
vt 0.492578 0.554139
vt 0.570551 0.708043
vt 0.492578 0.738823
vt 0.492578 0.708043
vt 0.084222 0.708043
vt 0.084222 0.738823
vt 0.369455 0.738823
vt 0.492578 0.816797
vt 0.369455 0.816797
vt 0.492577 0.330468
vt 0.369455 0.330468
vt 0.369455 0.677262
vt 0.246332 0.708043
vt 0.246332 0.492578
vt 0.492578 0.492578
vt 0.369455 0.554139
vt 0.246332 0.554139
vt 0.369455 0.615700
vt 0.246332 0.615700
vt 0.246332 0.646481
vt 0.369455 0.708042
vt 0.492578 0.708043
vt 0.492578 0.738823
vt 0.246332 0.677262
vt 0.246332 0.708043
vt 0.369455 0.677262
vt 0.492577 0.677262
vt 0.246332 0.738823
vt 0.369455 0.523358
vt 0.246332 0.492577
vt 0.369455 0.492578
vt 0.492578 0.492578
vt 0.369455 0.554139
vt 0.492578 0.554139
vt 0.246332 0.554139
vt 0.369455 0.584920
vt 0.369455 0.554139
vt 0.246332 0.554139
vt 0.369455 0.615700
vt 0.246332 0.615700
vt 0.369455 0.646481
vt 0.369455 0.615700
vt 0.369455 0.615700
vt 0.246332 0.646481
vt 0.246332 0.677262
vt 0.570551 0.677262
vt 0.738823 0.708043
vt 0.246332 0.615700
vt 0.738823 0.646481
vt 0.570551 0.584920
vt 0.738823 0.554139
vt 0.246332 0.492577
vt 0.570551 0.523358
vt 0.168358 0.492578
vt 0.084222 0.492578
vt 0.738823 0.492578
vt 0.654687 0.492578
vt 0.492578 0.900933
vt 0.369455 0.985069
vt 0.369455 0.900933
vt 0.369455 0.816797
vt 0.369455 0.816797
vt 0.654687 0.738823
vt 0.654687 0.738823
vt 0.084222 0.738823
vt 0.000086 0.738823
vt 0.000086 0.738823
vt 0.570551 0.738823
vt 0.570551 0.492578
vt 0.000086 0.492578
vt 0.000086 0.523358
vt 0.000086 0.554139
vt 0.000086 0.584920
vt 0.000086 0.646481
vt 0.000086 0.615700
vt 0.000086 0.708043
vt 0.000086 0.677262
vt 0.492578 0.246332
vt 0.369455 0.246332
vt 0.492578 0.000086
vt 0.738823 0.615700
vt 0.246332 0.246332
vt 0.246332 0.330468
vt 0.246332 0.816797
vt 0.229225 0.906204
vt 0.246332 0.816797
vt 0.229438 0.999914
vt 0.246332 0.708042
vt 0.246332 0.414604
vt 0.246332 0.816797
vt 0.369455 0.816797
vt 0.570551 0.738823
vt 0.168358 0.738823
vt 0.492578 0.584920
vt 0.492577 0.646481
vt 0.492578 0.985069
s 1
usemtl マテリアル.001
f 22/1/1 195/2/2 201/3/3
f 245/4/4 238/5/5 259/5/6
f 100/6/7 5/7/8 23/8/9
f 166/9/10 2/10/11 156/11/12
f 137/12/13 162/13/14 172/14/15
f 124/15/16 163/16/17 170/17/18
f 168/18/19 12/19/20 164/20/21
f 138/21/22 28/22/23 141/23/24
f 125/24/25 29/25/26 127/26/27
f 113/27/28 15/28/29 30/29/30
f 113/27/28 159/30/31 167/31/32
f 127/26/27 158/32/33 169/33/34
f 141/23/24 157/34/35 171/35/36
f 114/36/37 20/37/38 112/38/39
f 126/39/40 26/40/41 19/41/42
f 140/42/43 25/43/44 18/44/45
f 99/45/46 6/46/47 96/47/48
f 165/48/49 23/8/9 161/49/50
f 196/50/51 24/51/52 200/52/53
f 160/53/54 201/3/3 241/54/55
f 199/55/56 31/28/56 15/28/29
f 96/47/48 32/37/56 20/37/38
f 196/50/51 33/46/56 6/46/47
f 98/56/57 34/7/56 5/7/8
f 195/2/2 35/57/56 7/57/58
f 140/42/43 36/58/56 8/58/59
f 197/59/56 37/44/56 18/44/45
f 138/21/22 38/60/56 17/60/60
f 197/59/56 39/60/56 17/60/60
f 126/39/40 40/44/56 18/44/45
f 198/61/56 41/41/56 19/41/42
f 125/24/25 42/62/56 16/62/61
f 198/61/56 43/62/56 16/62/61
f 112/38/39 44/41/56 19/41/42
f 199/55/56 45/37/56 20/37/38
f 111/63/62 46/28/56 15/28/29
f 202/55/56 47/28/56 31/28/56
f 101/47/56 48/37/56 32/37/56
f 203/50/56 49/46/56 33/46/56
f 102/56/56 50/7/56 34/7/56
f 204/2/56 51/57/56 35/57/56
f 143/42/56 52/58/56 36/58/56
f 205/59/56 53/44/56 37/44/56
f 144/21/56 54/60/56 38/60/56
f 206/59/56 55/60/56 39/60/56
f 129/39/56 56/44/56 40/44/56
f 207/61/56 57/41/56 41/41/56
f 130/24/56 58/62/56 42/62/56
f 208/61/56 59/62/56 43/62/56
f 115/38/56 60/41/56 44/41/56
f 209/55/56 61/37/56 45/37/56
f 116/63/56 62/28/56 46/28/56
f 47/28/56 106/56/63 104/56/56
f 210/55/56 63/28/64 47/28/56
f 103/47/56 64/37/65 48/37/56
f 211/50/56 65/46/66 49/46/56
f 104/56/56 66/7/67 50/7/56
f 80/37/68 234/64/69 226/55/70
f 212/2/56 67/57/71 51/57/56
f 145/42/56 68/58/72 52/58/56
f 213/59/56 69/44/73 53/44/56
f 146/21/56 70/60/74 54/60/56
f 81/46/75 265/65/76 262/66/77
f 214/59/56 71/60/78 55/60/56
f 131/39/56 72/44/79 56/44/56
f 215/61/56 73/41/80 57/41/56
f 132/24/56 74/62/81 58/62/56
f 79/67/82 264/68/83 261/28/84
f 216/61/56 75/62/85 59/62/56
f 117/38/56 76/41/86 60/41/56
f 217/55/56 77/37/87 61/37/56
f 118/63/56 78/28/88 62/28/56
f 234/64/69 81/46/75 227/50/89
f 226/55/70 261/28/84 267/69/90
f 265/65/76 80/37/68 260/70/91
f 266/50/92 81/46/75 262/66/77
f 264/68/83 82/71/93 263/71/94
f 237/72/95 85/44/96 229/59/97
f 228/2/98 285/73/99 291/74/100
f 289/42/101 84/58/102 284/75/103
f 290/76/104 85/44/96 286/77/105
f 288/21/106 86/60/107 287/78/108
f 236/79/109 89/41/110 231/61/111
f 230/80/112 277/81/113 283/80/114
f 281/39/115 88/44/116 276/77/117
f 282/82/118 89/41/110 278/41/119
f 280/24/120 90/62/121 279/83/122
f 235/84/123 93/37/124 233/55/125
f 232/85/126 269/62/127 275/86/128
f 273/38/129 92/41/130 268/41/131
f 274/55/132 93/37/124 270/37/133
f 272/87/134 94/88/135 271/67/136
f 49/46/56 105/47/137 103/47/56
f 31/28/56 104/56/56 102/56/56
f 33/46/56 103/47/56 101/47/56
f 15/28/29 102/56/56 98/56/57
f 6/46/47 101/47/56 96/47/48
f 159/30/31 100/6/7 165/48/49
f 27/89/138 96/47/48 20/37/38
f 164/20/21 97/90/139 166/9/10
f 30/29/30 98/56/57 100/6/7
f 91/91/140 272/87/134 269/62/127
f 93/37/124 273/38/129 270/37/133
f 92/41/130 235/84/123 232/85/126
f 59/62/56 120/63/141 118/63/56
f 61/37/56 119/38/142 117/38/56
f 43/62/56 118/63/56 116/63/56
f 45/37/56 117/38/56 115/38/56
f 16/62/61 116/63/56 111/63/62
f 20/37/38 115/38/56 112/38/39
f 26/40/41 112/38/39 19/41/42
f 29/25/26 167/31/32 158/32/33
f 29/25/26 111/63/62 113/27/28
f 163/16/17 110/92/143 168/18/19
f 87/60/144 280/24/120 277/81/113
f 89/41/110 281/39/115 278/41/119
f 88/44/116 236/79/109 230/80/112
f 55/60/56 134/24/145 132/24/56
f 57/41/56 133/39/146 131/39/56
f 39/60/56 132/24/56 130/24/56
f 41/41/56 131/39/56 129/39/56
f 17/60/60 130/24/56 125/24/25
f 19/41/42 129/39/56 126/39/40
f 18/44/45 128/93/147 126/39/40
f 28/22/23 169/33/34 157/34/35
f 17/60/60 127/26/27 28/22/23
f 14/94/148 170/17/18 162/13/14
f 83/95/149 288/21/106 285/73/99
f 85/44/96 289/42/101 286/77/105
f 84/58/102 237/72/95 228/2/98
f 51/57/56 148/21/150 146/21/56
f 53/44/56 147/42/151 145/42/56
f 35/57/56 146/21/56 144/21/56
f 37/44/56 145/42/56 143/42/56
f 7/57/58 144/21/56 138/21/22
f 18/44/45 143/42/56 140/42/43
f 8/58/59 142/96/152 140/42/43
f 21/97/153 171/35/36 155/98/154
f 7/57/58 141/23/24 21/97/153
f 4/99/155 172/14/15 160/100/54
f 173/101/156 238/102/5 240/103/157
f 257/104/158 153/51/159 239/105/160
f 255/106/161 152/10/162 173/107/156
f 253/108/163 154/8/164 174/49/165
f 253/108/163 151/109/166 245/110/4
f 255/106/161 153/111/159 249/111/167
f 239/105/160 173/101/156 240/103/157
f 22/112/1 172/14/15 142/96/152
f 3/113/168 171/35/36 139/114/169
f 25/43/44 170/17/18 128/93/147
f 9/115/170 169/33/34 123/116/171
f 26/40/41 168/18/19 114/36/37
f 158/32/33 109/117/172 10/118/173
f 164/20/21 99/45/46 27/89/138
f 159/30/31 95/119/174 11/120/175
f 4/121/155 241/54/55 194/122/176
f 165/48/49 1/109/177 95/119/174
f 139/114/169 157/34/35 9/115/170
f 123/116/171 158/32/33 10/118/173
f 167/31/32 11/120/175 109/117/172
f 114/36/37 164/20/21 27/89/138
f 128/93/147 163/16/17 26/40/41
f 142/96/152 162/13/14 25/43/44
f 166/9/10 24/111/52 99/45/46
f 95/119/174 175/109/178 185/119/179
f 12/19/20 186/90/180 97/90/139
f 10/118/173 187/117/181 180/118/182
f 193/5/183 176/123/184 242/5/185
f 13/124/186 188/92/187 110/92/143
f 110/92/143 182/19/188 12/19/20
f 4/99/155 191/12/189 137/12/13
f 14/94/148 190/15/190 124/15/16
f 137/12/13 184/94/191 14/94/148
f 3/125/168 243/122/192 194/122/176
f 11/120/175 185/119/179 181/120/193
f 139/114/169 179/115/194 192/114/195
f 139/114/169 177/113/196 3/113/168
f 97/90/139 176/10/184 2/10/11
f 9/115/170 189/116/197 179/115/194
f 123/116/171 180/118/182 189/116/197
f 124/15/16 183/124/198 13/124/186
f 109/117/172 181/120/193 187/117/181
f 194/122/176 178/121/199 4/121/155
f 1/4/177 242/5/185 175/4/178
f 3/125/168 241/54/55 155/126/154
f 154/127/164 240/103/157 174/128/165
f 250/129/200 239/105/160 154/127/164
f 240/103/157 151/130/166 174/128/165
f 228/2/98 150/21/201 83/95/149
f 230/80/112 136/24/202 87/60/144
f 232/85/126 122/87/203 91/91/140
f 271/67/136 233/55/125 274/55/132
f 92/41/130 275/86/128 268/41/131
f 122/87/203 233/55/125 94/88/135
f 279/83/122 231/61/111 282/82/118
f 88/44/116 283/80/114 276/77/117
f 136/24/202 231/61/111 90/62/121
f 287/78/108 229/59/97 290/76/104
f 84/58/102 291/74/100 284/75/103
f 150/21/201 229/59/97 86/60/107
f 263/71/94 227/50/89 266/50/92
f 80/37/68 267/69/90 260/70/91
f 108/131/204 227/50/89 82/71/93
f 62/28/56 225/55/205 217/55/56
f 60/41/56 224/61/206 216/61/56
f 58/62/56 223/61/207 215/61/56
f 56/44/56 222/59/208 214/59/56
f 54/60/56 221/59/209 213/59/56
f 52/58/56 220/2/210 212/2/56
f 226/55/70 108/131/204 79/67/82
f 50/7/56 219/50/211 211/50/56
f 48/37/56 218/55/212 210/55/56
f 46/28/56 217/55/56 209/55/56
f 44/41/56 216/61/56 208/61/56
f 42/62/56 215/61/56 207/61/56
f 40/44/56 214/59/56 206/59/56
f 38/60/56 213/59/56 205/59/56
f 36/58/56 212/2/56 204/2/56
f 34/7/56 211/50/56 203/50/56
f 32/37/56 210/55/56 202/55/56
f 15/28/29 209/55/56 199/55/56
f 19/41/42 208/61/56 198/61/56
f 16/62/61 207/61/56 198/61/56
f 18/44/45 206/59/56 197/59/56
f 17/60/60 205/59/56 197/59/56
f 8/58/59 204/2/56 195/2/2
f 5/7/8 203/50/56 196/50/51
f 20/37/38 202/55/56 199/55/56
f 241/54/55 21/132/153 155/126/154
f 5/7/8 200/52/53 23/127/9
f 259/5/6 152/123/162 246/123/213
f 201/3/3 7/57/58 21/132/153
f 193/5/183 247/123/214 2/123/11
f 258/5/215 246/123/213 247/123/214
f 200/52/53 251/133/216 23/127/9
f 256/134/217 250/129/200 251/133/216
f 156/11/12 248/135/218 24/111/52
f 248/135/218 255/106/161 249/111/167
f 161/49/50 244/109/219 1/109/177
f 252/49/220 245/110/4 244/109/219
f 161/49/50 251/136/216 252/49/220
f 251/136/216 253/108/163 252/49/220
f 156/11/12 247/10/214 254/11/221
f 254/11/221 246/10/213 255/106/161
f 200/52/53 248/51/218 256/134/217
f 256/134/217 249/51/167 257/104/158
f 193/5/183 244/4/219 258/5/215
f 258/5/215 245/4/4 259/5/6
f 64/37/65 267/69/90 218/55/212
f 263/71/94 219/50/211 66/7/67
f 106/56/63 263/71/94 66/7/67
f 266/50/92 65/46/66 219/50/211
f 105/47/137 260/70/91 64/37/65
f 218/55/212 261/28/84 63/28/64
f 261/28/84 106/56/63 63/28/64
f 262/66/77 105/47/137 65/46/66
f 76/41/86 275/86/128 224/61/206
f 271/67/136 225/55/205 78/28/88
f 270/37/133 119/38/142 77/37/87
f 269/62/127 120/63/141 75/62/85
f 272/87/134 78/28/88 120/63/141
f 274/55/132 77/37/87 225/55/205
f 119/38/142 268/41/131 76/41/86
f 224/61/206 269/62/127 75/62/85
f 72/44/79 283/80/114 222/59/208
f 279/83/122 223/61/207 74/62/81
f 278/41/119 133/39/146 73/41/80
f 277/81/113 134/24/145 71/60/78
f 280/24/120 74/62/81 134/24/145
f 282/82/118 73/41/80 223/61/207
f 133/39/146 276/77/117 72/44/79
f 222/59/208 277/81/113 71/60/78
f 68/58/72 291/74/100 220/2/210
f 287/78/108 221/59/209 70/60/74
f 69/44/73 289/42/101 147/42/151
f 285/73/99 148/21/150 67/57/71
f 288/21/106 70/60/74 148/21/150
f 290/76/104 69/44/73 221/59/209
f 147/42/151 284/75/103 68/58/72
f 220/2/210 285/73/99 67/57/71
f 180/118/182 242/5/185 243/122/192
f 22/1/1 8/58/59 195/2/2
f 245/4/4 151/4/166 238/5/5
f 100/6/7 98/56/57 5/7/8
f 166/9/10 97/90/139 2/10/11
f 137/12/13 14/94/148 162/13/14
f 124/15/16 13/124/186 163/16/17
f 168/18/19 110/92/143 12/19/20
f 138/21/22 17/60/60 28/22/23
f 125/24/25 16/62/61 29/25/26
f 113/27/28 111/63/62 15/28/29
f 113/27/28 30/29/30 159/30/31
f 127/26/27 29/25/26 158/32/33
f 141/23/24 28/22/23 157/34/35
f 114/36/37 27/89/138 20/37/38
f 126/39/40 128/93/147 26/40/41
f 140/42/43 142/96/152 25/43/44
f 99/45/46 24/111/52 6/46/47
f 165/48/49 100/6/7 23/8/9
f 196/50/51 6/46/47 24/51/52
f 160/53/54 22/1/1 201/3/3
f 199/55/56 202/55/56 31/28/56
f 96/47/48 101/47/56 32/37/56
f 196/50/51 203/50/56 33/46/56
f 98/56/57 102/56/56 34/7/56
f 195/2/2 204/2/56 35/57/56
f 140/42/43 143/42/56 36/58/56
f 197/59/56 205/59/56 37/44/56
f 138/21/22 144/21/56 38/60/56
f 197/59/56 206/59/56 39/60/56
f 126/39/40 129/39/56 40/44/56
f 198/61/56 207/61/56 41/41/56
f 125/24/25 130/24/56 42/62/56
f 198/61/56 208/61/56 43/62/56
f 112/38/39 115/38/56 44/41/56
f 199/55/56 209/55/56 45/37/56
f 111/63/62 116/63/56 46/28/56
f 202/55/56 210/55/56 47/28/56
f 101/47/56 103/47/56 48/37/56
f 203/50/56 211/50/56 49/46/56
f 102/56/56 104/56/56 50/7/56
f 204/2/56 212/2/56 51/57/56
f 143/42/56 145/42/56 52/58/56
f 205/59/56 213/59/56 53/44/56
f 144/21/56 146/21/56 54/60/56
f 206/59/56 214/59/56 55/60/56
f 129/39/56 131/39/56 56/44/56
f 207/61/56 215/61/56 57/41/56
f 130/24/56 132/24/56 58/62/56
f 208/61/56 216/61/56 59/62/56
f 115/38/56 117/38/56 60/41/56
f 209/55/56 217/55/56 61/37/56
f 116/63/56 118/63/56 62/28/56
f 47/28/56 63/28/64 106/56/63
f 210/55/56 218/55/212 63/28/64
f 103/47/56 105/47/137 64/37/65
f 211/50/56 219/50/211 65/46/66
f 104/56/56 106/56/63 66/7/67
f 80/37/68 107/47/222 234/64/69
f 212/2/56 220/2/210 67/57/71
f 145/42/56 147/42/151 68/58/72
f 213/59/56 221/59/209 69/44/73
f 146/21/56 148/21/150 70/60/74
f 81/46/75 107/47/222 265/65/76
f 214/59/56 222/59/208 71/60/78
f 131/39/56 133/39/146 72/44/79
f 215/61/56 223/61/207 73/41/80
f 132/24/56 134/24/145 74/62/81
f 79/67/82 108/131/204 264/68/83
f 216/61/56 224/61/206 75/62/85
f 117/38/56 119/38/142 76/41/86
f 217/55/56 225/55/205 77/37/87
f 118/63/56 120/63/141 78/28/88
f 234/64/69 107/47/222 81/46/75
f 226/55/70 79/67/82 261/28/84
f 265/65/76 107/47/222 80/37/68
f 266/50/92 227/50/89 81/46/75
f 264/68/83 108/131/204 82/71/93
f 237/72/95 149/42/223 85/44/96
f 228/2/98 83/95/149 285/73/99
f 289/42/101 149/42/223 84/58/102
f 290/76/104 229/59/97 85/44/96
f 288/21/106 150/21/201 86/60/107
f 236/79/109 135/137/224 89/41/110
f 230/80/112 87/60/144 277/81/113
f 281/39/115 135/137/224 88/44/116
f 282/82/118 231/61/111 89/41/110
f 280/24/120 136/24/202 90/62/121
f 235/84/123 121/138/225 93/37/124
f 232/85/126 91/91/140 269/62/127
f 273/38/129 121/138/225 92/41/130
f 274/55/132 233/55/125 93/37/124
f 272/87/134 122/87/203 94/88/135
f 49/46/56 65/46/66 105/47/137
f 31/28/56 47/28/56 104/56/56
f 33/46/56 49/46/56 103/47/56
f 15/28/29 31/28/56 102/56/56
f 6/46/47 33/46/56 101/47/56
f 159/30/31 30/29/30 100/6/7
f 27/89/138 99/45/46 96/47/48
f 164/20/21 12/19/20 97/90/139
f 30/29/30 15/28/29 98/56/57
f 91/91/140 122/87/203 272/87/134
f 93/37/124 121/138/225 273/38/129
f 92/41/130 121/138/225 235/84/123
f 59/62/56 75/62/85 120/63/141
f 61/37/56 77/37/87 119/38/142
f 43/62/56 59/62/56 118/63/56
f 45/37/56 61/37/56 117/38/56
f 16/62/61 43/62/56 116/63/56
f 20/37/38 45/37/56 115/38/56
f 26/40/41 114/36/37 112/38/39
f 29/25/26 113/27/28 167/31/32
f 29/25/26 16/62/61 111/63/62
f 163/16/17 13/124/186 110/92/143
f 87/60/144 136/24/202 280/24/120
f 89/41/110 135/137/224 281/39/115
f 88/44/116 135/137/224 236/79/109
f 55/60/56 71/60/78 134/24/145
f 57/41/56 73/41/80 133/39/146
f 39/60/56 55/60/56 132/24/56
f 41/41/56 57/41/56 131/39/56
f 17/60/60 39/60/56 130/24/56
f 19/41/42 41/41/56 129/39/56
f 18/44/45 25/43/44 128/93/147
f 28/22/23 127/26/27 169/33/34
f 17/60/60 125/24/25 127/26/27
f 14/94/148 124/15/16 170/17/18
f 83/95/149 150/21/201 288/21/106
f 85/44/96 149/42/223 289/42/101
f 84/58/102 149/42/223 237/72/95
f 51/57/56 67/57/71 148/21/150
f 53/44/56 69/44/73 147/42/151
f 35/57/56 51/57/56 146/21/56
f 37/44/56 53/44/56 145/42/56
f 7/57/58 35/57/56 144/21/56
f 18/44/45 37/44/56 143/42/56
f 8/58/59 22/112/1 142/96/152
f 21/97/153 141/23/24 171/35/36
f 7/57/58 138/21/22 141/23/24
f 4/99/155 137/12/13 172/14/15
f 173/101/156 152/139/162 238/102/5
f 257/104/158 249/51/167 153/51/159
f 255/106/161 246/10/213 152/10/162
f 253/108/163 250/8/200 154/8/164
f 253/108/163 174/49/165 151/109/166
f 255/106/161 173/107/156 153/111/159
f 239/105/160 153/51/159 173/101/156
f 22/112/1 160/100/54 172/14/15
f 3/113/168 155/98/154 171/35/36
f 25/43/44 162/13/14 170/17/18
f 9/115/170 157/34/35 169/33/34
f 26/40/41 163/16/17 168/18/19
f 158/32/33 167/31/32 109/117/172
f 164/20/21 166/9/10 99/45/46
f 159/30/31 165/48/49 95/119/174
f 4/121/155 160/53/54 241/54/55
f 165/48/49 161/49/50 1/109/177
f 139/114/169 171/35/36 157/34/35
f 123/116/171 169/33/34 158/32/33
f 167/31/32 159/30/31 11/120/175
f 114/36/37 168/18/19 164/20/21
f 128/93/147 170/17/18 163/16/17
f 142/96/152 172/14/15 162/13/14
f 166/9/10 156/11/12 24/111/52
f 95/119/174 1/109/177 175/109/178
f 12/19/20 182/19/188 186/90/180
f 10/118/173 109/117/172 187/117/181
f 193/5/183 2/123/11 176/123/184
f 13/124/186 183/124/198 188/92/187
f 110/92/143 188/92/187 182/19/188
f 4/99/155 178/99/199 191/12/189
f 14/94/148 184/94/191 190/15/190
f 137/12/13 191/12/189 184/94/191
f 3/125/168 177/125/196 243/122/192
f 11/120/175 95/119/174 185/119/179
f 139/114/169 9/115/170 179/115/194
f 139/114/169 192/114/195 177/113/196
f 97/90/139 186/90/180 176/10/184
f 9/115/170 123/116/171 189/116/197
f 123/116/171 10/118/173 180/118/182
f 124/15/16 190/15/190 183/124/198
f 109/117/172 11/120/175 181/120/193
f 194/122/176 243/122/192 178/121/199
f 1/4/177 193/5/183 242/5/185
f 3/125/168 194/122/176 241/54/55
f 154/127/164 239/105/160 240/103/157
f 250/129/200 257/104/158 239/105/160
f 240/103/157 238/102/5 151/130/166
f 228/2/98 237/72/95 150/21/201
f 230/80/112 236/79/109 136/24/202
f 232/85/126 235/84/123 122/87/203
f 271/67/136 94/88/135 233/55/125
f 92/41/130 232/85/126 275/86/128
f 122/87/203 235/84/123 233/55/125
f 279/83/122 90/62/121 231/61/111
f 88/44/116 230/80/112 283/80/114
f 136/24/202 236/79/109 231/61/111
f 287/78/108 86/60/107 229/59/97
f 84/58/102 228/2/98 291/74/100
f 150/21/201 237/72/95 229/59/97
f 263/71/94 82/71/93 227/50/89
f 80/37/68 226/55/70 267/69/90
f 108/131/204 234/64/69 227/50/89
f 62/28/56 78/28/88 225/55/205
f 60/41/56 76/41/86 224/61/206
f 58/62/56 74/62/81 223/61/207
f 56/44/56 72/44/79 222/59/208
f 54/60/56 70/60/74 221/59/209
f 52/58/56 68/58/72 220/2/210
f 226/55/70 234/64/69 108/131/204
f 50/7/56 66/7/67 219/50/211
f 48/37/56 64/37/65 218/55/212
f 46/28/56 62/28/56 217/55/56
f 44/41/56 60/41/56 216/61/56
f 42/62/56 58/62/56 215/61/56
f 40/44/56 56/44/56 214/59/56
f 38/60/56 54/60/56 213/59/56
f 36/58/56 52/58/56 212/2/56
f 34/7/56 50/7/56 211/50/56
f 32/37/56 48/37/56 210/55/56
f 15/28/29 46/28/56 209/55/56
f 19/41/42 44/41/56 208/61/56
f 16/62/61 42/62/56 207/61/56
f 18/44/45 40/44/56 206/59/56
f 17/60/60 38/60/56 205/59/56
f 8/58/59 36/58/56 204/2/56
f 5/7/8 34/7/56 203/50/56
f 20/37/38 32/37/56 202/55/56
f 241/54/55 201/3/3 21/132/153
f 5/7/8 196/50/51 200/52/53
f 259/5/6 238/5/5 152/123/162
f 201/3/3 195/2/2 7/57/58
f 193/5/183 258/5/215 247/123/214
f 258/5/215 259/5/6 246/123/213
f 200/52/53 256/134/217 251/133/216
f 256/134/217 257/104/158 250/129/200
f 156/11/12 254/11/221 248/135/218
f 248/135/218 254/11/221 255/106/161
f 161/49/50 252/49/220 244/109/219
f 252/49/220 253/108/163 245/110/4
f 161/49/50 23/8/9 251/136/216
f 251/136/216 250/8/200 253/108/163
f 156/11/12 2/10/11 247/10/214
f 254/11/221 247/10/214 246/10/213
f 200/52/53 24/51/52 248/51/218
f 256/134/217 248/51/218 249/51/167
f 193/5/183 1/4/177 244/4/219
f 258/5/215 244/4/219 245/4/4
f 64/37/65 260/70/91 267/69/90
f 263/71/94 266/50/92 219/50/211
f 106/56/63 264/68/83 263/71/94
f 266/50/92 262/66/77 65/46/66
f 105/47/137 265/65/76 260/70/91
f 218/55/212 267/69/90 261/28/84
f 261/28/84 264/68/83 106/56/63
f 262/66/77 265/65/76 105/47/137
f 76/41/86 268/41/131 275/86/128
f 271/67/136 274/55/132 225/55/205
f 270/37/133 273/38/129 119/38/142
f 269/62/127 272/87/134 120/63/141
f 272/87/134 271/67/136 78/28/88
f 274/55/132 270/37/133 77/37/87
f 119/38/142 273/38/129 268/41/131
f 224/61/206 275/86/128 269/62/127
f 72/44/79 276/77/117 283/80/114
f 279/83/122 282/82/118 223/61/207
f 278/41/119 281/39/115 133/39/146
f 277/81/113 280/24/120 134/24/145
f 280/24/120 279/83/122 74/62/81
f 282/82/118 278/41/119 73/41/80
f 133/39/146 281/39/115 276/77/117
f 222/59/208 283/80/114 277/81/113
f 68/58/72 284/75/103 291/74/100
f 287/78/108 290/76/104 221/59/209
f 69/44/73 286/77/105 289/42/101
f 285/73/99 288/21/106 148/21/150
f 288/21/106 287/78/108 70/60/74
f 290/76/104 286/77/105 69/44/73
f 147/42/151 289/42/101 284/75/103
f 220/2/210 291/74/100 285/73/99
f 181/120/193 185/119/179 242/5/185
f 185/119/179 175/4/178 242/5/185
f 242/5/185 176/10/184 186/90/180
f 181/120/193 242/5/185 187/117/181
f 186/90/180 182/19/188 242/5/185
f 182/19/188 188/92/187 242/5/185
f 188/92/187 183/124/198 242/5/185
f 183/124/198 190/15/190 243/122/192
f 190/15/190 184/94/191 243/122/192
f 184/94/191 191/12/189 243/122/192
f 191/12/189 178/121/199 243/122/192
f 243/122/192 177/113/196 192/114/195
f 179/115/194 243/122/192 192/114/195
f 179/115/194 189/116/197 243/122/192
f 189/116/197 180/118/182 243/122/192
f 180/118/182 187/117/181 242/5/185
f 183/124/198 243/122/192 242/5/185
