# Blender 3.6.23
# www.blender.org
mtllib sumaho.mtl
o Cube
v 0.600000 0.950000 -0.100000
v 0.600000 -0.950000 -0.100000
v 0.600000 0.950000 0.100000
v 0.600000 -0.950000 0.100000
v -0.600000 0.950000 -0.100000
v -0.600000 -0.950000 -0.100000
v -0.600000 0.950000 0.100000
v -0.600000 -0.950000 0.100000
v -1.236176 -1.118922 0.515369
v -1.230807 -1.137452 0.109849
v -0.389169 -1.214156 0.533614
v -0.383799 -1.232686 0.128094
v -0.252082 0.254222 0.667618
v -0.264589 0.236762 0.216189
v 0.222851 -0.917978 0.699798
v 0.210344 -0.935438 0.248368
v -0.614653 -1.198989 0.529935
v -0.784793 -1.191430 0.529217
v -1.010692 -1.134088 0.519047
v -1.005322 -1.152619 0.113528
v -0.779424 -1.209961 0.123698
v -0.609284 -1.217520 0.124415
v 0.010500 0.039127 0.668662
v 0.159469 -0.248280 0.675651
v 0.246507 -0.545323 0.684729
v 0.234000 -0.562783 0.233300
v 0.146963 -0.265740 0.224222
v -0.002006 0.021667 0.217233
v -0.022795 -1.035817 0.644264
v -0.035302 -1.053277 0.192835
v -0.589091 0.063990 0.614853
v -0.601597 0.046530 0.163424
v -0.064118 -0.732875 0.181241
v -0.183399 -0.447387 0.173504
v -0.346954 -0.166275 0.167162
v -0.051611 -0.715415 0.632670
v -0.170893 -0.429927 0.624933
v -0.334448 -0.148815 0.618591
v 0.010500 0.039127 0.668662
v -0.002006 0.021667 0.217233
v -0.264589 0.236762 0.216189
v -0.252082 0.254222 0.667618
v 0.222851 -0.917978 0.699798
v 0.210344 -0.935438 0.248368
v 0.234000 -0.562783 0.233300
v 0.246507 -0.545323 0.684729
v 0.246507 -0.545323 0.684729
v 0.234000 -0.562783 0.233300
v 0.146963 -0.265740 0.224222
v 0.159469 -0.248280 0.675651
v 0.159469 -0.248280 0.675651
v 0.146963 -0.265740 0.224222
v -0.002006 0.021667 0.217233
v 0.010500 0.039127 0.668662
v 0.010500 0.039127 0.668662
v -0.002006 0.021667 0.217233
v -0.264589 0.236762 0.216189
v -0.252082 0.254222 0.667618
v 0.222851 -0.917978 0.699798
v 0.210344 -0.935438 0.248368
v 0.234000 -0.562783 0.233300
v 0.246507 -0.545323 0.684729
v 0.246507 -0.545323 0.684729
v 0.234000 -0.562783 0.233300
v 0.146963 -0.265740 0.224222
v 0.159469 -0.248280 0.675651
v 0.159469 -0.248280 0.675651
v 0.146963 -0.265740 0.224222
v -0.002006 0.021667 0.217233
v 0.010500 0.039127 0.668662
v 0.010500 0.039127 0.668662
v -0.002006 0.021667 0.217233
v -0.264589 0.236762 0.216189
v -0.252082 0.254222 0.667618
v 0.222851 -0.917978 0.699798
v 0.210344 -0.935438 0.248368
v 0.234000 -0.562783 0.233300
v 0.246507 -0.545323 0.684729
v 0.246507 -0.545323 0.684729
v 0.234000 -0.562783 0.233300
v 0.146963 -0.265740 0.224222
v 0.159469 -0.248280 0.675651
v 0.159469 -0.248280 0.675651
v 0.146963 -0.265740 0.224222
v -0.002006 0.021667 0.217233
v 0.010500 0.039127 0.668662
v 0.602347 0.742822 0.258960
v 0.704036 0.848419 -0.054114
v 0.555388 1.062754 -0.093145
v 0.432157 0.959989 0.255275
v 1.101235 -0.558035 0.304571
v 1.305606 -0.548489 0.011835
v 1.172648 -0.368784 -0.069074
v 0.998073 -0.348309 0.210189
v 1.142723 -0.037910 0.236792
v 1.300997 0.036837 -0.062946
v 1.167151 0.220770 -0.135804
v 1.016823 0.177916 0.231933
v 0.988592 0.431475 0.189110
v 1.137922 0.497637 -0.074742
v 0.992108 0.696209 -0.159384
v 0.841168 0.660006 0.184356
v -1.123434 -1.126505 0.517208
v -0.133298 0.129214 0.216711
v -1.118065 -1.145035 0.111689
v -0.120791 0.146675 0.668140
v -0.455219 -0.064367 0.166220
v -0.442712 -0.046907 0.617649
v -0.133298 0.129214 0.216711
v -0.120791 0.146675 0.668140
v -0.133298 0.129214 0.216711
v -0.120791 0.146675 0.668140
v -0.133298 0.129214 0.216711
v -0.120791 0.146675 0.668140
v 0.680842 0.988998 -0.084880
v 0.568472 0.886455 0.257497
v -0.897950 -1.141671 0.520887
v -0.892580 -1.160202 0.115367
v 0.084985 -0.104577 0.672157
v 0.072478 -0.122037 0.220728
v -0.252670 -0.289371 0.621762
v -0.265177 -0.306831 0.170333
v 0.072478 -0.122037 0.220728
v 0.084985 -0.104577 0.672157
v 0.072478 -0.122037 0.220728
v 0.084985 -0.104577 0.672157
v 0.072478 -0.122037 0.220728
v 0.084985 -0.104577 0.672157
v 1.116377 0.627435 -0.133963
v 0.966092 0.580779 0.186837
v -0.727395 -1.191406 0.528096
v -0.722026 -1.209937 0.122576
v 0.202988 -0.396801 0.680190
v 0.190481 -0.414262 0.228761
v -0.111252 -0.572671 0.628802
v -0.123758 -0.590131 0.177372
v 0.190481 -0.414262 0.228761
v 0.202988 -0.396801 0.680190
v 0.190481 -0.414262 0.228761
v 0.202988 -0.396801 0.680190
v 0.190481 -0.414262 0.228761
v 0.202988 -0.396801 0.680190
v 1.285406 0.159832 -0.115342
v 1.130979 0.105032 0.234228
v -0.496541 -1.225103 0.126255
v 0.234679 -0.731650 0.692263
v -0.501911 -1.206573 0.531774
v 0.222172 -0.749110 0.240834
v -0.037203 -0.875616 0.638467
v -0.049710 -0.893076 0.187038
v 0.222172 -0.749110 0.240834
v 0.234679 -0.731650 0.692263
v 0.222172 -0.749110 0.240834
v 0.234679 -0.731650 0.692263
v 0.222172 -0.749110 0.240834
v 0.234679 -0.731650 0.692263
v 1.290515 -0.428917 -0.047057
v 1.101036 -0.419983 0.246659
v -1.019123 0.451000 0.197745
v -1.034145 0.522095 0.055238
v -0.825099 0.666593 0.003546
v -0.784251 0.634040 0.184797
v -0.309859 -1.164309 0.551180
v -0.870564 -0.221088 0.077782
v -0.395294 -0.900290 0.543335
v -0.525962 -0.653728 0.537419
v -0.678766 -0.409354 0.532201
v -0.322366 -1.181769 0.099751
v -0.858058 -0.203628 0.529211
v -0.407801 -0.917750 0.091906
v -0.538468 -0.671188 0.085990
v -0.691273 -0.426814 0.080772
v -0.768412 -0.306491 0.530706
v -0.780919 -0.323951 0.079277
v -0.602364 -0.531541 0.534810
v -0.614870 -0.549001 0.083381
v -0.460628 -0.777009 0.540377
v -0.473135 -0.794469 0.088948
v -0.352576 -1.032300 0.547258
v -0.365083 -1.049760 0.095829
v -0.950770 0.671671 0.051511
v -0.926036 0.627842 0.249036
v -1.156615 -2.904013 0.612295
v -1.152651 -2.917695 0.312880
v -0.490670 -2.948805 0.623160
v -0.486706 -2.962487 0.323745
v -0.647942 -2.937851 0.628981
v -0.823810 -2.925833 0.630346
v -0.999565 -2.914201 0.623245
v -0.995379 -2.928649 0.307059
v -0.819511 -2.940668 0.305694
v -0.643756 -2.952300 0.312795
v -1.080600 -2.908933 0.617835
v -1.076522 -2.923008 0.309822
v -0.913408 -2.919858 0.627722
v -0.909140 -2.934587 0.305394
v -0.734181 -2.931913 0.630646
v -0.729913 -2.946642 0.308318
v -0.562721 -2.957567 0.318205
v -0.566799 -2.943492 0.626218
v -1.233492 -1.128187 0.312609
v -0.386484 -1.223421 0.330854
v 0.216598 -0.926708 0.474083
v -0.258335 0.245492 0.441903
v 0.240254 -0.554053 0.459014
v 0.153216 -0.257010 0.449937
v 0.004247 0.030397 0.442948
v -0.595344 0.055260 0.389139
v -0.029048 -1.044547 0.418549
v 0.004247 0.030397 0.442948
v -0.258335 0.245492 0.441903
v 0.216598 -0.926708 0.474083
v 0.240254 -0.554053 0.459014
v 0.240254 -0.554053 0.459014
v 0.153216 -0.257010 0.449937
v 0.153216 -0.257010 0.449937
v 0.004247 0.030397 0.442948
v 0.004247 0.030397 0.442948
v -0.258335 0.245492 0.441903
v 0.216598 -0.926708 0.474083
v 0.240254 -0.554053 0.459014
v 0.240254 -0.554053 0.459014
v 0.153216 -0.257010 0.449937
v 0.153216 -0.257010 0.449937
v 0.004247 0.030397 0.442948
v 0.004247 0.030397 0.442948
v -0.258335 0.245492 0.441903
v 0.216598 -0.926708 0.474083
v 0.240254 -0.554053 0.459014
v 0.240254 -0.554053 0.459014
v 0.153216 -0.257010 0.449937
v 0.153216 -0.257010 0.449937
v 0.004247 0.030397 0.442948
v 0.705568 0.866503 0.039354
v 0.556920 1.080838 0.000323
v 1.305534 -0.509546 0.098448
v 1.172576 -0.329841 0.017539
v 1.301219 0.072116 0.025707
v 1.167374 0.256048 -0.047151
v 1.137978 0.535049 0.012930
v 0.992165 0.733621 -0.071712
v 0.682436 1.007818 0.012393
v 1.116436 0.666235 -0.043037
v 1.285635 0.196310 -0.023676
v 1.290440 -0.388060 0.043813
v -1.046988 0.516850 0.098482
v -0.822430 0.669603 0.088098
v -0.948347 0.674471 0.159544
v -0.316112 -1.173039 0.325465
v -1.202605 -2.907628 0.461805
v -0.440716 -2.958873 0.474235
v -1.137396 -0.255224 0.446557
v -1.047894 0.262989 0.348065
v -1.016850 0.273169 0.103085
v -1.148300 -0.252360 0.166737
v -0.670014 0.230521 0.119067
v -0.713157 0.406699 0.069909
v -0.685153 0.396874 0.312279
v -0.652145 0.233859 0.424630
v -0.847021 0.080517 0.447848
v -0.832095 0.325101 0.343746
v -0.861780 0.079764 0.141958
v -0.853057 0.340778 0.100636
v -0.665822 0.236374 0.270383
v -0.709891 0.411258 0.187777
v -1.144470 -0.247012 0.305007
v -1.040188 0.279528 0.216995
v 0.391546 0.434105 0.249897
v 0.334479 0.370495 0.600914
v 0.185804 0.650475 0.247228
v 0.118093 0.586627 0.598550
v 0.251896 0.496086 0.599921
v 0.314188 0.559679 0.245243
v 0.190248 0.656679 0.407638
v 0.395990 0.440309 0.410307
v 0.695765 0.109668 0.240523
v 0.618308 0.065220 0.590887
v 0.547747 0.360854 0.234908
v 0.470112 0.323189 0.585015
v 0.569816 0.211724 0.588003
v 0.647274 0.252657 0.234565
v 0.552193 0.367060 0.395372
v 0.700211 0.115875 0.400987
v 0.792212 -0.233936 0.193451
v 0.709000 -0.285868 0.544349
v 0.681266 0.013141 0.186968
v 0.602532 -0.029434 0.537380
v 0.681369 -0.140137 0.540797
v 0.762260 -0.092996 0.187206
v 0.685713 0.019350 0.347479
v 0.796658 -0.227728 0.353961
v 0.748159 -0.717866 0.196933
v 0.648156 -0.783417 0.548415
v 0.692877 -0.433446 0.187464
v 0.607657 -0.482474 0.537898
v 0.653525 -0.615408 0.543667
v 0.746020 -0.558282 0.188484
v 0.697318 -0.427246 0.347750
v 0.752600 -0.711666 0.357219
vn -0.0000 1.0000 -0.0000
vn -0.0000 -0.0000 1.0000
vn -1.0000 -0.0000 -0.0000
vn -0.0000 -1.0000 -0.0000
vn 1.0000 -0.0000 -0.0000
vn -0.0000 -0.0000 -1.0000
vn 0.4151 -0.9095 0.0237
vn 0.5120 -0.7102 0.4832
vn 0.2993 -0.6316 0.7152
vn -0.9929 0.1182 -0.0158
vn -0.8249 0.2862 0.4874
vn -0.9748 0.2197 0.0395
vn -0.1213 -0.1206 0.9853
vn -0.1664 0.1945 0.9667
vn -0.2707 0.4407 0.8559
vn 0.0740 0.0523 -0.9959
vn -0.6895 -0.0224 -0.7239
vn -0.0906 0.0943 -0.9914
vn 0.1029 -0.0487 -0.9935
vn -0.0041 -0.0953 -0.9954
vn 0.1080 -0.0154 -0.9940
vn 0.0857 0.0053 -0.9963
vn -0.0011 -0.0852 -0.9964
vn 0.0942 0.0116 -0.9955
vn 0.0896 0.0192 -0.9958
vn -0.0078 -0.0753 -0.9971
vn 0.0847 0.0384 -0.9957
vn -0.1058 0.0126 0.9943
vn -0.2027 -0.0172 0.9791
vn -0.2409 0.0080 0.9705
vn -0.0738 -0.0159 0.9971
vn -0.1624 -0.0558 0.9851
vn -0.1772 -0.0475 0.9830
vn -0.1530 -0.0665 0.9860
vn -0.0341 -0.0201 0.9992
vn -0.1333 -0.0906 0.9869
vn -0.0984 -0.0618 0.9932
vn -0.1096 -0.0457 0.9929
vn -0.1203 -0.0398 0.9919
vn -0.1170 -0.0407 0.9923
vn -0.1435 -0.0300 0.9892
vn -0.1685 -0.0262 0.9853
vn 0.1530 0.0665 -0.9860
vn 0.0828 0.0515 0.9952
vn 0.9459 0.3185 0.0625
vn 0.9901 0.1168 0.0783
vn 0.1624 0.0558 -0.9851
vn 0.1179 0.0292 0.9926
vn 0.9727 -0.2110 0.0970
vn 0.2027 0.0172 -0.9791
vn 0.1346 0.0018 0.9909
vn 0.1213 0.1206 -0.9853
vn -0.3059 0.7847 0.5392
vn 0.6600 0.7484 0.0654
vn -0.0862 -0.0745 0.9935
vn -0.2476 0.0856 0.9651
vn 0.3566 0.9327 -0.0545
vn -0.3493 0.6229 0.7000
vn 0.4960 -0.8679 0.0269
vn 0.4584 -0.6305 -0.6264
vn -0.0481 -0.0498 0.9976
vn 0.0194 -0.2147 0.9765
vn -0.0527 -0.0077 0.9986
vn -0.0412 -0.0156 0.9990
vn -0.0605 -0.0235 0.9979
vn 0.0440 0.0549 0.9975
vn 0.2400 -0.1673 0.9562
vn 0.5343 -0.4483 0.7166
vn -0.4199 0.5051 0.7540
vn -0.1814 0.2625 0.9477
vn 0.5536 -0.4011 -0.7299
vn 0.7768 0.5946 0.2072
vn 0.9719 -0.1170 0.2043
vn 0.1752 -0.2631 0.9487
vn 0.1977 -0.5854 0.7862
vn -0.3048 0.7454 0.5928
vn 0.0756 0.2568 0.9635
vn -0.2400 0.5819 -0.7771
vn -0.1953 -0.1964 -0.9609
vn -0.6376 0.4103 -0.6520
vn 0.2106 -0.2226 0.9519
vn 0.3047 -0.5808 0.7549
vn -0.3986 0.6455 0.6515
vn -0.0407 0.2773 0.9599
vn 0.8710 -0.1321 0.4732
vn 0.2964 0.2627 0.9182
vn 0.6847 -0.3009 0.6638
vn 0.2085 -0.2237 0.9521
vn 0.3890 -0.5419 0.7450
vn -0.3511 0.6111 0.7094
vn -0.1137 0.2788 0.9536
vn -0.0999 0.9873 0.1235
vn 0.7918 -0.6092 0.0435
vn 0.5346 -0.5817 -0.6131
vn -0.7477 0.6619 -0.0527
vn -0.2814 0.8454 0.4540
vn -0.2974 0.6609 0.6890
vn 0.7743 0.6127 0.1581
vn -0.0957 0.4778 -0.8733
vn 0.1689 0.9856 -0.0064
vn 0.3826 -0.9228 0.0459
vn 0.6503 -0.4096 0.6397
vn 0.5025 -0.6054 0.6173
vn -0.2145 -0.2043 -0.9551
vn 0.5814 -0.5763 -0.5742
vn 0.1608 -0.7704 -0.6170
vn -0.3416 0.6124 -0.7129
vn -0.2524 0.9674 -0.0195
vn 0.3937 0.1879 0.8998
vn 0.0958 0.9123 0.3983
vn 0.1324 0.7600 0.6363
vn 0.7897 0.5944 0.1520
vn -0.1628 0.4956 -0.8531
vn 0.0590 0.9982 0.0103
vn 0.4925 -0.8702 -0.0112
vn 0.7395 -0.4772 0.4748
vn 0.5758 -0.5014 0.6458
vn -0.2131 -0.2312 -0.9493
vn 0.5717 -0.5336 -0.6232
vn 0.2848 -0.7409 -0.6082
vn -0.4874 0.5334 -0.6913
vn -0.4498 0.8931 -0.0114
vn 0.3653 0.1900 0.9113
vn 0.0260 0.8751 0.4832
vn -0.0773 0.7565 0.6494
vn 0.7823 0.6016 0.1616
vn -0.2211 0.4935 -0.8412
vn -0.0331 0.9995 0.0025
vn 0.7000 -0.7000 0.1415
vn 0.8086 -0.1706 0.5631
vn 0.6104 -0.4032 0.6817
vn -0.1913 -0.2346 -0.9531
vn 0.5804 -0.4872 -0.6525
vn 0.4322 -0.6903 -0.5802
vn -0.5694 0.4626 -0.6795
vn -0.6690 0.7306 -0.1364
vn 0.3606 0.2187 0.9067
vn -0.2492 0.9029 0.3504
vn -0.1662 0.7263 0.6670
vn 0.7028 0.7109 0.0263
vn 0.1333 0.0906 -0.9869
vn -0.0086 -0.0744 -0.9972
vn 0.9388 -0.1311 0.3186
vn 0.0613 0.0442 0.9971
vn 0.9836 -0.1797 0.0173
vn -0.0010 -0.0765 -0.9971
vn 0.9177 -0.2593 0.3009
vn 0.1185 0.0483 0.9918
vn -0.7176 -0.6957 0.0322
vn 0.1772 0.0475 -0.9830
vn -0.0109 -0.0834 -0.9965
vn 0.8796 -0.2877 0.3789
vn 0.1675 0.0087 0.9858
vn -0.9137 -0.4037 0.0472
vn 0.2409 -0.0080 -0.9705
vn 0.1130 -0.6664 0.7369
vn 0.2046 -0.6573 0.7253
vn 0.4777 -0.4158 -0.7739
vn 0.3445 -0.5612 -0.7526
vn -0.4341 0.6510 -0.6227
vn -0.4468 0.8545 0.2650
vn 0.6488 0.0735 -0.7574
vn 0.5369 0.8426 0.0409
vn 0.9556 0.2756 -0.1045
vn -0.0170 -0.1916 -0.9813
vn -0.6599 0.1080 -0.7435
vn 0.7458 0.4480 0.4931
vn -0.2814 0.6246 0.7285
vn -0.1625 0.4016 0.9013
vn -0.7238 0.2983 0.6223
vn 0.3602 0.5235 -0.7722
vn 0.4505 -0.3056 0.8388
vn -0.0274 0.0119 0.9996
vn -0.0179 0.0213 0.9996
vn -0.0113 0.0235 0.9997
vn -0.0357 0.0257 0.9990
vn -0.0272 0.0335 0.9991
vn -0.0276 0.0240 0.9993
vn -0.0273 0.0252 0.9993
vn 0.8779 -0.4782 0.0230
vn -0.7138 0.0538 0.6983
vn 0.2732 0.4117 -0.8694
vn -0.5336 -0.5855 0.6103
vn -0.0726 -0.6676 0.7410
vn -0.0553 -0.7576 -0.6504
vn -0.0714 -0.6642 0.7441
vn -0.0582 -0.6645 0.7450
vn -0.9994 0.0344 -0.0046
vn -0.5211 -0.6575 -0.5443
vn -0.7862 -0.6176 0.0201
vn -0.0437 -0.7548 -0.6545
vn -0.0526 -0.7560 -0.6525
vn -0.0254 -0.7587 -0.6509
vn -0.0191 -0.1146 -0.9932
vn -0.0357 -0.7551 -0.6546
vn -0.0277 -0.7569 -0.6529
vn 0.7389 -0.6724 0.0429
vn -0.0698 -0.6657 0.7429
vn -0.0439 -0.6671 0.7436
vn -0.0415 -0.6692 0.7419
vn 0.4721 -0.6270 0.6196
vn -0.0442 -0.6656 0.7450
vn -0.0401 -0.7543 -0.6553
vn 0.4885 -0.6971 -0.5248
vn 0.6495 0.6726 0.3547
vn 0.5018 0.5071 0.7008
vn 0.5729 0.4238 0.7016
vn 0.5580 0.4659 0.6867
vn 0.5705 0.4652 0.6768
vn -0.3756 0.6071 0.7002
vn 0.3962 -0.5784 0.7131
vn -0.3253 0.6343 0.7013
vn 0.3520 -0.6074 0.7121
vn -0.1627 0.6888 0.7064
vn 0.2428 -0.6623 0.7088
vn -0.4777 0.5246 0.7046
vn 0.5083 -0.4896 0.7084
vn -0.5775 -0.0843 -0.8120
vn -0.7966 0.1454 -0.5868
vn 0.5542 0.5690 0.6075
vn 0.9646 0.2544 -0.0698
vn 0.0183 -0.0532 -0.9984
vn 0.6786 0.1164 -0.7253
vn -0.7816 0.1952 0.5925
vn -0.3175 0.3419 0.8845
vn -0.9886 0.1499 -0.0128
vn 0.5397 0.2287 -0.8102
vn 0.5084 0.2269 -0.8307
vn 0.5163 0.2094 -0.8304
vn 0.5160 0.1627 -0.8410
vt 0.333333 0.333333
vt 0.000000 0.000000
vt 0.333333 0.000000
vt 0.000000 0.666667
vt 0.333333 0.666667
vt 0.666667 0.000000
vt 0.666667 0.333333
vt 0.666667 0.666667
vt 0.000000 1.000000
vt 0.333333 1.000000
vt 0.666667 1.000000
vt 0.000000 0.333333
s 0
usemtl Material.001
f 5/1/1 3/2/1 1/3/1
f 3/4/2 8/1/2 4/5/2
f 7/1/3 6/6/3 8/7/3
f 2/8/4 8/1/4 6/7/4
f 1/9/5 4/5/5 2/10/5
f 5/10/6 2/8/6 6/11/6
f 5/1/1 7/12/1 3/2/1
f 3/4/2 7/12/2 8/1/2
f 7/1/3 5/3/3 6/6/3
f 2/8/4 4/5/4 8/1/4
f 1/9/5 3/4/5 4/5/5
f 5/10/6 1/5/6 2/8/6
s 1
f 209/2/7 16/2/8 203/2/9
f 267/2/10 159/2/11 246/2/12
f 108/2/13 13/2/14 31/2/15
f 174/2/16 10/2/17 164/2/18
f 180/2/19 22/2/20 170/2/21
f 178/2/22 21/2/23 171/2/24
f 176/2/25 20/2/26 172/2/27
f 146/2/28 36/2/29 149/2/30
f 133/2/31 37/2/32 135/2/33
f 121/2/34 23/2/35 38/2/36
f 121/2/34 167/2/37 175/2/38
f 135/2/33 166/2/39 177/2/40
f 149/2/30 165/2/41 179/2/42
f 122/2/43 28/2/44 120/2/45
f 134/2/46 34/2/47 27/2/48
f 148/2/49 33/2/50 26/2/51
f 107/2/52 14/2/53 104/2/54
f 173/2/55 31/2/15 169/2/56
f 14/2/53 208/2/57 204/2/58
f 249/2/59 30/2/60 209/2/7
f 207/2/2 39/2/2 23/2/35
f 104/2/54 40/2/2 28/2/44
f 204/2/58 41/2/2 14/2/53
f 106/2/61 42/2/2 13/2/14
f 203/2/9 43/2/2 15/2/62
f 148/2/49 44/2/2 16/2/8
f 205/2/2 45/2/2 26/2/51
f 146/2/28 46/2/2 25/2/63
f 205/2/2 47/2/2 25/2/63
f 134/2/46 48/2/2 26/2/51
f 206/2/2 49/2/2 27/2/48
f 133/2/31 50/2/2 24/2/64
f 206/2/2 51/2/2 24/2/64
f 120/2/45 52/2/2 27/2/48
f 207/2/2 53/2/2 28/2/44
f 119/2/65 54/2/2 23/2/35
f 210/2/2 55/2/2 39/2/2
f 109/2/2 56/2/2 40/2/2
f 211/2/2 57/2/2 41/2/2
f 110/2/2 58/2/2 42/2/2
f 212/2/2 59/2/2 43/2/2
f 151/2/2 60/2/2 44/2/2
f 213/2/2 61/2/2 45/2/2
f 152/2/2 62/2/2 46/2/2
f 214/2/2 63/2/2 47/2/2
f 137/2/2 64/2/2 48/2/2
f 215/2/2 65/2/2 49/2/2
f 138/2/2 66/2/2 50/2/2
f 216/2/2 67/2/2 51/2/2
f 123/2/2 68/2/2 52/2/2
f 217/2/2 69/2/2 53/2/2
f 124/2/2 70/2/2 54/2/2
f 55/2/2 114/2/66 112/2/2
f 218/2/2 71/2/67 55/2/2
f 111/2/2 72/2/68 56/2/2
f 219/2/2 73/2/69 57/2/2
f 112/2/2 74/2/70 58/2/2
f 88/2/71 242/2/72 234/2/73
f 220/2/2 75/2/74 59/2/2
f 153/2/2 76/2/75 60/2/2
f 221/2/2 77/2/76 61/2/2
f 154/2/2 78/2/77 62/2/2
f 89/2/78 273/2/79 270/2/80
f 222/2/2 79/2/81 63/2/2
f 139/2/2 80/2/82 64/2/2
f 223/2/2 81/2/83 65/2/2
f 140/2/2 82/2/84 66/2/2
f 87/2/85 272/2/86 269/2/87
f 224/2/2 83/2/88 67/2/2
f 125/2/2 84/2/89 68/2/2
f 225/2/2 85/2/90 69/2/2
f 126/2/2 86/2/91 70/2/2
f 242/2/72 89/2/78 235/2/92
f 275/2/93 87/2/85 269/2/87
f 273/2/79 88/2/71 268/2/94
f 235/2/92 270/2/80 274/2/95
f 272/2/86 90/2/96 271/2/97
f 245/2/98 93/2/99 237/2/100
f 299/2/101 91/2/102 293/2/103
f 297/2/104 92/2/105 292/2/106
f 237/2/100 294/2/107 298/2/108
f 296/2/109 94/2/110 295/2/111
f 244/2/112 97/2/113 239/2/114
f 291/2/115 95/2/116 285/2/117
f 289/2/118 96/2/119 284/2/120
f 239/2/114 286/2/121 290/2/122
f 288/2/123 98/2/124 287/2/125
f 243/2/126 101/2/127 241/2/128
f 283/2/129 99/2/130 277/2/131
f 281/2/132 100/2/133 276/2/134
f 241/2/128 278/2/135 282/2/136
f 280/2/137 102/2/138 279/2/139
f 57/2/2 113/2/140 111/2/2
f 39/2/2 112/2/2 110/2/2
f 41/2/2 111/2/2 109/2/2
f 23/2/35 110/2/2 106/2/61
f 14/2/53 109/2/2 104/2/54
f 167/2/37 108/2/13 173/2/55
f 35/2/141 104/2/54 28/2/44
f 172/2/27 105/2/142 174/2/16
f 38/2/36 106/2/61 108/2/13
f 99/2/130 280/2/137 277/2/131
f 101/2/127 281/2/132 278/2/135
f 100/2/133 243/2/126 240/2/143
f 67/2/2 128/2/144 126/2/2
f 69/2/2 127/2/145 125/2/2
f 51/2/2 126/2/2 124/2/2
f 53/2/2 125/2/2 123/2/2
f 24/2/64 124/2/2 119/2/65
f 28/2/44 123/2/2 120/2/45
f 34/2/47 120/2/45 27/2/48
f 37/2/32 175/2/38 166/2/39
f 37/2/32 119/2/65 121/2/34
f 171/2/24 118/2/146 176/2/25
f 95/2/116 288/2/123 285/2/117
f 97/2/113 289/2/118 286/2/121
f 96/2/119 244/2/112 238/2/147
f 63/2/2 142/2/148 140/2/2
f 65/2/2 141/2/149 139/2/2
f 47/2/2 140/2/2 138/2/2
f 49/2/2 139/2/2 137/2/2
f 25/2/63 138/2/2 133/2/31
f 27/2/48 137/2/2 134/2/46
f 26/2/51 136/2/150 134/2/46
f 36/2/29 177/2/40 165/2/41
f 25/2/63 135/2/33 36/2/29
f 170/2/21 132/2/151 178/2/22
f 91/2/102 296/2/109 293/2/103
f 93/2/99 297/2/104 294/2/107
f 92/2/105 245/2/98 236/2/152
f 59/2/2 156/2/153 154/2/2
f 61/2/2 155/2/154 153/2/2
f 43/2/2 154/2/2 152/2/2
f 45/2/2 153/2/2 151/2/2
f 15/2/62 152/2/2 146/2/28
f 26/2/51 151/2/2 148/2/49
f 16/2/8 150/2/155 148/2/49
f 29/2/156 179/2/42 163/2/157
f 15/2/62 149/2/30 29/2/156
f 12/2/158 180/2/19 168/2/159
f 181/2/160 246/2/12 248/2/161
f 257/2/162 247/2/163 265/2/164
f 263/2/165 160/2/166 181/2/160
f 258/2/167 182/2/168 261/2/169
f 261/2/169 159/2/11 253/2/170
f 263/2/165 161/2/171 257/2/162
f 247/2/163 181/2/160 248/2/161
f 30/2/60 180/2/19 150/2/155
f 11/2/172 179/2/42 147/2/173
f 33/2/50 178/2/22 136/2/150
f 17/2/174 177/2/40 131/2/175
f 34/2/47 176/2/25 122/2/43
f 166/2/39 117/2/176 18/2/177
f 172/2/27 107/2/52 35/2/141
f 167/2/37 103/2/178 19/2/179
f 12/2/158 249/2/59 202/2/180
f 173/2/55 9/2/181 103/2/178
f 147/2/173 165/2/41 17/2/174
f 177/2/40 18/2/177 131/2/175
f 175/2/38 19/2/179 117/2/176
f 122/2/43 172/2/27 35/2/141
f 136/2/150 171/2/24 34/2/47
f 150/2/155 170/2/21 33/2/50
f 174/2/16 32/2/182 107/2/52
f 103/2/178 183/2/183 193/2/184
f 20/2/26 194/2/185 105/2/142
f 18/2/177 195/2/186 188/2/187
f 201/2/188 184/2/189 250/2/190
f 21/2/23 196/2/191 118/2/146
f 118/2/146 190/2/192 20/2/26
f 12/2/158 199/2/193 145/2/194
f 22/2/20 198/2/195 132/2/151
f 145/2/194 192/2/196 22/2/20
f 11/2/172 251/2/197 202/2/180
f 19/2/179 193/2/184 189/2/198
f 147/2/173 187/2/199 200/2/200
f 11/2/172 200/2/200 185/2/201
f 105/2/142 184/2/189 10/2/17
f 17/2/174 197/2/202 187/2/199
f 131/2/175 188/2/187 197/2/202
f 132/2/151 191/2/203 21/2/23
f 117/2/176 189/2/198 195/2/186
f 202/2/180 186/2/204 12/2/158
f 9/2/181 250/2/190 183/2/183
f 11/2/172 249/2/59 163/2/157
f 162/2/205 248/2/161 182/2/168
f 265/2/164 162/2/205 258/2/167
f 182/2/168 246/2/12 159/2/11
f 236/2/152 158/2/206 91/2/102
f 238/2/147 144/2/207 95/2/116
f 240/2/143 130/2/208 99/2/130
f 102/2/138 282/2/136 279/2/139
f 276/2/134 240/2/143 283/2/129
f 130/2/208 241/2/128 102/2/138
f 98/2/124 290/2/122 287/2/125
f 284/2/120 238/2/147 291/2/115
f 144/2/207 239/2/114 98/2/124
f 94/2/110 298/2/108 295/2/111
f 292/2/106 236/2/152 299/2/101
f 158/2/206 237/2/100 94/2/110
f 90/2/96 274/2/95 271/2/97
f 268/2/94 234/2/73 275/2/93
f 116/2/209 235/2/92 90/2/96
f 70/2/2 233/2/210 225/2/2
f 68/2/2 232/2/211 224/2/2
f 66/2/2 231/2/212 223/2/2
f 64/2/2 230/2/213 222/2/2
f 62/2/2 229/2/214 221/2/2
f 60/2/2 228/2/215 220/2/2
f 234/2/73 116/2/209 87/2/85
f 58/2/2 227/2/216 219/2/2
f 56/2/2 226/2/217 218/2/2
f 54/2/2 225/2/2 217/2/2
f 52/2/2 224/2/2 216/2/2
f 50/2/2 223/2/2 215/2/2
f 48/2/2 222/2/2 214/2/2
f 46/2/2 221/2/2 213/2/2
f 44/2/2 220/2/2 212/2/2
f 42/2/2 219/2/2 211/2/2
f 40/2/2 218/2/2 210/2/2
f 23/2/35 217/2/2 207/2/2
f 27/2/48 216/2/2 206/2/2
f 24/2/64 215/2/2 206/2/2
f 26/2/51 214/2/2 205/2/2
f 25/2/63 213/2/2 205/2/2
f 16/2/8 212/2/2 203/2/9
f 13/2/14 211/2/2 204/2/58
f 28/2/44 210/2/2 207/2/2
f 163/2/157 209/2/7 29/2/156
f 204/2/58 31/2/15 13/2/14
f 254/2/218 246/2/12 160/2/166
f 29/2/156 203/2/9 15/2/62
f 201/2/188 255/2/219 10/2/17
f 255/2/219 267/2/10 254/2/218
f 208/2/57 259/2/220 31/2/15
f 264/2/221 258/2/167 259/2/220
f 32/2/182 262/2/222 256/2/223
f 256/2/223 263/2/165 257/2/162
f 169/2/56 252/2/224 9/2/181
f 260/2/225 253/2/170 252/2/224
f 31/2/15 260/2/225 169/2/56
f 259/2/220 261/2/169 260/2/225
f 164/2/18 255/2/219 262/2/222
f 262/2/222 254/2/218 263/2/165
f 32/2/182 264/2/221 208/2/57
f 256/2/223 265/2/164 264/2/221
f 201/2/188 252/2/224 266/2/226
f 266/2/226 253/2/170 267/2/10
f 268/2/94 226/2/217 72/2/68
f 271/2/97 227/2/216 74/2/70
f 114/2/66 271/2/97 74/2/70
f 227/2/216 270/2/80 73/2/69
f 113/2/140 268/2/94 72/2/68
f 226/2/217 269/2/87 71/2/67
f 269/2/87 114/2/66 71/2/67
f 270/2/80 113/2/140 73/2/69
f 276/2/134 232/2/211 84/2/89
f 279/2/139 233/2/210 86/2/91
f 278/2/135 127/2/145 85/2/90
f 277/2/131 128/2/144 83/2/88
f 128/2/144 279/2/139 86/2/91
f 233/2/210 278/2/135 85/2/90
f 127/2/145 276/2/134 84/2/89
f 232/2/211 277/2/131 83/2/88
f 80/2/82 291/2/115 230/2/213
f 287/2/125 231/2/212 82/2/84
f 81/2/83 289/2/118 141/2/149
f 285/2/117 142/2/148 79/2/81
f 288/2/123 82/2/84 142/2/148
f 290/2/122 81/2/83 231/2/212
f 141/2/149 284/2/120 80/2/82
f 230/2/213 285/2/117 79/2/81
f 76/2/75 299/2/101 228/2/215
f 295/2/111 229/2/214 78/2/77
f 77/2/76 297/2/104 155/2/154
f 293/2/103 156/2/153 75/2/74
f 296/2/109 78/2/77 156/2/153
f 298/2/108 77/2/76 229/2/214
f 155/2/154 292/2/106 76/2/75
f 228/2/215 293/2/103 75/2/74
f 193/2/184 250/2/190 194/2/185
f 209/2/7 30/2/60 16/2/8
f 267/2/10 253/2/170 159/2/11
f 108/2/13 106/2/61 13/2/14
f 174/2/16 105/2/142 10/2/17
f 180/2/19 145/2/194 22/2/20
f 178/2/22 132/2/151 21/2/23
f 176/2/25 118/2/146 20/2/26
f 146/2/28 25/2/63 36/2/29
f 133/2/31 24/2/64 37/2/32
f 121/2/34 119/2/65 23/2/35
f 121/2/34 38/2/36 167/2/37
f 135/2/33 37/2/32 166/2/39
f 149/2/30 36/2/29 165/2/41
f 122/2/43 35/2/141 28/2/44
f 134/2/46 136/2/150 34/2/47
f 148/2/49 150/2/155 33/2/50
f 107/2/52 32/2/182 14/2/53
f 173/2/55 108/2/13 31/2/15
f 14/2/53 32/2/182 208/2/57
f 249/2/59 168/2/159 30/2/60
f 207/2/2 210/2/2 39/2/2
f 104/2/54 109/2/2 40/2/2
f 204/2/58 211/2/2 41/2/2
f 106/2/61 110/2/2 42/2/2
f 203/2/9 212/2/2 43/2/2
f 148/2/49 151/2/2 44/2/2
f 205/2/2 213/2/2 45/2/2
f 146/2/28 152/2/2 46/2/2
f 205/2/2 214/2/2 47/2/2
f 134/2/46 137/2/2 48/2/2
f 206/2/2 215/2/2 49/2/2
f 133/2/31 138/2/2 50/2/2
f 206/2/2 216/2/2 51/2/2
f 120/2/45 123/2/2 52/2/2
f 207/2/2 217/2/2 53/2/2
f 119/2/65 124/2/2 54/2/2
f 210/2/2 218/2/2 55/2/2
f 109/2/2 111/2/2 56/2/2
f 211/2/2 219/2/2 57/2/2
f 110/2/2 112/2/2 58/2/2
f 212/2/2 220/2/2 59/2/2
f 151/2/2 153/2/2 60/2/2
f 213/2/2 221/2/2 61/2/2
f 152/2/2 154/2/2 62/2/2
f 214/2/2 222/2/2 63/2/2
f 137/2/2 139/2/2 64/2/2
f 215/2/2 223/2/2 65/2/2
f 138/2/2 140/2/2 66/2/2
f 216/2/2 224/2/2 67/2/2
f 123/2/2 125/2/2 68/2/2
f 217/2/2 225/2/2 69/2/2
f 124/2/2 126/2/2 70/2/2
f 55/2/2 71/2/67 114/2/66
f 218/2/2 226/2/217 71/2/67
f 111/2/2 113/2/140 72/2/68
f 219/2/2 227/2/216 73/2/69
f 112/2/2 114/2/66 74/2/70
f 88/2/71 115/2/227 242/2/72
f 220/2/2 228/2/215 75/2/74
f 153/2/2 155/2/154 76/2/75
f 221/2/2 229/2/214 77/2/76
f 154/2/2 156/2/153 78/2/77
f 89/2/78 115/2/227 273/2/79
f 222/2/2 230/2/213 79/2/81
f 139/2/2 141/2/149 80/2/82
f 223/2/2 231/2/212 81/2/83
f 140/2/2 142/2/148 82/2/84
f 87/2/85 116/2/209 272/2/86
f 224/2/2 232/2/211 83/2/88
f 125/2/2 127/2/145 84/2/89
f 225/2/2 233/2/210 85/2/90
f 126/2/2 128/2/144 86/2/91
f 242/2/72 115/2/227 89/2/78
f 275/2/93 234/2/73 87/2/85
f 273/2/79 115/2/227 88/2/71
f 235/2/92 89/2/78 270/2/80
f 272/2/86 116/2/209 90/2/96
f 245/2/98 157/2/228 93/2/99
f 299/2/101 236/2/152 91/2/102
f 297/2/104 157/2/228 92/2/105
f 237/2/100 93/2/99 294/2/107
f 296/2/109 158/2/206 94/2/110
f 244/2/112 143/2/229 97/2/113
f 291/2/115 238/2/147 95/2/116
f 289/2/118 143/2/229 96/2/119
f 239/2/114 97/2/113 286/2/121
f 288/2/123 144/2/207 98/2/124
f 243/2/126 129/2/230 101/2/127
f 283/2/129 240/2/143 99/2/130
f 281/2/132 129/2/230 100/2/133
f 241/2/128 101/2/127 278/2/135
f 280/2/137 130/2/208 102/2/138
f 57/2/2 73/2/69 113/2/140
f 39/2/2 55/2/2 112/2/2
f 41/2/2 57/2/2 111/2/2
f 23/2/35 39/2/2 110/2/2
f 14/2/53 41/2/2 109/2/2
f 167/2/37 38/2/36 108/2/13
f 35/2/141 107/2/52 104/2/54
f 172/2/27 20/2/26 105/2/142
f 38/2/36 23/2/35 106/2/61
f 99/2/130 130/2/208 280/2/137
f 101/2/127 129/2/230 281/2/132
f 100/2/133 129/2/230 243/2/126
f 67/2/2 83/2/88 128/2/144
f 69/2/2 85/2/90 127/2/145
f 51/2/2 67/2/2 126/2/2
f 53/2/2 69/2/2 125/2/2
f 24/2/64 51/2/2 124/2/2
f 28/2/44 53/2/2 123/2/2
f 34/2/47 122/2/43 120/2/45
f 37/2/32 121/2/34 175/2/38
f 37/2/32 24/2/64 119/2/65
f 171/2/24 21/2/23 118/2/146
f 95/2/116 144/2/207 288/2/123
f 97/2/113 143/2/229 289/2/118
f 96/2/119 143/2/229 244/2/112
f 63/2/2 79/2/81 142/2/148
f 65/2/2 81/2/83 141/2/149
f 47/2/2 63/2/2 140/2/2
f 49/2/2 65/2/2 139/2/2
f 25/2/63 47/2/2 138/2/2
f 27/2/48 49/2/2 137/2/2
f 26/2/51 33/2/50 136/2/150
f 36/2/29 135/2/33 177/2/40
f 25/2/63 133/2/31 135/2/33
f 170/2/21 22/2/20 132/2/151
f 91/2/102 158/2/206 296/2/109
f 93/2/99 157/2/228 297/2/104
f 92/2/105 157/2/228 245/2/98
f 59/2/2 75/2/74 156/2/153
f 61/2/2 77/2/76 155/2/154
f 43/2/2 59/2/2 154/2/2
f 45/2/2 61/2/2 153/2/2
f 15/2/62 43/2/2 152/2/2
f 26/2/51 45/2/2 151/2/2
f 16/2/8 30/2/60 150/2/155
f 29/2/156 149/2/30 179/2/42
f 15/2/62 146/2/28 149/2/30
f 12/2/158 145/2/194 180/2/19
f 181/2/160 160/2/166 246/2/12
f 257/2/162 161/2/171 247/2/163
f 263/2/165 254/2/218 160/2/166
f 258/2/167 162/2/205 182/2/168
f 261/2/169 182/2/168 159/2/11
f 263/2/165 181/2/160 161/2/171
f 247/2/163 161/2/171 181/2/160
f 30/2/60 168/2/159 180/2/19
f 11/2/172 163/2/157 179/2/42
f 33/2/50 170/2/21 178/2/22
f 17/2/174 165/2/41 177/2/40
f 34/2/47 171/2/24 176/2/25
f 166/2/39 175/2/38 117/2/176
f 172/2/27 174/2/16 107/2/52
f 167/2/37 173/2/55 103/2/178
f 12/2/158 168/2/159 249/2/59
f 173/2/55 169/2/56 9/2/181
f 147/2/173 179/2/42 165/2/41
f 177/2/40 166/2/39 18/2/177
f 175/2/38 167/2/37 19/2/179
f 122/2/43 176/2/25 172/2/27
f 136/2/150 178/2/22 171/2/24
f 150/2/155 180/2/19 170/2/21
f 174/2/16 164/2/18 32/2/182
f 103/2/178 9/2/181 183/2/183
f 20/2/26 190/2/192 194/2/185
f 18/2/177 117/2/176 195/2/186
f 201/2/188 10/2/17 184/2/189
f 21/2/23 191/2/203 196/2/191
f 118/2/146 196/2/191 190/2/192
f 12/2/158 186/2/204 199/2/193
f 22/2/20 192/2/196 198/2/195
f 145/2/194 199/2/193 192/2/196
f 11/2/172 185/2/201 251/2/197
f 19/2/179 103/2/178 193/2/184
f 147/2/173 17/2/174 187/2/199
f 11/2/172 147/2/173 200/2/200
f 105/2/142 194/2/185 184/2/189
f 17/2/174 131/2/175 197/2/202
f 131/2/175 18/2/177 188/2/187
f 132/2/151 198/2/195 191/2/203
f 117/2/176 19/2/179 189/2/198
f 202/2/180 251/2/197 186/2/204
f 9/2/181 201/2/188 250/2/190
f 11/2/172 202/2/180 249/2/59
f 162/2/205 247/2/163 248/2/161
f 265/2/164 247/2/163 162/2/205
f 182/2/168 248/2/161 246/2/12
f 236/2/152 245/2/98 158/2/206
f 238/2/147 244/2/112 144/2/207
f 240/2/143 243/2/126 130/2/208
f 102/2/138 241/2/128 282/2/136
f 276/2/134 100/2/133 240/2/143
f 130/2/208 243/2/126 241/2/128
f 98/2/124 239/2/114 290/2/122
f 284/2/120 96/2/119 238/2/147
f 144/2/207 244/2/112 239/2/114
f 94/2/110 237/2/100 298/2/108
f 292/2/106 92/2/105 236/2/152
f 158/2/206 245/2/98 237/2/100
f 90/2/96 235/2/92 274/2/95
f 268/2/94 88/2/71 234/2/73
f 116/2/209 242/2/72 235/2/92
f 70/2/2 86/2/91 233/2/210
f 68/2/2 84/2/89 232/2/211
f 66/2/2 82/2/84 231/2/212
f 64/2/2 80/2/82 230/2/213
f 62/2/2 78/2/77 229/2/214
f 60/2/2 76/2/75 228/2/215
f 234/2/73 242/2/72 116/2/209
f 58/2/2 74/2/70 227/2/216
f 56/2/2 72/2/68 226/2/217
f 54/2/2 70/2/2 225/2/2
f 52/2/2 68/2/2 224/2/2
f 50/2/2 66/2/2 223/2/2
f 48/2/2 64/2/2 222/2/2
f 46/2/2 62/2/2 221/2/2
f 44/2/2 60/2/2 220/2/2
f 42/2/2 58/2/2 219/2/2
f 40/2/2 56/2/2 218/2/2
f 23/2/35 54/2/2 217/2/2
f 27/2/48 52/2/2 216/2/2
f 24/2/64 50/2/2 215/2/2
f 26/2/51 48/2/2 214/2/2
f 25/2/63 46/2/2 213/2/2
f 16/2/8 44/2/2 212/2/2
f 13/2/14 42/2/2 211/2/2
f 28/2/44 40/2/2 210/2/2
f 163/2/157 249/2/59 209/2/7
f 204/2/58 208/2/57 31/2/15
f 254/2/218 267/2/10 246/2/12
f 29/2/156 209/2/7 203/2/9
f 201/2/188 266/2/226 255/2/219
f 255/2/219 266/2/226 267/2/10
f 208/2/57 264/2/221 259/2/220
f 264/2/221 265/2/164 258/2/167
f 32/2/182 164/2/18 262/2/222
f 256/2/223 262/2/222 263/2/165
f 169/2/56 260/2/225 252/2/224
f 260/2/225 261/2/169 253/2/170
f 31/2/15 259/2/220 260/2/225
f 259/2/220 258/2/167 261/2/169
f 164/2/18 10/2/17 255/2/219
f 262/2/222 255/2/219 254/2/218
f 32/2/182 256/2/223 264/2/221
f 256/2/223 257/2/162 265/2/164
f 201/2/188 9/2/181 252/2/224
f 266/2/226 252/2/224 253/2/170
f 268/2/94 275/2/93 226/2/217
f 271/2/97 274/2/95 227/2/216
f 114/2/66 272/2/86 271/2/97
f 227/2/216 274/2/95 270/2/80
f 113/2/140 273/2/79 268/2/94
f 226/2/217 275/2/93 269/2/87
f 269/2/87 272/2/86 114/2/66
f 270/2/80 273/2/79 113/2/140
f 276/2/134 283/2/129 232/2/211
f 279/2/139 282/2/136 233/2/210
f 278/2/135 281/2/132 127/2/145
f 277/2/131 280/2/137 128/2/144
f 128/2/144 280/2/137 279/2/139
f 233/2/210 282/2/136 278/2/135
f 127/2/145 281/2/132 276/2/134
f 232/2/211 283/2/129 277/2/131
f 80/2/82 284/2/120 291/2/115
f 287/2/125 290/2/122 231/2/212
f 81/2/83 286/2/121 289/2/118
f 285/2/117 288/2/123 142/2/148
f 288/2/123 287/2/125 82/2/84
f 290/2/122 286/2/121 81/2/83
f 141/2/149 289/2/118 284/2/120
f 230/2/213 291/2/115 285/2/117
f 76/2/75 292/2/106 299/2/101
f 295/2/111 298/2/108 229/2/214
f 77/2/76 294/2/107 297/2/104
f 293/2/103 296/2/109 156/2/153
f 296/2/109 295/2/111 78/2/77
f 298/2/108 294/2/107 77/2/76
f 155/2/154 297/2/104 292/2/106
f 228/2/215 299/2/101 293/2/103
f 189/2/198 193/2/184 194/2/185
f 193/2/184 183/2/183 250/2/190
f 250/2/190 184/2/189 194/2/185
f 194/2/185 190/2/192 189/2/198
f 190/2/192 196/2/191 189/2/198
f 196/2/191 191/2/203 195/2/186
f 189/2/198 196/2/191 195/2/186
f 191/2/203 198/2/195 197/2/202
f 198/2/195 192/2/196 187/2/199
f 192/2/196 199/2/193 187/2/199
f 199/2/193 186/2/204 251/2/197
f 187/2/199 199/2/193 200/2/200
f 251/2/197 185/2/201 200/2/200
f 251/2/197 200/2/200 199/2/193
f 187/2/199 197/2/202 198/2/195
f 197/2/202 188/2/187 191/2/203
f 188/2/187 195/2/186 191/2/203
